<svg xmlns="http://www.w3.org/2000/svg" viewBox="0 0 529.53 158.55"><defs><style>.cls-1{fill:#fff}</style></defs><g id="Слой_2" data-name="Слой 2"><g id="Логотипы"><path class="cls-1" d="M21.47 88.75l1.65 1.88a.58.58 0 01.15.38v4.4a2.13 2.13 0 003.34 1.76l4.56-3.12a10.79 10.79 0 012.72-1.35l1.52-.5a.71.71 0 01.92.67v.44a.69.69 0 01-.56.68 3 3 0 00-1.59.9L22 108.08a1 1 0 01-1.73-.56 70.51 70.51 0 01.19-18.47.57.57 0 011.01-.3z"/><circle class="cls-1" cx="33.19" cy="39.88" r="1.89"/><path class="cls-1" d="M40.74 8.54v6.9a12.06 12.06 0 01-1.33 5.5l-2.35 4.56a24.7 24.7 0 00-2.73 11.31V37a3.14 3.14 0 00-3.33.69h-.28A2.46 2.46 0 0128.4 36l-1.11-3.34a6.4 6.4 0 01.46-5.12L38.55 8a1.17 1.17 0 012.19.54zM8.73 76.29a5.5 5.5 0 012.53-4.64l.08-.09-9.17-11.8a1.21 1.21 0 00-2.17.79l.51 14a10.9 10.9 0 00.7 3.5A11.15 11.15 0 003 81.18a12.74 12.74 0 012.82 7 48.79 48.79 0 002.58 13.07.5.5 0 001-.2 67.65 67.65 0 012-20.12 5.53 5.53 0 01-2.67-4.64zm32.5 7.91l.3-1.12a1.29 1.29 0 00-.66-1.49l-4.4-2.25a.38.38 0 00-.53.22.35.35 0 000 .3 4.38 4.38 0 01.46 2V82a1.26 1.26 0 00.48 1.06l2.26 1.81a1.3 1.3 0 002.09-.67zm-1.9 5.02l.3-.47A1.31 1.31 0 0039.3 87l-2.77-2a1.29 1.29 0 00-1.6.07 1.29 1.29 0 00-.3 1.61l.22.41a1.27 1.27 0 00.27.34l2.25 2a1.3 1.3 0 001.96-.21zm-5.73-1.43a1.31 1.31 0 00-1.79 0l-.48.44a1.29 1.29 0 000 1.88l1.13 1.14a1.33 1.33 0 001.27.34l.73-.21a1.29 1.29 0 00.54-2.21zm-5.39 2.44h-1.9A1.3 1.3 0 0025 91.54v3.3a.78.78 0 001.16.67l3.56-2.05a1.3 1.3 0 00.21-2.1l-.89-.8a1.28 1.28 0 00-.83-.33zm3.55-34.08l-1.27 2.64a11.26 11.26 0 00-1.13 4.83v1.24a9.66 9.66 0 001.84 5.75l4.11 5.66a.44.44 0 00.15.12l5.8 2.72a.38.38 0 00.54-.36l-.2-6.29a.46.46 0 00-.09-.23l-2.21-2.62a3 3 0 01.22 1.16 3.07 3.07 0 01-3.08 3.08c-2.42 0-4.19-2.8-2.26-5.33l.1-.1a3.65 3.65 0 012.57-.71.38.38 0 00.32-.63l-.3-.36a.21.21 0 01-.06-.1l-4.35-10.45a.38.38 0 00-.7-.02zm8.11-8.08A34.85 34.85 0 0136.8 46a1.1 1.1 0 00-1.7.28l-.16.29a8 8 0 00-1 3.55L33.78 54a.3.3 0 000 .16L36.23 60a.38.38 0 00.7 0 3.09 3.09 0 012.85-1.91 2.93 2.93 0 01.67.08l-.48-.7a.44.44 0 01-.06-.16 74.75 74.75 0 01.79-7.47 1.82 1.82 0 00-.83-1.77zm-1.23 17.72l2.68 3.36a.38.38 0 00.68-.21l.28-5a.37.37 0 00-.61-.3 3.08 3.08 0 01-3.07.4.38.38 0 00-.5.5l.49 1.18a.26.26 0 00.05.07zM22.09 49.64a.38.38 0 00.63.13 3.1 3.1 0 012.19-.91 3.14 3.14 0 012.49 5l-.07.09a3.34 3.34 0 01-2.77 1 .39.39 0 00-.41.51l2.76 7.9a.39.39 0 00.75-.13A11.4 11.4 0 0128.94 58l1.47-2.81a4.73 4.73 0 00.1-4.12l-2.16-4.73a12.62 12.62 0 01-.93-7.57v-.13a.44.44 0 000-.2L25 31.19a1 1 0 00-1.95 0l-1.89 5a15.07 15.07 0 00-.16 10.3z"/><path class="cls-1" d="M13.63 70.37l.42.35h.16a5.51 5.51 0 015.47 4.84l.07.06 8.12 4.06a.37.37 0 00.49-.14v-.06a.38.38 0 000-.45l-10.67-12.2a.36.36 0 00-.18-.12 3.07 3.07 0 01-2.2-2.95 3 3 0 01.18-1 .5.5 0 000-.12V48.88a.38.38 0 01.74-.13l.27.71a.51.51 0 010 .13v11a.38.38 0 00.55.34 3.08 3.08 0 012.82 5.48.38.38 0 00-.11.59l9.72 11a.38.38 0 00.52 0 4.34 4.34 0 014.48.15l.05-.13L31 73.38a39.12 39.12 0 01-5.6-10.27l-7.59-20.83a.22.22 0 000-.08L12 33.93a1.36 1.36 0 00-2.47.78v27.06A9.88 9.88 0 0011.69 68zm38.55-43.16l3.13-1.79a.7.7 0 00.31-.39l2.22-7.51a.67.67 0 00-1-.75L50.15 21a14.1 14.1 0 00-4.9 5.27l-1.78 3.37a6.26 6.26 0 00-.3 5.23l2.6 6.62a.67.67 0 001.21.08l.48-.86a6.59 6.59 0 00.8-3.13v-1.89a.63.63 0 01.09-.33l2.13-3.64a4 4 0 00.52-2.25v-.13a2.32 2.32 0 011.18-2.13zM27.81 82.26c0-.14-.09-.26-.54-.46l-7.49-3.42a.38.38 0 00-.51.18 4.69 4.69 0 01-.44.79A2.18 2.18 0 0019 82l5.83 6.65a.36.36 0 00.26.13l3.28.23a.37.37 0 00.28-.1l2.52-2.26A.38.38 0 0031 86a4.33 4.33 0 01-3.19-3.74zm-1.49-28.77l.1-.1a2.08 2.08 0 00-1.51-3.48 2 2 0 00-2 2 2 2 0 00.47 1.29 2.12 2.12 0 002.94.29z"/><path class="cls-1" d="M19.92 62.34a.47.47 0 00-.1-.1 2.09 2.09 0 00-3.28.69 2.34 2.34 0 00.5 2.51.47.47 0 00.19.12 3.08 3.08 0 001.45.2 2.08 2.08 0 001.24-3.42zm21.29-2.68a2.09 2.09 0 00-3 2.94.28.28 0 00.09.1 2.09 2.09 0 003-3 .28.28 0 00-.09-.04zm-3.36 9.58a2.1 2.1 0 00-2.94 3l.1.09a2.09 2.09 0 002.94-3 .47.47 0 00-.1-.09zm-3.97 10.35a2.85 2.85 0 00-3.16-.26 2.87 2.87 0 00-1.11 1.13.31.31 0 00-.05.1 2.77 2.77 0 00-.29 1.25 2.93 2.93 0 00.17 1 2.85 2.85 0 002.67 1.85 2.81 2.81 0 001.72-.58 2.89 2.89 0 00.57-.59 2.84 2.84 0 00-.52-3.88zM17 73.68l-.1-.09C13 70.72 8.68 75 11.55 78.9l.09.09c3.86 2.85 8.16-1.45 5.36-5.31zm46.52-50.19L53.88 28a1.59 1.59 0 00-.9 1.6 4.87 4.87 0 01-.79 3.21l-1.28 1.92a.41.41 0 00.52.6l8-3.75a.37.37 0 00.18-.17l4.4-7.37a.42.42 0 00-.49-.55z"/><path class="cls-1" d="M75.65 7.54L63 15.06a.32.32 0 00-.14.14l-4.76 8.47a.39.39 0 00.51.53L65 20.85a.38.38 0 01.56.34v.74a.38.38 0 00.57.33L73 18.38a1.61 1.61 0 00.81-1.4v-1.76a.77.77 0 00-1.15-.67l-5.31 3a.38.38 0 01-.57-.33v-1.75a.4.4 0 01.2-.33L74.25 11a1 1 0 011.54.89v5.67a1.93 1.93 0 01-.9 1.63l-6.78 4.24a.39.39 0 00-.18.33v2a.38.38 0 00.58.32L76.7 21a1.94 1.94 0 00.9-1.64V8.65a1.29 1.29 0 00-1.95-1.11zM16.32 101a63.4 63.4 0 011.62-14.28 4.23 4.23 0 00-.94-3.78l-.92-1a1.47 1.47 0 00-1.24-.51 1.51 1.51 0 00-1.38 1.2 68.21 68.21 0 0033.78 72.65A63 63 0 0116.32 101z"/><path class="cls-1" d="M22.54 118a.79.79 0 001.46.18q2.2-4.11 4.87-8.45c2.55-4.15 5.13-7.95 7.65-11.41a.84.84 0 00.16-.51v-1.75a.52.52 0 00-.9-.36c-2.31 2.35-4.69 5-7.1 7.84-2.05 2.45-3.92 4.86-5.61 7.18a6.19 6.19 0 00-1.07 4.86c.16.81.35 1.61.54 2.42zm3.53 10.05a.79.79 0 001.46-.09c1.31-4 2.86-8.34 4.7-12.81 1.56-3.77 3.17-7.3 4.79-10.58a1.37 1.37 0 00.13-.77c-.09-.71-.16-1.43-.23-2.15a.45.45 0 00-.82-.21c-2.17 3.44-4.35 7.19-6.49 11.24q-2.55 4.84-4.6 9.4a4.25 4.25 0 00-.08 3.3q.54 1.35 1.14 2.67zm4.93 8.64a.78.78 0 001.42-.31c.72-4.25 1.64-8.79 2.84-13.55 1.09-4.34 2.3-8.41 3.55-12.19a1.25 1.25 0 00-.07-.93 14 14 0 01-.73-1.93.43.43 0 00-.8 0c-1.29 3.16-2.56 6.53-3.76 10.1-1.61 4.76-2.91 9.3-4 13.56a5.11 5.11 0 00.65 4c.26.38.55.82.9 1.25zm6.24 7.71a.79.79 0 001.35-.53c.12-4.5.43-9.36 1-14.51C40.21 124 41 119 42 114.39a.79.79 0 00-.29-.78 8.64 8.64 0 01-.92-.85l-.39-.41a.51.51 0 00-.86.22c-1 3.92-2 8.13-2.8 12.63-.93 5-1.56 9.81-2 14.25a4.46 4.46 0 001.12 3.42c.42.52.89 1.03 1.38 1.53zm8.2-27.54a.91.91 0 00-.31-.79l-1.34-1.15a.6.6 0 00-1 .36c-.69 4.92-1.23 10.31-1.5 16.12-.24 5.14-.23 10-.06 14.46a5.24 5.24 0 002 3.94c.18.15.38.3.57.44a.78.78 0 001.26-.68c-.38-4.81-.6-10-.56-15.59.06-6.15.41-11.88.94-17.11zm4.93 22.05c-.86-6.47-1.31-12.5-1.49-18L47.23 118a.52.52 0 00-1 .24c-.2 5.37-.18 11.25.19 17.57.32 5.47.87 10.59 1.55 15.32a4.65 4.65 0 002.29 3.38c.84.49 1.71.95 2.58 1.39a.34.34 0 00.49-.38c-1.13-5.04-2.17-10.6-2.96-16.61zm9.83 16.43c-1.41-4-2.78-8.4-4-13.07-1.31-4.87-2.34-9.52-3.15-13.9-.71-1.33-1.51-2.77-2.34-4.26a.34.34 0 00-.64.2c.54 5 1.34 10.43 2.49 16.16 1.21 6.07 2.65 11.66 4.17 16.71a1.26 1.26 0 00.73.81l1.22.48a1.28 1.28 0 001.72-1.3zm-3.97-22.01c-.47.15 4.08 17.19 4.61 17.07.32-.07-.55-6.29-2.77-12.6-.37-1.05-1.62-4.54-1.84-4.47zM32.25 50.11A11.48 11.48 0 0133.82 45a1.92 1.92 0 012.69-.56l3.9 2.63a1.19 1.19 0 00.33.22 1.22 1.22 0 001.33-.18l2.15-1.84a1.26 1.26 0 00.36-1.37l-3.16-8.62a6.83 6.83 0 01.36-5.51l2-3.86a19.77 19.77 0 016.32-7.15l3.82-2.62a1.12 1.12 0 00.36-.39l8.23-13.9A1.25 1.25 0 0061.37 0a8 8 0 00-3.13.9L44.75 8a4.8 4.8 0 00-2.53 4.68l.23 2.37a.56.56 0 00.88.4l3.94-2.83a.68.68 0 01.86 1l-5.2 4.89a1.07 1.07 0 00-.27.37l-5.14 10.88a10.44 10.44 0 00-.42 1 11.63 11.63 0 00-.52 2.23 14.47 14.47 0 00-.2 2.39v2.7c0 .79-.06 1.43-.09 1.87a3.1 3.1 0 01-6.19-.14 1.41 1.41 0 00-1.41 1.37c0 2.68 1.36 6.23 2.8 9a.41.41 0 00.76-.07zm70.46-23.77l-6.34 2.73a2.44 2.44 0 01-2.72-.55l-1.06-1.11a1.19 1.19 0 00-.87-.37h-7.43a1.19 1.19 0 00-.87.37l-1.06 1.11a2.44 2.44 0 01-2.72.55l-6.34-2.73a.8.8 0 01-.11-1.42l4.66-2.87a5.31 5.31 0 012.8-.79h14.71a5.31 5.31 0 012.8.79l4.66 2.87a.8.8 0 01-.11 1.42zM96.49 14.2v4.14a.7.7 0 01-.7.69H80.22a.69.69 0 01-.7-.69V14.2a2.22 2.22 0 011.19-2l2.5-1.31a.4.4 0 01.59.36v1.63a5.31 5.31 0 001.56 3.75A3.73 3.73 0 0088 17.76a3.73 3.73 0 002.62-1.09 5.31 5.31 0 001.56-3.75v-1.63a.4.4 0 01.59-.36l2.5 1.31a2.22 2.22 0 011.22 1.96zm58.04 74.55l-1.65 1.88a.58.58 0 00-.15.38v4.4a2.13 2.13 0 01-3.34 1.76l-4.56-3.12a10.79 10.79 0 00-2.72-1.35l-1.52-.5a.71.71 0 00-.92.67v.44a.7.7 0 00.56.68 3.06 3.06 0 011.6.9L154 108.08a1 1 0 001.73-.56 70.08 70.08 0 00-.19-18.47.57.57 0 00-1.01-.3z"/><circle class="cls-1" cx="142.81" cy="39.88" r="1.89"/><path class="cls-1" d="M135.26 8.54v6.9a12.06 12.06 0 001.33 5.5l2.35 4.56a24.7 24.7 0 012.73 11.31V37a3.08 3.08 0 011.14-.21 3.12 3.12 0 012.2.9h.27A2.45 2.45 0 00147.6 36l1.11-3.34a6.4 6.4 0 00-.46-5.12L137.45 8a1.17 1.17 0 00-2.19.54zm32.01 67.75a5.5 5.5 0 00-2.53-4.64l-.08-.09 9.18-11.79a1.21 1.21 0 012.17.79l-.51 14a10.9 10.9 0 01-.7 3.5 11.12 11.12 0 01-1.77 3.1 12.75 12.75 0 00-2.83 7 48.4 48.4 0 01-2.58 13.07.5.5 0 01-1-.2 67.32 67.32 0 00-2-20.12 5.5 5.5 0 002.65-4.62zm-32.5 7.91l-.3-1.12a1.29 1.29 0 01.67-1.49l4.39-2.25a.38.38 0 01.51.52 4.38 4.38 0 00-.46 2V82a1.26 1.26 0 01-.48 1.06l-2.26 1.81a1.3 1.3 0 01-2.07-.67zm1.9 5.02l-.3-.47a1.31 1.31 0 01.33-1.75l2.77-2a1.29 1.29 0 011.6.07 1.3 1.3 0 01.31 1.61l-.22.41a1.5 1.5 0 01-.27.34l-2.26 2a1.3 1.3 0 01-1.96-.21zm5.73-1.43a1.31 1.31 0 011.79 0l.48.44a1.29 1.29 0 01.05 1.88l-1.13 1.14a1.32 1.32 0 01-1.27.34l-.73-.21a1.29 1.29 0 01-.57-2.17zm5.39 2.44h1.9a1.3 1.3 0 011.3 1.31v3.3a.78.78 0 01-1.16.67l-3.56-2.05a1.31 1.31 0 01-.21-2.1l.89-.8a1.28 1.28 0 01.84-.33zm-3.55-34.08l1.27 2.64a11.42 11.42 0 011.14 4.83v1.24a9.59 9.59 0 01-1.84 5.75l-4.11 5.66a.53.53 0 01-.14.12l-5.81 2.72a.38.38 0 01-.54-.36l.21-6.29a.38.38 0 01.08-.23l2.21-2.62a3.19 3.19 0 00-.22 1.16 3.07 3.07 0 003.08 3.08c2.42 0 4.19-2.8 2.26-5.33l-.1-.1a3.63 3.63 0 00-2.56-.71.38.38 0 01-.33-.63l.3-.36a.21.21 0 00.06-.1l4.33-10.45a.38.38 0 01.71-.02zm-8.11-8.08A34.85 34.85 0 00139.2 46a1.11 1.11 0 011.71.28l.15.29a7.87 7.87 0 011 3.55l.16 3.86a.45.45 0 010 .16L139.77 60a.38.38 0 01-.7 0 3.09 3.09 0 00-2.85-1.91 2.93 2.93 0 00-.67.08l.48-.7a.44.44 0 00.06-.16 74.75 74.75 0 00-.79-7.47 1.82 1.82 0 01.83-1.77zm1.23 17.72l-2.68 3.36a.38.38 0 01-.68-.21l-.28-5a.37.37 0 01.61-.3 3.12 3.12 0 001.89.64 3.07 3.07 0 001.18-.28.38.38 0 01.5.5l-.49 1.18a.26.26 0 01-.05.11zm16.55-16.15a.38.38 0 01-.63.13 3.08 3.08 0 00-2.19-.91 3.14 3.14 0 00-2.49 5l.07.09a3.34 3.34 0 002.77 1 .38.38 0 01.41.51l-2.76 7.9a.39.39 0 01-.75-.13 11.4 11.4 0 00-1.28-5.23l-1.46-2.81a4.69 4.69 0 01-.11-4.12l2.16-4.73a12.55 12.55 0 00.93-7.57v-.13a.34.34 0 010-.2l2.48-7.28a1 1 0 011.95 0l1.89 5a15.07 15.07 0 01.12 10.3z"/><path class="cls-1" d="M162.38 70.37l-.42.35h-.16a5.51 5.51 0 00-5.47 4.84l-.07.06-8.12 4.06a.37.37 0 01-.49-.14v-.06a.38.38 0 010-.45l10.71-12.25a.36.36 0 01.18-.12 3.08 3.08 0 002.21-2.95 3 3 0 00-.19-1 .5.5 0 010-.12V48.88a.38.38 0 00-.74-.13l-.27.71a.51.51 0 000 .13v11a.38.38 0 01-.55.34 3.08 3.08 0 00-2.82 5.48.38.38 0 01.11.59l-9.72 11a.38.38 0 01-.57 0 4.34 4.34 0 00-4.48.15l-.05-.13 3.53-4.64a39.12 39.12 0 005.6-10.27l7.55-20.83a.56.56 0 01.05-.08l5.8-8.27a1.36 1.36 0 012.47.78v27.06a9.88 9.88 0 01-2.16 6.23zm-38.56-43.16l-3.13-1.79a.7.7 0 01-.31-.39l-2.22-7.51a.67.67 0 011-.75l6.69 4.23a14.1 14.1 0 014.9 5.27l1.78 3.37a6.26 6.26 0 01.3 5.23l-2.6 6.62a.67.67 0 01-1.21.08l-1.2-2.17a.73.73 0 01-.08-.33v-3.38a.63.63 0 00-.09-.33l-2.13-3.64a4 4 0 01-.55-2.25v-.13a2.35 2.35 0 00-1.15-2.13zm24.37 55.05c0-.14.09-.26.54-.46l7.5-3.42a.38.38 0 01.5.18 4.69 4.69 0 00.44.79A2.18 2.18 0 01157 82l-5.83 6.65a.36.36 0 01-.26.13l-3.28.23a.37.37 0 01-.28-.1l-2.52-2.26A.38.38 0 01145 86a4.33 4.33 0 003.19-3.74zm1.49-28.77a.47.47 0 01-.1-.1 2.08 2.08 0 011.51-3.48 2 2 0 012 2 2 2 0 01-.47 1.29 2.12 2.12 0 01-2.94.29z"/><path class="cls-1" d="M156.08 62.34a.47.47 0 01.1-.1 2.09 2.09 0 013.28.69 2.34 2.34 0 01-.5 2.51.47.47 0 01-.19.12 3.05 3.05 0 01-1.44.2 2.08 2.08 0 01-1.25-3.42zm-21.29-2.68a2.09 2.09 0 013 2.94l-.1.1a2.09 2.09 0 01-3-3 .28.28 0 01.1-.04zm3.36 9.58a2.1 2.1 0 012.94 3l-.1.09a2.09 2.09 0 01-2.94-3 .47.47 0 01.1-.09zm3.97 10.35a2.85 2.85 0 014.28.87 1 1 0 010 .1 2.77 2.77 0 01.29 1.25 2.93 2.93 0 01-.17 1 2.85 2.85 0 01-2.67 1.85 2.81 2.81 0 01-1.72-.58 2.89 2.89 0 01-.57-.59 2.84 2.84 0 01.52-3.88zm16.94-5.91l.09-.09c3.85-2.87 8.18 1.45 5.3 5.31a.76.76 0 01-.09.09c-3.86 2.85-8.16-1.45-5.3-5.31zm-46.58-50.19l9.64 4.51a1.59 1.59 0 01.9 1.6 4.87 4.87 0 00.79 3.21l1.28 1.92a.41.41 0 01-.52.6l-8-3.75a.37.37 0 01-.18-.17L112 24.08a.42.42 0 01.48-.59z"/><path class="cls-1" d="M100.35 7.54L113 15.06a.35.35 0 01.13.14l4.76 8.47a.39.39 0 01-.51.53L111 20.85a.38.38 0 00-.56.34v.74a.38.38 0 01-.57.33L103 18.38a1.61 1.61 0 01-.81-1.4v-1.76a.77.77 0 011.16-.67l5.3 3a.38.38 0 00.57-.33v-1.75a.41.41 0 00-.19-.33L101.75 11a1 1 0 00-1.54.89v5.67a1.93 1.93 0 00.9 1.63l6.78 4.24a.37.37 0 01.18.33v2a.38.38 0 01-.58.32L99.3 21a1.94 1.94 0 01-.9-1.64V8.65a1.29 1.29 0 011.95-1.11zM159.68 101a63.4 63.4 0 00-1.62-14.28 4.26 4.26 0 01.93-3.74l.92-1a1.47 1.47 0 011.24-.51 1.51 1.51 0 011.38 1.2 68.21 68.21 0 01-33.78 72.65A63 63 0 00159.68 101z"/><path class="cls-1" d="M153.46 118a.79.79 0 01-1.46.18q-2.2-4.11-4.86-8.45c-2.56-4.15-5.14-7.95-7.66-11.41a.84.84 0 01-.16-.51v-1.75a.52.52 0 01.9-.36c2.31 2.35 4.7 5 7.1 7.84 2.06 2.45 3.92 4.86 5.61 7.18a6.19 6.19 0 011.05 4.88c-.14.79-.33 1.59-.52 2.4zm-3.53 10.05a.79.79 0 01-1.46-.09c-1.31-4-2.86-8.34-4.7-12.81-1.56-3.77-3.17-7.3-4.79-10.58a1.37 1.37 0 01-.13-.77c.09-.71.17-1.43.23-2.15a.45.45 0 01.83-.21c2.16 3.44 4.34 7.19 6.48 11.24q2.55 4.84 4.6 9.4a4.2 4.2 0 01.08 3.3q-.54 1.35-1.14 2.67zm-4.88 8.64a.78.78 0 01-1.42-.31c-.72-4.25-1.64-8.79-2.84-13.55a167.94 167.94 0 00-3.55-12.19 1.25 1.25 0 01.07-.93 14 14 0 00.73-1.93.43.43 0 01.8 0c1.29 3.16 2.56 6.53 3.76 10.1 1.61 4.76 2.91 9.3 4 13.56a5.11 5.11 0 01-.65 4c-.31.38-.6.82-.9 1.25zm-6.29 7.71a.79.79 0 01-1.35-.53c-.12-4.5-.43-9.36-1-14.51-.61-5.38-1.42-10.38-2.35-15a.79.79 0 01.29-.78 8.64 8.64 0 00.92-.85l.39-.41a.51.51 0 01.86.22c1 3.92 2 8.13 2.81 12.63.92 5 1.55 9.81 2 14.25a4.46 4.46 0 01-1.12 3.42c-.49.55-.96 1.06-1.45 1.56zm-8.2-27.54a.91.91 0 01.31-.79l1.34-1.15a.6.6 0 011 .36c.69 4.92 1.23 10.31 1.5 16.12.24 5.14.23 10 .06 14.46a5.23 5.23 0 01-2 3.94c-.19.15-.38.3-.58.44a.78.78 0 01-1.26-.68c.38-4.81.6-10 .56-15.59-.05-6.15-.4-11.88-.93-17.11zm-4.93 22.05c.86-6.47 1.31-12.5 1.49-18l1.66-2.87a.51.51 0 011 .24c.2 5.37.18 11.25-.19 17.57-.32 5.47-.87 10.59-1.55 15.32a4.65 4.65 0 01-2.29 3.38c-.84.49-1.7.95-2.58 1.39a.34.34 0 01-.49-.38c1.12-5.08 2.16-10.64 2.95-16.65zm-9.83 16.43c1.41-4 2.78-8.4 4-13.07 1.3-4.87 2.33-9.52 3.14-13.9.71-1.33 1.51-2.77 2.34-4.26a.34.34 0 01.64.2c-.54 5-1.34 10.43-2.49 16.16-1.21 6.07-2.65 11.66-4.16 16.71a1.24 1.24 0 01-.74.81l-1.22.48a1.28 1.28 0 01-1.72-1.3q.12-.93.21-1.83zm5.3-24.6c.66.21-5.95 24.3-7 24-.49-.11.18-4.88.62-7.27a42.78 42.78 0 012.47-8.33c.71-1.73 1.38-3.21 2.21-5a22 22 0 011.7-3.4zm22.65-80.63a11.48 11.48 0 00-1.57-5.11 1.92 1.92 0 00-2.69-.56l-3.9 2.63a1.19 1.19 0 01-.33.22 1.22 1.22 0 01-1.33-.18l-2.15-1.84a1.24 1.24 0 01-.35-1.37l3.15-8.62a6.83 6.83 0 00-.36-5.51l-2-3.86a19.77 19.77 0 00-6.32-7.15l-3.82-2.62a1.12 1.12 0 01-.36-.39l-8.23-13.9A1.25 1.25 0 01114.63 0a8 8 0 013.13.9L131.25 8a4.8 4.8 0 012.53 4.68l-.22 2.37a.56.56 0 01-.89.4l-3.94-2.83a.68.68 0 00-.86 1l5.2 4.89a1.07 1.07 0 01.27.37l5.14 10.81c.16.35.3.69.43 1a10.93 10.93 0 01.52 2.23 14.47 14.47 0 01.2 2.39v2.7c0 .79.05 1.43.08 1.87a3.1 3.1 0 006.19-.14 1.41 1.41 0 011.41 1.37c0 2.68-1.36 6.23-2.8 9a.41.41 0 01-.76 0zm-36.03 13.97c-.11.2-.19.41-.31.62a2.81 2.81 0 01.31-.62zm14.38.01a1.23 1.23 0 01-.76 0 1.78 1.78 0 00.76 0z"/><path class="cls-1" d="M121.34 64.08a1.23 1.23 0 00.76 0 1.78 1.78 0 01-.76 0zm-13.62 0a2.81 2.81 0 00-.31.62c.12-.21.2-.42.31-.62z"/><path class="cls-1" d="M137.21 93.67a.9.9 0 00-.52-.45 9.51 9.51 0 01-2-1.25c-.3-.28-.47-.68-.81-.92-.53-.37-1.22-.16-1.75-.5a1.72 1.72 0 01-.78-1.18c0-.36.15-.57 1.18-2 .67-.91.73-1 .78-1.18.2-.59 0-.81 0-2s.2-1.44 0-1.57-1 .57-2.75 1.57c-1 .55-2 .93-3 1.57-.36.24-.94.73-1.14.12a2.73 2.73 0 01.16-1.29 6.48 6.48 0 011.18-2.37A9.06 9.06 0 00129 78.5a49.57 49.57 0 001-10.3 53 53 0 010-6.67 11.72 11.72 0 01.73-3.08c.37-.91.91-1.74 1.26-2.66a10.26 10.26 0 00.69-3c.13-2-1-3.77-3.12-7.38-.59-1-1.13-2-1.77-3-1-1.49-1.49-2-1.44-3a1.92 1.92 0 00-.14-1.28 1.82 1.82 0 00-1-.57c-.48-.18-1.17-.46-2-.87l-7-3a3.94 3.94 0 01-1.69-1.44l-3.8-5.79a.7.7 0 00-1.29.36v.59a1.59 1.59 0 01-.66 1.28 1.57 1.57 0 01-1.59.11l-1.88-1a2.3 2.3 0 00-2 0L96.35 31a2.73 2.73 0 01-3-.48l-.88-.82a2.69 2.69 0 00-1.9-.7l-2.57.05-2.56-.05a2.64 2.64 0 00-1.91.72l-.88.81a2.69 2.69 0 01-3 .48l-6.85-3.18a2.3 2.3 0 00-2 0l-1.88 1a1.57 1.57 0 01-1 .13 1.54 1.54 0 01-1.21-1.45v-.66a.7.7 0 00-1.29-.36l-3.8 5.79a4 4 0 01-1.69 1.45l-8.69 3.87a2.41 2.41 0 00-1.43 2.11c-.05 1-.11 2.42-.15 3.31-.08 2.45-.35 6.18-.84 11.47a48.3 48.3 0 016.3-3.55 42.73 42.73 0 0110.64-3.54 29.47 29.47 0 0112.2 0c2.62.6 4.13 1.39 5.12 2.76 2.18 3 1 7.21.23 9.62-.94 3.13-2.49 5-4.7 7.74a13.19 13.19 0 01-2.81 2.41 4.09 4.09 0 01-2 .72h-.56a7.09 7.09 0 01-4-1.86 11.34 11.34 0 01-1.09-1.2 1.81 1.81 0 01-.43-.93c-.11-1 1-1.89 1.39-2.75a1 1 0 00.16-.74.73.73 0 00-.39-.4c-.42-.16-.78.19-1.12.38-1.26.7-2.67.43-4 .29a21.82 21.82 0 00-2.29-.13c-.72 0-1.44.07-2.16.07a10.82 10.82 0 00-3.24.53 11.8 11.8 0 00-2.77 1.22 11.64 11.64 0 00-2.49 2c1.76-.35 3.24-.61 4.33-.79a30.46 30.46 0 014.52-.54 9 9 0 013.75.54A3.47 3.47 0 0165 67.48a2.49 2.49 0 01.4.79 3 3 0 01-.56 2.23 6.49 6.49 0 01-2.45 2.18c-5.15 2.87-4.76 2.67-5 2.82-2.29 1.19-4.7 2.28-6.9 3.62A5.76 5.76 0 0048.18 83c-.34 2.26.88 4.07 3.35 7.61a36.48 36.48 0 004.59 5.57c2.3 2.27 4.7 4.65 8.55 6 1.84.64 4.17 1.52 6.24.41a9 9 0 003.06-3 18.76 18.76 0 002.28-3.86 14.71 14.71 0 00.73-4c.31-3.07.21-3.19.39-3.93a9.77 9.77 0 013.1-4.69c1.61-1.46 3.48-2.62 5.17-4a4.13 4.13 0 012.36-1.2 4.35 4.35 0 012.76 1.18c2.89 2.12 3.41 2.85 6.69 5.91.93.86 1.64 1.5 1.58 2.36-.07 1-1.24 1.76-1.58 2-1.4.87-3.31.69-4.88 1.08 0 0-3.94.61-8.9 5.62a1 1 0 00-.33.66c0 .45.47.83 1.69 1.5 1.64.89 2.46 1.34 3 1.3a6.45 6.45 0 002.89-1.42c.53-.36.47-.37.66-.47 2-1 5.35 1.59 7.87 3.54 1.11.86 2.12 1.82 3.15 2.76a5.35 5.35 0 00.47.38 4 4 0 001.08.62c.28.1.42.11.42.18s-.56.3-.86.37a5.22 5.22 0 01-2.68-.37 30.66 30.66 0 00-3.19-.69c-1-.15-1.74-.21-2.36-.25a21.42 21.42 0 00-2.69-.06c-1.5.07-2.26.11-2.89.56-.36.26-.75.49-1.1.78s-.5.45-.77.46-.44-.14-.78-.41-.68-.51-1.2-.85a3.28 3.28 0 00-1.17-.4 14.15 14.15 0 00-4.6.76 25.18 25.18 0 00-2.63 1c-2.28 1-2.57 1.55-2.57 1.91a1 1 0 00.18.51c.33.61.88 1 3 2 .86.38 1.29.58 1.8.75a15.36 15.36 0 002.21.54 9.38 9.38 0 004.14.19c.54-.18.69-.25.69-.25a2.37 2.37 0 01.5-.2 1.74 1.74 0 01.47-.06 1.81 1.81 0 01.52.07 2 2 0 01.46.19 3 3 0 001 .28 12.54 12.54 0 002.6 0 14.51 14.51 0 005.67-1.77 8.43 8.43 0 002.31-1.48 3.21 3.21 0 00.26-.3 2.25 2.25 0 00.11-.39 7 7 0 01-.42 1.86c-.13.37-.64 1.62-2.86 3.75a24.64 24.64 0 01-2.21 1.89 29 29 0 01-4.51 3.06c-4.37 2.21-6 1.12-8.54 3.15a3.67 3.67 0 00-1.51 3.08 4.75 4.75 0 00.81 2.2 8.65 8.65 0 004.79 3.26 32.75 32.75 0 008.43.95 47 47 0 008.8-.35c.85-.13 1.68-.3 2.51-.51a27.76 27.76 0 0013.38-8.43 48.41 48.41 0 003-3.84c.06-.08.23-.29.47-.55a5.91 5.91 0 011.25-1c-.54.93-1.3 2.26-2.18 3.88-1.27 2.3-2.56 4.74-3.4 6.4a78.82 78.82 0 00-6.1 16 31.77 31.77 0 00-.7 6.42v.75a26.64 26.64 0 00.4 3.15 51.2 51.2 0 011.57-9.06c1.12-4.17 2.58-7.24 5.51-13.39 0 0 3.13-6.54 6.7-12.6 1.33-2.26 3-4.87 3.13-5.08 0 .09-.27.9 0 1.17s.65 0 .78 0c2.39-.82 3.52-3.46 4.38-5.61A37.62 37.62 0 00137.12 98c.12-1.33 0-2.67.1-4a1.08 1.08 0 00-.01-.33zm-15.35-39.05h-.56a44.68 44.68 0 00-8.34 0c-1.53.2-3.29.56-4.35 1.76-.17.2-.68.76-.52 1.06s.54.19.7.19a21.81 21.81 0 015.53.87 12.38 12.38 0 012.33.89 14.51 14.51 0 015.06 3.67c.52.59.6.8.53.93l-.06.07h-.08a1.23 1.23 0 01-.76 0h-.28l-.45-.08h-.07c-1.36-.22-3.9-.46-8.26-.71h-.18c-.75 0-1.4-.05-1.95-.05-1.12 0-1.55.06-1.92.35l-.1.08a2.87 2.87 0 00-.39.46c-.11.2-.19.41-.31.62-1 1.87-4.2 2-4.39 2a6.08 6.08 0 01-4.11-1.42c-1.19-1-1.49-2.34-2.09-4.91a36.69 36.69 0 01-.64-7.26 6.23 6.23 0 01.54-3.14 5.76 5.76 0 01.63-1c1.23-1.52 3.61-1.89 5.44-2a33.47 33.47 0 018.68 1c.69.14 1.38.3 2.08.47l1 .26c.68.18 1.37.37 2.05.57l.71.22q.66.19 1.32.42l.56.19.2.07.25.09c.72.26 1.42.51 2.12.8l.68.3.87.42.5.28c1.27.72 2.5 1.54 3.69 2.38.25.18.8.58.72.75s-1.21-.12-1.41-.16a27.76 27.76 0 00-4.97-.44z"/><rect class="cls-1" x="85.48" y="7.36" width="5.03" height="8.6" rx="2.52"/><path class="cls-1" d="M244.77 33.9h-1a4.44 4.44 0 00-4 2.6l-10.59 23-10.6-23a4.44 4.44 0 00-4-2.6h-1a3.46 3.46 0 00-3.46 3.48V67.6a3.63 3.63 0 003.62 3.63h.07a3.64 3.64 0 003.65-3.63V51.46l7.22 15.7a1.86 1.86 0 001.68 1.07h5.78a1.84 1.84 0 001.67-1.07L241 51.53V67.6a3.65 3.65 0 007.3 0V37.38a3.48 3.48 0 00-3.53-3.48zm48.31 32.66L280.81 36a3.4 3.4 0 00-3.15-2.14h-2.74a3.41 3.41 0 00-3.16 2.14l-12.24 30.56a3.37 3.37 0 003.15 4.67 3.39 3.39 0 003.16-2.12l.35-.88a18 18 0 0010.08 3 18.37 18.37 0 0010.13-3l.35.88a3.42 3.42 0 006.34-2.55zm-16.82-2.18a11.71 11.71 0 01-7.43-2.63l7.43-18.63 2.21 5.48 5.27 13.15a11.83 11.83 0 01-7.48 2.63zm57.09-4.46a3.4 3.4 0 00-4.25.58 11.66 11.66 0 01-8.64 3.81 11.78 11.78 0 118.64-19.77 3.37 3.37 0 002.48 1.07 3.42 3.42 0 002-.61 3.49 3.49 0 00.6-5.22 18.55 18.55 0 00-13.7-6 18.74 18.74 0 1013.7 31.5 3.47 3.47 0 00-.81-5.34zm41.46-26.06a3.67 3.67 0 00-3.67 3.68v23.32h-17.21V37.54a3.68 3.68 0 10-7.36 0v30a3.66 3.66 0 003.69 3.67h3.67v-3h17.21v3h3.67a3.66 3.66 0 003.67-3.67v-30a3.68 3.68 0 00-3.67-3.68zm19.3 7.37v30a7.34 7.34 0 007.36-7.34v-30a7.37 7.37 0 00-7.36 7.34zm50.73-7.33a3.67 3.67 0 00-3.67 3.67v18l-15.12-20.2a3.68 3.68 0 00-2.92-1.49h-1.84a3.68 3.68 0 00-3.69 3.67v30a3.68 3.68 0 007.36 0V46.19l16.21 21.69v3.35h2.91a4.42 4.42 0 004.43-4.44V37.57a3.67 3.67 0 00-3.67-3.67zm79.97 29.99h-13.7v-7.64h10.94v-7.34h-10.94v-7.65h17.21V38a4.09 4.09 0 00-4.09-4.09h-20.46v37.32h25.76V68.6a4.72 4.72 0 00-4.72-4.71zM493 66.56L480.8 36a3.42 3.42 0 00-3.16-2.14h-2.74a3.48 3.48 0 00-3.19 2.14l-12.24 30.56a3.64 3.64 0 00-.25 1.28 3.42 3.42 0 006.59 1.27l.35-.88a17.92 17.92 0 0010.06 3 18.38 18.38 0 0010.15-3l.35.88a3.41 3.41 0 006.28-2.55zm-16.82-2.18a11.64 11.64 0 01-7.41-2.63l7.41-18.63 2.21 5.48 5.29 13.15a11.87 11.87 0 01-7.46 2.63z"/><path d="M254.61 119.49V97.87a5.3 5.3 0 00-5.3 5.3v21.62h13a5.3 5.3 0 005.3-5.3zm38.53-10.75a7.05 7.05 0 00-.07-6.76 8 8 0 00-7.13-4.11h-7.1v23.71a3.22 3.22 0 003.22 3.21h7.53a8.41 8.41 0 003.55-16.05zm-9-5.88h2.28a2.52 2.52 0 012.51 2.54 2.5 2.5 0 01-2.51 2.5h-2.28zm5.46 16.89h-4a1.41 1.41 0 01-1.42-1.39V113h5.46a3.39 3.39 0 110 6.78zm-55.04 1.67l-8.82-22a2.53 2.53 0 00-2.3-1.56h-2a2.46 2.46 0 00-2.27 1.56l-8.85 22a2.46 2.46 0 004.57 1.84l.26-.63a13 13 0 007.27 2.16 13.19 13.19 0 007.29-2.16l.26.63a2.46 2.46 0 004.57-1.84zm-12.12-1.55a8.37 8.37 0 01-5.37-1.91l5.37-13.45 1.58 4 3.81 9.48a8.49 8.49 0 01-5.39 1.88zM334 121.42l-8.83-22a2.48 2.48 0 00-2.28-1.56h-2a2.48 2.48 0 00-2.3 1.56l-8.83 22a2.79 2.79 0 00-.18.93 2.44 2.44 0 002.46 2.44 2.5 2.5 0 002.3-1.53l.23-.63a13 13 0 007.27 2.16 13.29 13.29 0 007.32-2.16l.26.63a2.45 2.45 0 004.55-1.84zm-12.13-1.55a8.41 8.41 0 01-5.36-1.91l5.36-13.45 1.61 4 3.8 9.48a8.48 8.48 0 01-5.44 1.88zm39.13-.38h-9.9V114h7.9v-5.3h-7.9v-5.52h12.4v-2.35a2.94 2.94 0 00-2.95-2.95H345.8v26.92h18.58v-1.9a3.4 3.4 0 00-3.38-3.41z" fill="#999"/></g></g></svg>