<svg xmlns="http://www.w3.org/2000/svg" viewBox="0 0 529.53 162.24"><defs><style>.cls-1{fill:#2b2828}</style></defs><g id="Слой_2" data-name="Слой 2"><g id="Логотипы"><path class="cls-1" d="M244.77 35.74h-1a4.45 4.45 0 00-4 2.61l-10.59 23-10.6-23a4.45 4.45 0 00-4-2.61h-1a3.46 3.46 0 00-3.46 3.49v30.22a3.63 3.63 0 003.62 3.62h.07a3.64 3.64 0 003.65-3.62V53.3l7.17 15.7a1.86 1.86 0 001.68 1.06h5.78a1.83 1.83 0 001.67-1.06L241 53.37v16.08a3.65 3.65 0 007.3 0V39.23a3.49 3.49 0 00-3.53-3.49zm48.31 32.66l-12.26-30.52a3.43 3.43 0 00-3.16-2.14h-2.74a3.41 3.41 0 00-3.16 2.14L259.52 68.4a3.37 3.37 0 003.15 4.67 3.39 3.39 0 003.16-2.07l.35-.89a18 18 0 0010.08 3 18.37 18.37 0 0010.13-3l.35.89a3.42 3.42 0 006.34-2.56zm-16.82-2.18a11.71 11.71 0 01-7.43-2.63L276.26 45l2.21 5.49 5.27 13.14a11.83 11.83 0 01-7.48 2.59zm57.09-4.46a3.41 3.41 0 00-4.25.58 11.63 11.63 0 01-8.64 3.81A11.8 11.8 0 01309 51.63a11.66 11.66 0 019.13-8.8 11.78 11.78 0 0111 3.55 3.37 3.37 0 002.48 1.07 3.47 3.47 0 002.58-5.83 18.73 18.73 0 100 25.48 3.47 3.47 0 00.91-2.32 3.52 3.52 0 00-1.75-3.02zm41.46-26.05a3.67 3.67 0 00-3.67 3.67V62.7h-17.21V39.38a3.68 3.68 0 00-7.36 0v30a3.67 3.67 0 003.69 3.62h3.67v-3h17.21v3h3.67a3.67 3.67 0 003.67-3.67v-30a3.68 3.68 0 00-3.67-3.62zm19.3 7.36V73a7.35 7.35 0 007.36-7.34v-30a7.37 7.37 0 00-7.36 7.41zm50.73-7.33a3.67 3.67 0 00-3.67 3.67v18l-15.12-20.18a3.68 3.68 0 00-2.92-1.49h-1.84a3.68 3.68 0 00-3.69 3.67v30a3.68 3.68 0 007.36 0V48l16.21 21.7v3.34h2.91a4.42 4.42 0 004.43-4.44V39.41a3.67 3.67 0 00-3.67-3.67zm79.97 29.99h-13.7v-7.64h10.94v-7.34h-10.94v-7.64h17.21v-3.28a4.09 4.09 0 00-4.09-4.09h-20.46v37.33h25.76v-2.62a4.72 4.72 0 00-4.72-4.72zM493 68.4l-12.2-30.52a3.42 3.42 0 00-3.16-2.14h-2.74a3.48 3.48 0 00-3.19 2.14L459.47 68.4a3.64 3.64 0 00-.25 1.28 3.43 3.43 0 006.59 1.32l.35-.89a17.92 17.92 0 0010.06 3 18.38 18.38 0 0010.15-3l.35.89a3.41 3.41 0 006.28-2.6zm-16.82-2.18a11.64 11.64 0 01-7.41-2.63L476.22 45l2.21 5.49 5.29 13.14a11.87 11.87 0 01-7.5 2.59z"/><path d="M254.61 121.34V99.71a5.3 5.3 0 00-5.3 5.3v21.62h13a5.29 5.29 0 005.3-5.29zm38.53-10.76a7.05 7.05 0 00-.07-6.76 8 8 0 00-7.13-4.11h-7.1v23.72a3.21 3.21 0 003.22 3.2h7.53a8.41 8.41 0 003.55-16zm-9-5.87h2.28a2.52 2.52 0 010 5h-2.28zm5.46 16.88h-4a1.4 1.4 0 01-1.42-1.39v-5.39h5.46a3.39 3.39 0 110 6.78zm-55.04 1.68l-8.82-22a2.53 2.53 0 00-2.3-1.56h-2a2.46 2.46 0 00-2.27 1.56l-8.85 22a2.39 2.39 0 00-.17.9 2.47 2.47 0 002.47 2.46 2.43 2.43 0 002.27-1.53l.26-.63a12.88 12.88 0 007.27 2.16 13.11 13.11 0 007.29-2.16l.26.63a2.46 2.46 0 004.57-1.83zm-12.12-1.56a8.37 8.37 0 01-5.37-1.91l5.37-13.44 1.58 4 3.81 9.47a8.49 8.49 0 01-5.39 1.88zM334 123.27l-8.83-22a2.48 2.48 0 00-2.28-1.56h-2a2.48 2.48 0 00-2.3 1.56l-8.83 22a2.73 2.73 0 00-.18.92 2.43 2.43 0 002.46 2.44 2.5 2.5 0 002.3-1.53l.23-.63a13 13 0 007.27 2.16 13.21 13.21 0 007.32-2.16l.26.63a2.45 2.45 0 004.55-1.83zm-12.13-1.56a8.41 8.41 0 01-5.36-1.91l5.36-13.44 1.61 4 3.8 9.47a8.48 8.48 0 01-5.44 1.88zm39.13-.37h-9.9v-5.51h7.9v-5.29h-7.9V105h12.4v-2.35a2.94 2.94 0 00-2.95-3H345.8v26.92h18.58v-1.9a3.39 3.39 0 00-3.38-3.33z" fill="#999"/><path class="cls-1" d="M96.17 53.14a6.23 6.23 0 01.57-3.14 5.76 5.76 0 01.63-1c1.23-1.52 3.61-1.89 5.44-2a33.47 33.47 0 018.68 1c.69.14 1.38.3 2.08.47l1 .26c.68.18 1.37.37 2.05.57l.71.22q.66.19 1.32.42l.56.19.2.07.25.09c.72.26 1.42.51 2.12.8l.68.3.87.42.5.28c1.27.72 2.5 1.54 3.69 2.38.25.18.8.58.72.75s-1.21-.12-1.41-.16a27.76 27.76 0 00-5-.45h-.56a44.68 44.68 0 00-8.34 0c-1.53.2-3.29.56-4.35 1.76-.17.2-.68.76-.52 1.06s.54.19.7.19a21.81 21.81 0 015.53.87 12.38 12.38 0 012.33.89 14.51 14.51 0 015.06 3.67c.52.59.6.8.53.93l-.06.07c-.19.18-.69.07-1 0h-.14l-.45-.08h-.07c-1.36-.22-3.9-.46-8.26-.71l-2.56.05a2.92 2.92 0 00-1.49.24l-.1.08a2.87 2.87 0 00-.39.46c-.11.2-.19.41-.31.62-1 1.87-4.2 2-4.39 2a6.08 6.08 0 01-4.11-1.42c-1.19-1-1.49-2.34-2.09-4.91a36.69 36.69 0 01-.62-7.24zm-74.7 35.61l1.65 1.88a.58.58 0 01.15.38v4.4a2.13 2.13 0 003.34 1.76l4.56-3.12a10.79 10.79 0 012.72-1.35l1.52-.5a.71.71 0 01.92.67v.44a.69.69 0 01-.56.68 3 3 0 00-1.59.9L22 108.08a1 1 0 01-1.73-.56 70.51 70.51 0 01.19-18.47.57.57 0 011.01-.3z"/><circle class="cls-1" cx="33.19" cy="39.88" r="1.89"/><path class="cls-1" d="M40.74 8.54v6.9a12.06 12.06 0 01-1.33 5.5l-2.35 4.56a24.7 24.7 0 00-2.73 11.31V37a3.14 3.14 0 00-3.33.69h-.28A2.43 2.43 0 0128.41 36l-1.12-3.34a6.4 6.4 0 01.46-5.12L38.55 8a1.17 1.17 0 012.19.54zM8.73 76.29a5.5 5.5 0 012.53-4.64l.08-.09-9.17-11.8a1.21 1.21 0 00-2.17.79l.51 14a10.9 10.9 0 00.7 3.5A11.15 11.15 0 003 81.18a12.74 12.74 0 012.82 7 48.79 48.79 0 002.58 13.07.5.5 0 001-.2 67.65 67.65 0 012-20.12 5.53 5.53 0 01-2.67-4.64zm32.5 7.91l.3-1.12a1.29 1.29 0 00-.66-1.49l-4.4-2.25a.38.38 0 00-.53.22.35.35 0 000 .3 4.38 4.38 0 01.46 2V82a1.26 1.26 0 00.48 1.06l2.26 1.81a1.3 1.3 0 002.09-.67zm-1.9 5.02l.3-.47A1.31 1.31 0 0039.3 87l-2.77-2a1.29 1.29 0 00-1.6.07 1.29 1.29 0 00-.3 1.61l.22.41a1.27 1.27 0 00.27.34l2.25 2a1.3 1.3 0 001.96-.21zm-5.73-1.43a1.31 1.31 0 00-1.79 0l-.48.44a1.29 1.29 0 000 1.88l1.13 1.14a1.33 1.33 0 001.27.34l.73-.21a1.29 1.29 0 00.54-2.21zm-5.39 2.44h-1.9A1.3 1.3 0 0025 91.54v3.3a.78.78 0 001.16.67l3.56-2.05a1.3 1.3 0 00.21-2.1l-.89-.8a1.28 1.28 0 00-.83-.33zm3.55-34.08l-1.27 2.64a11.26 11.26 0 00-1.13 4.83v1.24a9.66 9.66 0 001.84 5.75l4.11 5.66a.44.44 0 00.15.12l5.8 2.72a.38.38 0 00.54-.36l-.2-6.29a.46.46 0 00-.09-.23l-2.21-2.62a3 3 0 01.22 1.16 3.07 3.07 0 01-3.08 3.08c-2.42 0-4.19-2.8-2.26-5.33l.1-.1a3.65 3.65 0 012.57-.71.38.38 0 00.32-.63l-.3-.36a.21.21 0 01-.06-.1l-4.35-10.45a.38.38 0 00-.7-.02zm8.11-8.08A34.85 34.85 0 0136.8 46a1.1 1.1 0 00-1.7.28l-.16.29a8 8 0 00-1 3.55L33.78 54a.3.3 0 000 .16L36.23 60a.38.38 0 00.7 0 3.09 3.09 0 012.85-1.91 2.93 2.93 0 01.67.08l-.48-.7a.44.44 0 01-.06-.16 74.75 74.75 0 01.79-7.47 1.82 1.82 0 00-.83-1.77zm-1.23 17.72l2.68 3.36a.38.38 0 00.68-.21l.28-5a.37.37 0 00-.61-.3 3.08 3.08 0 01-3.07.4.38.38 0 00-.5.5l.49 1.18a.26.26 0 00.05.07zM22.09 49.64a.38.38 0 00.63.13 3.1 3.1 0 012.19-.91 3.14 3.14 0 012.49 5l-.07.09a3.34 3.34 0 01-2.77 1 .39.39 0 00-.41.51l2.76 7.9a.39.39 0 00.75-.13A11.4 11.4 0 0128.94 58l1.47-2.81a4.73 4.73 0 00.1-4.12l-2.16-4.73a12.62 12.62 0 01-.93-7.57v-.13a.44.44 0 000-.2L25 31.19a1 1 0 00-1.95 0l-1.89 5a15.07 15.07 0 00-.16 10.3z"/><path class="cls-1" d="M13.63 70.37l.42.35h.16a5.51 5.51 0 015.47 4.84l.07.06 8.12 4.06a.37.37 0 00.49-.14v-.06a.38.38 0 000-.45l-10.67-12.2a.36.36 0 00-.18-.12 3.07 3.07 0 01-2.2-2.95 3 3 0 01.18-1 .5.5 0 000-.12V48.88a.38.38 0 01.74-.13l.27.71a.51.51 0 010 .13v11a.38.38 0 00.55.34 3.08 3.08 0 012.82 5.48.38.38 0 00-.11.59l9.72 11a.38.38 0 00.52 0 4.34 4.34 0 014.48.15l.05-.13L31 73.38a39.12 39.12 0 01-5.6-10.27l-7.59-20.83a.22.22 0 000-.08L12 33.93a1.36 1.36 0 00-2.47.78v27.06A9.88 9.88 0 0011.69 68zm38.55-43.16l3.13-1.79a.7.7 0 00.31-.39l2.22-7.51a.67.67 0 00-1-.75L50.15 21a14.1 14.1 0 00-4.9 5.27l-1.78 3.37a6.26 6.26 0 00-.3 5.23l2.6 6.62a.67.67 0 001.21.08l.48-.86a6.59 6.59 0 00.8-3.13v-1.89a.63.63 0 01.09-.33l2.13-3.64a4 4 0 00.52-2.25v-.13a2.32 2.32 0 011.18-2.13zM27.81 82.26c0-.14-.09-.26-.54-.46l-7.49-3.42a.38.38 0 00-.51.18 4.69 4.69 0 01-.44.79A2.18 2.18 0 0019 82l5.83 6.65a.38.38 0 00.26.13l3.28.23a.37.37 0 00.28-.1l2.52-2.26A.38.38 0 0031 86a4.33 4.33 0 01-3.19-3.74zm-1.49-28.77l.1-.1a2.08 2.08 0 00-1.51-3.48 2 2 0 00-2 2 2 2 0 00.47 1.29 2.12 2.12 0 002.94.29z"/><path class="cls-1" d="M19.92 62.34a.47.47 0 00-.1-.1 2.09 2.09 0 00-3.28.69 2.34 2.34 0 00.5 2.51.47.47 0 00.19.12 3.08 3.08 0 001.45.2 2.08 2.08 0 001.24-3.42zm21.29-2.68a2.09 2.09 0 00-3 2.94.28.28 0 00.09.1 2.09 2.09 0 003-3 .28.28 0 00-.09-.04zm-3.36 9.58a2.1 2.1 0 00-2.94 3l.1.09a2.09 2.09 0 002.94-3 .47.47 0 00-.1-.09zm-3.97 10.35a2.85 2.85 0 00-3.16-.26 2.87 2.87 0 00-1.11 1.13.31.31 0 00-.05.1 2.77 2.77 0 00-.29 1.25 2.93 2.93 0 00.17 1 2.85 2.85 0 002.67 1.85 2.81 2.81 0 001.72-.58 2.89 2.89 0 00.57-.59 2.84 2.84 0 00-.52-3.88zM17 73.68l-.1-.09C13 70.72 8.68 75 11.55 78.9l.09.09c3.86 2.85 8.16-1.45 5.36-5.31zm46.52-50.19L53.88 28a1.59 1.59 0 00-.9 1.6 4.87 4.87 0 01-.79 3.21l-1.28 1.92a.41.41 0 00.52.6l8-3.75a.37.37 0 00.18-.17l4.4-7.37a.42.42 0 00-.49-.55z"/><path class="cls-1" d="M75.65 7.54L63 15.06a.32.32 0 00-.14.14l-4.76 8.47a.39.39 0 00.51.53L65 20.85a.38.38 0 01.56.34v.74a.38.38 0 00.57.33L73 18.38a1.61 1.61 0 00.81-1.4v-1.76a.77.77 0 00-1.15-.67l-5.31 3a.38.38 0 01-.57-.33v-1.75a.4.4 0 01.2-.33L74.25 11a1 1 0 011.54.89v5.67a1.93 1.93 0 01-.9 1.63l-6.78 4.24a.39.39 0 00-.18.33v2a.38.38 0 00.58.32L76.7 21a1.94 1.94 0 00.9-1.64V8.65a1.29 1.29 0 00-1.95-1.11zM16.32 101a63.4 63.4 0 011.62-14.28 4.23 4.23 0 00-.94-3.78l-.92-1a1.47 1.47 0 00-1.24-.51 1.51 1.51 0 00-1.38 1.2 68.21 68.21 0 0033.78 72.65A63 63 0 0116.32 101z"/><path class="cls-1" d="M22.54 118a.79.79 0 001.46.18q2.2-4.11 4.87-8.45c2.55-4.15 5.13-7.95 7.65-11.41a.84.84 0 00.16-.51v-1.75a.52.52 0 00-.9-.36c-2.31 2.35-4.69 5-7.1 7.84a130.43 130.43 0 00-5.6 7.18 6.16 6.16 0 00-1.08 4.86c.16.81.35 1.61.54 2.42zm3.53 10.05a.79.79 0 001.46-.09c1.31-4 2.86-8.34 4.7-12.81 1.56-3.77 3.17-7.3 4.79-10.58a1.37 1.37 0 00.13-.77c-.09-.71-.16-1.43-.22-2.15a.45.45 0 00-.83-.21c-2.17 3.44-4.35 7.19-6.49 11.24q-2.55 4.84-4.6 9.4a4.25 4.25 0 00-.08 3.3q.54 1.35 1.14 2.67zm4.93 8.64a.78.78 0 001.42-.31c.72-4.25 1.64-8.79 2.84-13.55 1.09-4.34 2.3-8.41 3.55-12.19a1.25 1.25 0 00-.07-.93 14 14 0 01-.73-1.93.43.43 0 00-.8 0c-1.29 3.16-2.56 6.53-3.76 10.1-1.61 4.76-2.91 9.3-4 13.56a5.11 5.11 0 00.65 4c.26.38.55.82.9 1.25zm6.24 7.71a.79.79 0 001.35-.53c.12-4.5.43-9.36 1-14.51C40.21 124 41 119 42 114.39a.79.79 0 00-.29-.78 8.64 8.64 0 01-.92-.85l-.39-.41a.51.51 0 00-.86.22c-1 3.92-2 8.13-2.8 12.63-.93 5-1.56 9.81-2 14.25a4.46 4.46 0 001.12 3.42c.42.52.89 1.03 1.38 1.53zm8.2-27.54a.91.91 0 00-.31-.79l-1.34-1.15a.6.6 0 00-1 .36c-.69 4.92-1.23 10.31-1.5 16.12-.24 5.14-.23 10-.06 14.46a5.24 5.24 0 002 3.94c.18.15.38.3.57.44a.78.78 0 001.26-.68c-.38-4.81-.6-10-.56-15.59.06-6.15.41-11.88.94-17.11zm4.93 22.05c-.86-6.47-1.31-12.5-1.49-18L47.23 118a.52.52 0 00-1 .24c-.2 5.37-.18 11.25.19 17.57.32 5.47.87 10.59 1.55 15.32a4.65 4.65 0 002.29 3.38c.84.49 1.71.95 2.58 1.39a.34.34 0 00.49-.38c-1.13-5.04-2.17-10.6-2.96-16.61zm9.83 16.43c-1.41-4-2.78-8.4-4-13.07-1.31-4.87-2.34-9.52-3.15-13.9-.71-1.33-1.51-2.77-2.34-4.26a.34.34 0 00-.64.2c.54 5 1.34 10.43 2.49 16.16 1.21 6.07 2.65 11.66 4.17 16.71a1.26 1.26 0 00.73.81l1.22.48a1.28 1.28 0 001.72-1.3zm-3.97-22.01c-.47.15 4.08 17.19 4.61 17.07.32-.07-.55-6.29-2.77-12.6-.37-1.05-1.62-4.54-1.84-4.47zM32.25 50.11A11.48 11.48 0 0133.82 45a1.92 1.92 0 012.69-.56l3.9 2.63a1.19 1.19 0 00.33.22 1.22 1.22 0 001.33-.18l2.15-1.84a1.26 1.26 0 00.36-1.37l-3.16-8.62a6.83 6.83 0 01.36-5.51l2-3.86a19.77 19.77 0 016.32-7.15l3.82-2.62a1.26 1.26 0 00.37-.39l8.22-13.9A1.25 1.25 0 0061.37 0a8 8 0 00-3.13.9L44.76 8a4.79 4.79 0 00-2.54 4.68l.23 2.37a.56.56 0 00.88.4l3.94-2.83a.68.68 0 01.86 1l-5.2 4.89a1.07 1.07 0 00-.27.37l-5.14 10.88a10.44 10.44 0 00-.42 1 11.63 11.63 0 00-.52 2.23 14.47 14.47 0 00-.2 2.39v2.7c0 .79-.06 1.43-.09 1.87a3.1 3.1 0 01-6.19-.14 1.41 1.41 0 00-1.41 1.37c0 2.68 1.36 6.23 2.8 9a.41.41 0 00.76-.07zm50.96-39.19l-2.5 1.32a2.18 2.18 0 00-.49.35 2.21 2.21 0 01.49-.36zm71.32 77.83l-1.65 1.88a.58.58 0 00-.15.38v4.4a2.13 2.13 0 01-3.34 1.76l-4.56-3.12a10.79 10.79 0 00-2.72-1.35l-1.52-.5a.71.71 0 00-.92.67v.44a.7.7 0 00.56.68 3.06 3.06 0 011.6.9L154 108.08a1 1 0 001.73-.56 70.08 70.08 0 00-.19-18.47.57.57 0 00-1.01-.3z"/><circle class="cls-1" cx="142.81" cy="39.88" r="1.89"/><path class="cls-1" d="M135.26 8.54v6.9a12.06 12.06 0 001.33 5.5l2.35 4.56a24.7 24.7 0 012.73 11.31V37a3.08 3.08 0 011.14-.21 3.12 3.12 0 012.2.9h.27A2.45 2.45 0 00147.6 36l1.11-3.34a6.4 6.4 0 00-.46-5.12L137.45 8a1.17 1.17 0 00-2.19.54zm32.01 67.75a5.5 5.5 0 00-2.53-4.64l-.08-.09 9.18-11.79a1.21 1.21 0 012.17.79l-.51 14a10.9 10.9 0 01-.7 3.5 11.12 11.12 0 01-1.77 3.1 12.75 12.75 0 00-2.83 7 48.4 48.4 0 01-2.58 13.07.5.5 0 01-1-.2 67.32 67.32 0 00-2-20.12 5.5 5.5 0 002.65-4.62zm-32.5 7.91l-.3-1.12a1.29 1.29 0 01.67-1.49l4.39-2.25a.38.38 0 01.51.52 4.38 4.38 0 00-.46 2V82a1.26 1.26 0 01-.48 1.06l-2.26 1.81a1.3 1.3 0 01-2.07-.67zm1.9 5.02l-.3-.47a1.31 1.31 0 01.33-1.75l2.77-2a1.29 1.29 0 011.6.07 1.3 1.3 0 01.31 1.61l-.22.41a1.5 1.5 0 01-.27.34l-2.26 2a1.3 1.3 0 01-1.96-.21zm5.73-1.43a1.31 1.31 0 011.79 0l.48.44a1.29 1.29 0 01.05 1.88l-1.13 1.14a1.32 1.32 0 01-1.27.34l-.73-.21a1.29 1.29 0 01-.57-2.17zm5.39 2.44h1.9a1.3 1.3 0 011.3 1.31v3.3a.78.78 0 01-1.16.67l-3.56-2.05a1.31 1.31 0 01-.21-2.1l.89-.8a1.28 1.28 0 01.84-.33zm-3.55-34.08l1.27 2.64a11.42 11.42 0 011.14 4.83v1.24a9.59 9.59 0 01-1.84 5.75l-4.11 5.66a.53.53 0 01-.14.12l-5.81 2.72a.38.38 0 01-.54-.36l.21-6.29a.38.38 0 01.08-.23l2.21-2.62a3.19 3.19 0 00-.22 1.16 3.07 3.07 0 003.08 3.08c2.42 0 4.19-2.8 2.26-5.33l-.1-.1a3.63 3.63 0 00-2.56-.71.38.38 0 01-.33-.63l.3-.36a.21.21 0 00.06-.1l4.33-10.45a.38.38 0 01.71-.02zm-8.11-8.08A34.85 34.85 0 00139.2 46a1.11 1.11 0 011.71.28l.15.29a7.87 7.87 0 011 3.55l.16 3.86a.45.45 0 010 .16L139.77 60a.38.38 0 01-.7 0 3.09 3.09 0 00-2.85-1.91 2.93 2.93 0 00-.67.08l.48-.7a.44.44 0 00.06-.16 74.75 74.75 0 00-.79-7.47 1.82 1.82 0 01.83-1.77zm1.23 17.72l-2.68 3.36a.38.38 0 01-.68-.21l-.28-5a.37.37 0 01.61-.3 3.12 3.12 0 001.89.64 3.07 3.07 0 001.18-.28.38.38 0 01.5.5l-.48 1.18zm16.55-16.15a.38.38 0 01-.63.13 3.08 3.08 0 00-2.19-.91 3.14 3.14 0 00-2.49 5l.07.09a3.34 3.34 0 002.77 1 .38.38 0 01.41.51l-2.76 7.9a.39.39 0 01-.75-.13 11.4 11.4 0 00-1.28-5.23l-1.46-2.81a4.69 4.69 0 01-.11-4.12l2.16-4.73a12.55 12.55 0 00.93-7.57v-.13a.34.34 0 010-.2l2.48-7.28a1 1 0 011.95 0l1.89 5a15.07 15.07 0 01.12 10.3z"/><path class="cls-1" d="M162.38 70.37l-.42.35h-.16a5.51 5.51 0 00-5.47 4.84l-.07.06-8.12 4.06a.37.37 0 01-.49-.14v-.06a.38.38 0 010-.45l10.71-12.25a.36.36 0 01.18-.12 3.08 3.08 0 002.21-2.95 3 3 0 00-.19-1 .5.5 0 010-.12V48.88a.38.38 0 00-.74-.13l-.27.71a.51.51 0 000 .13v11a.38.38 0 01-.55.34 3.08 3.08 0 00-2.82 5.48.38.38 0 01.11.59l-9.72 11a.38.38 0 01-.57 0 4.34 4.34 0 00-4.48.15l-.05-.13 3.53-4.64a39.12 39.12 0 005.6-10.27l7.55-20.83a.56.56 0 01.05-.08l5.8-8.27a1.36 1.36 0 012.47.78v27.06a9.88 9.88 0 01-2.16 6.23zm-38.56-43.16l-3.13-1.79a.7.7 0 01-.31-.39l-2.22-7.51a.67.67 0 011-.75l6.69 4.23a14.1 14.1 0 014.9 5.27l1.78 3.37a6.26 6.26 0 01.3 5.23l-2.6 6.62a.67.67 0 01-1.21.08l-1.2-2.17a.73.73 0 01-.08-.33v-3.38a.63.63 0 00-.09-.33l-2.13-3.64a4 4 0 01-.55-2.25v-.13a2.35 2.35 0 00-1.15-2.13zm24.37 55.05c0-.14.09-.26.54-.46l7.5-3.42a.38.38 0 01.5.18 4.69 4.69 0 00.44.79A2.18 2.18 0 01157 82l-5.83 6.65a.36.36 0 01-.26.13l-3.28.23a.37.37 0 01-.28-.1l-2.52-2.26A.38.38 0 01145 86a4.33 4.33 0 003.19-3.74zm1.49-28.77a.47.47 0 01-.1-.1 2.08 2.08 0 011.51-3.48 2 2 0 012 2 2 2 0 01-.47 1.29 2.12 2.12 0 01-2.94.29z"/><path class="cls-1" d="M156.08 62.34a.47.47 0 01.1-.1 2.09 2.09 0 013.28.69 2.34 2.34 0 01-.5 2.51.47.47 0 01-.19.12 3.05 3.05 0 01-1.44.2 2.08 2.08 0 01-1.25-3.42zm-21.29-2.68a2.09 2.09 0 013 2.94l-.1.1a2.09 2.09 0 01-3-3 .28.28 0 01.1-.04zm3.36 9.58a2.1 2.1 0 012.94 3l-.1.09a2.09 2.09 0 01-2.94-3 .47.47 0 01.1-.09zm3.97 10.35a2.85 2.85 0 014.28.87 1 1 0 010 .1 2.77 2.77 0 01.29 1.25 2.93 2.93 0 01-.17 1 2.85 2.85 0 01-2.67 1.85 2.81 2.81 0 01-1.72-.58 2.89 2.89 0 01-.57-.59 2.84 2.84 0 01.52-3.88zm16.94-5.91l.09-.09c3.85-2.87 8.18 1.45 5.3 5.31a.76.76 0 01-.09.09c-3.86 2.85-8.16-1.45-5.3-5.31zm-46.58-50.19l9.64 4.51a1.59 1.59 0 01.9 1.6 4.87 4.87 0 00.79 3.21l1.28 1.92a.41.41 0 01-.52.6l-8-3.75a.37.37 0 01-.18-.17L112 24.08a.42.42 0 01.48-.59z"/><path class="cls-1" d="M100.35 7.54L113 15.06a.35.35 0 01.13.14l4.76 8.47a.39.39 0 01-.51.53L111 20.85a.38.38 0 00-.56.34v.74a.38.38 0 01-.57.33L103 18.38a1.61 1.61 0 01-.81-1.4v-1.76a.77.77 0 011.16-.67l5.3 3a.38.38 0 00.57-.33v-1.75a.41.41 0 00-.19-.33L101.75 11a1 1 0 00-1.54.89v5.67a1.93 1.93 0 00.9 1.63l6.78 4.24a.37.37 0 01.18.33v2a.38.38 0 01-.58.32L99.3 21a1.94 1.94 0 01-.9-1.64V8.65a1.29 1.29 0 011.95-1.11zM159.68 101a63.4 63.4 0 00-1.62-14.28 4.26 4.26 0 01.93-3.74l.92-1a1.47 1.47 0 011.24-.51 1.51 1.51 0 011.38 1.2 68.21 68.21 0 01-33.78 72.65A63 63 0 00159.68 101z"/><path class="cls-1" d="M153.46 118a.79.79 0 01-1.46.18q-2.2-4.11-4.86-8.45c-2.56-4.15-5.14-7.95-7.66-11.41a.84.84 0 01-.16-.51v-1.75a.52.52 0 01.9-.36c2.31 2.35 4.7 5 7.1 7.84 2.06 2.45 3.92 4.86 5.61 7.18a6.19 6.19 0 011.05 4.88c-.14.79-.33 1.59-.52 2.4zm-3.53 10.05a.79.79 0 01-1.46-.09c-1.31-4-2.86-8.34-4.7-12.81-1.56-3.77-3.17-7.3-4.79-10.58a1.37 1.37 0 01-.13-.77c.09-.71.17-1.43.23-2.15a.45.45 0 01.83-.21c2.16 3.44 4.34 7.19 6.48 11.24q2.55 4.84 4.6 9.4a4.2 4.2 0 01.08 3.3q-.54 1.35-1.14 2.67zm-4.88 8.64a.78.78 0 01-1.42-.31 174.842 174.842 0 00-6.38-25.74 1.2 1.2 0 01.06-.93 14 14 0 00.73-1.93.43.43 0 01.8 0c1.29 3.16 2.56 6.53 3.76 10.1 1.61 4.76 2.91 9.3 4 13.56a5.11 5.11 0 01-.65 4c-.31.38-.6.82-.9 1.25zm-6.29 7.71a.79.79 0 01-1.35-.53c-.12-4.5-.43-9.36-1-14.51-.61-5.38-1.42-10.38-2.35-15a.79.79 0 01.29-.78 8.64 8.64 0 00.92-.85l.39-.41a.51.51 0 01.86.22c1 3.92 2 8.13 2.81 12.63.92 5 1.56 9.81 2 14.25a4.46 4.46 0 01-1.12 3.42c-.49.55-.96 1.06-1.45 1.56zm-8.2-27.54a.91.91 0 01.31-.79l1.34-1.15a.6.6 0 011 .36c.69 4.92 1.23 10.31 1.5 16.12.24 5.14.23 10 .06 14.46a5.23 5.23 0 01-2 3.94c-.19.15-.38.3-.58.44a.78.78 0 01-1.26-.68c.38-4.81.6-10 .56-15.59-.05-6.15-.4-11.88-.93-17.11zm-4.93 22.05c.86-6.47 1.31-12.5 1.49-18l1.66-2.87a.51.51 0 011 .24c.2 5.37.18 11.25-.19 17.57-.32 5.47-.87 10.59-1.55 15.32a4.65 4.65 0 01-2.29 3.38c-.84.49-1.7.95-2.58 1.39a.34.34 0 01-.49-.38c1.12-5.08 2.16-10.64 2.95-16.65zm-9.83 16.43c1.41-4 2.78-8.4 4-13.07 1.3-4.87 2.33-9.52 3.14-13.9.71-1.33 1.51-2.77 2.34-4.26a.34.34 0 01.64.2c-.54 5-1.34 10.43-2.49 16.16-1.21 6.07-2.65 11.66-4.16 16.71a1.24 1.24 0 01-.74.81c-.4.17-.81.32-1.22.48a1.28 1.28 0 01-1.72-1.3q.12-.93.21-1.83zm5.3-24.6c.66.21-5.95 24.3-7 24-.49-.11.18-4.88.62-7.27a42.78 42.78 0 012.47-8.33c.71-1.73 1.38-3.21 2.21-5a22 22 0 011.7-3.4zm22.65-80.63a11.48 11.48 0 00-1.57-5.11 1.92 1.92 0 00-2.69-.56l-3.9 2.63a1.19 1.19 0 01-.33.22 1.22 1.22 0 01-1.33-.18l-2.15-1.84a1.24 1.24 0 01-.35-1.37l3.15-8.62a6.83 6.83 0 00-.36-5.51l-2-3.86a19.77 19.77 0 00-6.32-7.15l-3.82-2.62a1.12 1.12 0 01-.36-.39l-8.23-13.9A1.25 1.25 0 01114.63 0a8 8 0 013.13.9L131.25 8a4.8 4.8 0 012.53 4.68l-.22 2.37a.56.56 0 01-.89.4l-3.94-2.83a.68.68 0 00-.86 1l5.2 4.89a1.07 1.07 0 01.27.37l5.14 10.81c.16.35.3.69.43 1a10.93 10.93 0 01.52 2.23 14.47 14.47 0 01.2 2.39v2.7c0 .79.05 1.43.08 1.87a3.1 3.1 0 006.19-.14 1.41 1.41 0 011.41 1.37c0 2.68-1.36 6.23-2.8 9a.41.41 0 01-.76 0zM95.79 12.59a2.18 2.18 0 00-.49-.35l-2.5-1.32 2.5 1.31a2.21 2.21 0 01.49.36zm32.48 42.64c-.12.27-1.21-.12-1.41-.16a27.76 27.76 0 00-5-.45h-.56a44.68 44.68 0 00-8.34 0c-1.53.2-3.29.56-4.35 1.76-.17.2-.68.76-.52 1.06s.54.19.7.19a21.81 21.81 0 015.53.87 12.38 12.38 0 012.33.89 14.51 14.51 0 015.06 3.67c.52.59.6.8.53.93l-.06.07c-.19.18-.69.07-1 0h-.14l-.45-.08h-.07c-.79-.15-1.58-.31-2.39-.43a39.28 39.28 0 00-5.74-.28h-.13l-2.56.05a2.92 2.92 0 00-1.49.24l-.1.08a1.3 1.3 0 00-.39.46c-.11.2-.19.41-.31.62-1 1.87-4.2 2-4.39 2a6.08 6.08 0 01-4.11-1.42c-1.19-1-1.49-2.34-2.09-4.91a36.69 36.69 0 01-.64-7.26 6.23 6.23 0 01.56-3.13 5.76 5.76 0 01.63-1c1.23-1.52 3.61-1.89 5.44-2a33.47 33.47 0 018.68 1c.69.14 1.38.3 2.08.47l1 .26c.68.18 1.37.37 2.05.57l.71.22q.66.19 1.32.42l.56.19.2.07.25.09c.72.26 1.42.51 2.12.8l.68.3.87.42.5.28c1.27.72 2.5 1.54 3.69 2.38.28.19.83.59.75.76z"/><path class="cls-1" d="M138.42 91.17c-.27-.12-.47.09-1.21 0a2.25 2.25 0 01-1.35-.44c-.39-.34-.27-.65-.76-1.2a4 4 0 00-.64-.54c-1-.87.22-2.7-.44-5.13-.09-.34-.27-.87-.44-1.74-.12-.62-.17-1.1-.21-1.37a42.27 42.27 0 01-.4-4.26c-.14-2.69.14-3.08.11-6-.05-3.72-.5-4.47-.25-7.59a19.34 19.34 0 01.46-3.11c.48-2.11.85-2.08 1.09-3.49a11.76 11.76 0 00-.56-5.4 16.09 16.09 0 00-1-2.65 9.39 9.39 0 00-.87-1.44c-.62-.84-2-2.18-3.4-3.89a3.06 3.06 0 01-.91-1.65 8 8 0 00-.09-1.29 1.71 1.71 0 00-.31-.88 2 2 0 00-.78-.46c-.26-.1-.49-.22-.74-.33-1.93-.91-3.94-1.79-5.91-2.68-1-.44-2-.88-2.92-1.3a3.47 3.47 0 01-1-.9c-.25-.35-.57-.89-.85-1.32l-1.76-2.73-.95-1.38-.44-.68a1.53 1.53 0 00-.58-.54 1.59 1.59 0 00-.82-.16 1.53 1.53 0 00-1.3 1 1.58 1.58 0 00-.09.42v.64a.79.79 0 01-.38.64.77.77 0 01-.75 0l-1.45-.74a8.55 8.55 0 00-.83-.39 3.22 3.22 0 00-1.1-.19 3.17 3.17 0 00-1.1.18l-.26.1-.18.08-.37.17-3 1.3-3 1.32-.37.16-.18.08-.13.05a1.79 1.79 0 01-.51.11 1.93 1.93 0 01-1-.23 2.8 2.8 0 01-.46-.36l-.59-.55a4.86 4.86 0 00-.81-.62 3.52 3.52 0 00-1-.41 3.59 3.59 0 00-1.06-.1h-5.29a3.39 3.39 0 00-.55 0 3.7 3.7 0 00-2 .92l-.61.55-.3.28a1.73 1.73 0 01-.21.17 1.8 1.8 0 01-1 .32 1.6 1.6 0 01-.53-.06 1.21 1.21 0 01-.25-.08l-.35-.15-3-1.32-3-1.31-.74-.32a3.53 3.53 0 00-1.06-.3 3.21 3.21 0 00-1.11.08 4.08 4.08 0 00-.94.37l-1.45.75a1.45 1.45 0 01-.49.2.66.66 0 01-.37 0 .71.71 0 01-.49-.53.34.34 0 010-.1v-.61a1.74 1.74 0 00-.24-.78 1.47 1.47 0 00-.64-.55 1.56 1.56 0 00-1.59.18 2 2 0 00-.28.31l-.13.19-.22.34-.88 1.37-1.76 2.73-.86 1.36a3.32 3.32 0 01-1 1 14.76 14.76 0 01-1.38.69l-1.47.69-5.86 2.81a3.26 3.26 0 00-1.4 1 2.6 2.6 0 00-.48 1 8.65 8.65 0 00-.66 1.76c-1.15 3.71-4.17 3.33-5.4 7.13a21.12 21.12 0 00-.58 4.24 8.23 8.23 0 000 2.47 20.69 20.69 0 001 3 13 13 0 01.43 3.11 28.22 28.22 0 01-.07 4.94A98.4 98.4 0 0043.11 78a44.39 44.39 0 01-.32 8.69c-.35 2.16-.76 3.15-1.59 3.81-1.11.88-1.87.93-2.64 1.9s-.77 1.94-.68 4a37.63 37.63 0 001.31 10.09 12.54 12.54 0 001.53 3.88 28.69 28.69 0 004 3.75 5.4 5.4 0 001.18.8 8.67 8.67 0 001.6.51c1 .38 1.48 1.55 1.9 2.54.69 1.63 1.59 3.16 2.35 4.76 1.56 3.26 2.14 3 4.45 7.41.78 1.48 1.39 2.79 1.76 3.58.78 1.68 1.61 3.47 2 4.68a41.89 41.89 0 012.6 11.6 38.83 38.83 0 01-.11 6.49 2.88 2.88 0 002.18 3.1 101 101 0 0045.8.06 2.86 2.86 0 002.19-3.18c-.33-2.52-.37-2.67-.43-3.44-.08-1-.13-2.29-.16-3v-.75a31.77 31.77 0 01.7-6.42 78.82 78.82 0 016.1-16c.84-1.66 2.13-4.1 3.4-6.4.88-1.62 1.64-3 2.18-3.88a5.91 5.91 0 00-1.25 1c-.24.26-.41.47-.47.55a48.41 48.41 0 01-3 3.84 27.76 27.76 0 01-13.38 8.43c-.83.21-1.66.38-2.51.51a47 47 0 01-8.8.35 32.75 32.75 0 01-8.43-.95 8.65 8.65 0 01-4.84-3.31 4.75 4.75 0 01-.81-2.2 3.67 3.67 0 011.51-3.08c2.51-2 4.17-.94 8.54-3.15a29 29 0 004.56-3.11 24.64 24.64 0 002.21-1.89c2.22-2.13 2.73-3.38 2.86-3.75a7 7 0 00.4-1.82 2.25 2.25 0 01-.24.37 3.21 3.21 0 01-.26.3 8.43 8.43 0 01-2.31 1.48 14.51 14.51 0 01-5.67 1.77 12.54 12.54 0 01-2.6 0 3 3 0 01-1-.28 2 2 0 00-.46-.19 1.81 1.81 0 00-.52-.07 1.74 1.74 0 00-.47.06 2.37 2.37 0 00-.5.2s-.15.07-.69.25a9.38 9.38 0 01-4.14-.19 15.36 15.36 0 01-2.21-.54c-.51-.17-.94-.37-1.8-.75-2.09-.94-2.64-1.34-3-2a1 1 0 01-.18-.51c0-.36.29-.87 2.57-1.91a25.18 25.18 0 012.63-1 14.15 14.15 0 014.6-.76 3.28 3.28 0 011.17.4c.52.34.92.64 1.2.85s.52.42.78.41.43-.18.77-.46.74-.52 1.1-.78c.63-.45 1.39-.49 2.89-.56a21.42 21.42 0 012.69.06c.62 0 1.38.1 2.36.25a30.66 30.66 0 013.19.69 5.22 5.22 0 002.68.37c.3-.07.86-.23.86-.37s-.14-.08-.42-.18a4 4 0 01-1.08-.62 5.35 5.35 0 01-.47-.38c-1-.94-2-1.9-3.15-2.76-2.52-2-5.91-4.55-7.87-3.54-.19.1-.13.11-.66.47A6.45 6.45 0 0188 99.49c-.51 0-1.33-.41-3-1.3-1.22-.67-1.69-1-1.69-1.5a1 1 0 01.33-.66c5-5 8.9-5.62 8.9-5.62 1.57-.39 3.48-.21 4.88-1.08.34-.21 1.51-.92 1.58-2 .06-.86-.65-1.5-1.58-2.36-3.28-3.06-3.8-3.79-6.69-5.91A4.35 4.35 0 0088 77.91a4.13 4.13 0 00-2.36 1.18c-1.69 1.36-3.56 2.52-5.17 4a9.77 9.77 0 00-3.1 4.69c-.18.74-.08.86-.39 3.93a14.71 14.71 0 01-.73 4A18.76 18.76 0 0174 99.55a9 9 0 01-3.06 3c-2.07 1.11-4.4.23-6.24-.41-3.85-1.33-6.25-3.71-8.55-6a36.48 36.48 0 01-4.59-5.57c-2.47-3.54-3.69-5.35-3.35-7.61a5.76 5.76 0 012.23-3.88c2.2-1.34 4.61-2.43 6.9-3.62.29-.15-.1 0 5-2.82a6.49 6.49 0 002.45-2.18 3 3 0 00.56-2.23 2.49 2.49 0 00-.4-.79 3.47 3.47 0 00-1.55-1.14 9 9 0 00-3.75-.54 30.46 30.46 0 00-4.52.54c-1.09.18-2.57.44-4.33.79a11.64 11.64 0 012.49-2 11.8 11.8 0 012.77-1.22 10.82 10.82 0 013.24-.53c.72 0 1.44-.08 2.16-.07a21.82 21.82 0 012.29.13c1.37.14 2.78.41 4-.29.34-.19.7-.54 1.12-.38a.73.73 0 01.39.4 1 1 0 01-.16.74c-.4.86-1.5 1.72-1.39 2.75a1.81 1.81 0 00.43.93 11.34 11.34 0 001.09 1.2 7.09 7.09 0 004 1.86h.56a4.09 4.09 0 002-.72 13.19 13.19 0 002.81-2.41c2.21-2.71 3.76-4.61 4.7-7.74.72-2.41 2-6.63-.23-9.62-1-1.37-2.5-2.16-5.12-2.76a29.47 29.47 0 00-12.2 0 42.73 42.73 0 00-10.63 3.54 48.3 48.3 0 00-6.3 3.55c.49-5.29.76-9 .84-11.47a6.66 6.66 0 011.25-2.58 9.47 9.47 0 012.43-1.52c1.55-.68 2.8-1.19 3.64-1.52a9.32 9.32 0 003.49-2 7.5 7.5 0 001.12-1.37l1.31-2.15c.59-.9 1.56-2.38 2.14-3.28l.23-.32v.45a1.71 1.71 0 000 .31 2.38 2.38 0 001.49 1.85 2.43 2.43 0 001.22.15 3.28 3.28 0 001-.36l1.53-.64a2 2 0 01.56-.22 1.67 1.67 0 01.5 0 1.52 1.52 0 01.5.16l.74.34 2.94 1.37 3 1.36.39.17a3.09 3.09 0 00.51.18 3.66 3.66 0 001.09.13 3.89 3.89 0 002-.66 3.57 3.57 0 00.43-.34l.3-.27.59-.54a1.79 1.79 0 01.93-.41 1.14 1.14 0 01.26 0h5.31a1.91 1.91 0 01.56.05 1.64 1.64 0 01.48.18 2.71 2.71 0 01.47.37l.6.55a4.06 4.06 0 00.83.61 3.81 3.81 0 002.11.47 4 4 0 001.07-.22l.25-.11.19-.08.37-.17 3-1.36 2.94-1.37.37-.17.19-.08h.12a1.58 1.58 0 01.49-.1 2.16 2.16 0 011.13.37l1.46.71a2.49 2.49 0 002.37-.08 2.44 2.44 0 001.17-2.05v-.39l.37.54.93 1.33 1.87 2.66.45.64a8.21 8.21 0 002 1.88 14.93 14.93 0 002.92 1.24 33.54 33.54 0 013.88 1.7c2.19 1.07 2.67 1.57 3 2a10.3 10.3 0 01.82 2c.67 1.49 1.57 2 2.59 3 .22.23 3.37 3.62 3.12 7.38a10.26 10.26 0 01-.69 3c-.35.92-.89 1.75-1.26 2.66a11.72 11.72 0 00-.73 3.08 53 53 0 000 6.67 49.57 49.57 0 01-1 10.3 9.06 9.06 0 01-1.21 3.74 6.48 6.48 0 00-1.18 2.37 2.73 2.73 0 00-.16 1.29c.2.61.78.12 1.14-.12.94-.64 2-1 3-1.57 1.79-1 2.43-1.8 2.75-1.57s0 .44 0 1.57.2 1.38 0 2c-.05.19-.11.27-.78 1.18-1 1.4-1.21 1.61-1.18 2a1.72 1.72 0 00.78 1.18c.53.34 1.22.13 1.75.5.34.24.51.64.81.92a9.51 9.51 0 002 1.25.9.9 0 01.52.45 1.08 1.08 0 010 .31c-.08 1.34 0 2.68-.1 4a37.62 37.62 0 01-2.61 10.54c-.86 2.15-2 4.79-4.38 5.61-.13 0-.58.2-.78 0s0-1.08 0-1.17a52.28 52.28 0 00-3.74 4.67 60.21 60.21 0 00-5 8.72c-2.81 5.73-5.16 11.83-4.87 12s2.32-3.77 3.65-6.52c1.05-2.19 1.41-3.2 2.67-5.55.43-.8.16-.26 2.19-3.77 1.89-3.29 2.65-4.67 4.34-6a8.62 8.62 0 011.06-.73s1.13-.69 2.54-1.76a11 11 0 002.74-2.65 11.86 11.86 0 001.37-3 27.42 27.42 0 00.85-2.94c.3-1.29.46-2.22.72-3.84.07-.42.49-3 .95-7 .06-1.3.25-3.12-.42-3.42zm-73-63z"/><rect class="cls-1" x="85.48" y="7.36" width="5.03" height="8.6" rx="2.52"/><path class="cls-1" d="M22 108.08l12.18-13.19a3 3 0 011.59-.9.69.69 0 00.56-.68v-.44a.71.71 0 00-.92-.67l-1.52.5a10.79 10.79 0 00-2.72 1.35l-4.56 3.12a2.13 2.13 0 01-3.34-1.76V91a.54.54 0 00-.15-.38l-1.65-1.88a.57.57 0 00-1 .3 70.51 70.51 0 00-.19 18.47 1 1 0 001.72.57z"/><circle class="cls-1" cx="33.19" cy="39.88" r="1.89"/><path class="cls-1" d="M28.4 36a2.46 2.46 0 002.32 1.66H31a3.14 3.14 0 013.33-.66v-.18a24.7 24.7 0 012.73-11.32l2.35-4.56a12.06 12.06 0 001.33-5.5v-6.9A1.17 1.17 0 0038.55 8l-10.8 19.56a6.4 6.4 0 00-.46 5.12zM8.73 76.29a5.5 5.5 0 012.53-4.64l.08-.09-9.17-11.8a1.21 1.21 0 00-2.17.79l.51 14a10.9 10.9 0 00.7 3.5A11.15 11.15 0 003 81.18a12.74 12.74 0 012.82 7 48.79 48.79 0 002.58 13.07.5.5 0 001-.2 67.65 67.65 0 012-20.12 5.53 5.53 0 01-2.67-4.64zm32.5 7.91l.3-1.12a1.29 1.29 0 00-.66-1.49l-4.4-2.25a.38.38 0 00-.53.22.35.35 0 000 .3 4.38 4.38 0 01.46 2V82a1.26 1.26 0 00.48 1.06l2.26 1.81a1.3 1.3 0 002.09-.67zm-1.9 5.02l.3-.47A1.31 1.31 0 0039.3 87l-2.77-2a1.29 1.29 0 00-1.6.07 1.29 1.29 0 00-.3 1.61l.22.41a1.27 1.27 0 00.27.34l2.25 2a1.3 1.3 0 001.96-.21zm-5.73-1.43a1.31 1.31 0 00-1.79 0l-.48.44a1.29 1.29 0 000 1.88l1.13 1.14a1.33 1.33 0 001.27.34l.73-.21a1.29 1.29 0 00.54-2.21zm-5.39 2.44h-1.9A1.3 1.3 0 0025 91.54v3.3a.78.78 0 001.16.67l3.56-2.05a1.3 1.3 0 00.21-2.1l-.89-.8a1.28 1.28 0 00-.83-.33zm3.55-34.08l-1.27 2.64a11.26 11.26 0 00-1.13 4.83v1.24a9.66 9.66 0 001.84 5.75l4.11 5.66a.44.44 0 00.15.12l5.8 2.72a.38.38 0 00.54-.36l-.2-6.29a.46.46 0 00-.09-.23l-2.21-2.62a3 3 0 01.22 1.16 3.07 3.07 0 01-3.08 3.08c-2.42 0-4.19-2.8-2.26-5.33l.1-.1a3.65 3.65 0 012.57-.71.38.38 0 00.32-.63l-.3-.36a.21.21 0 01-.06-.1l-4.35-10.45a.38.38 0 00-.7-.02zm8.11-8.07A36.93 36.93 0 0136.8 46a1.1 1.1 0 00-1.7.28l-.16.29a8 8 0 00-1 3.55L33.78 54a.3.3 0 000 .16L36.23 60a.38.38 0 00.7 0 3.09 3.09 0 012.85-1.91 2.93 2.93 0 01.67.08l-.48-.7a.44.44 0 01-.06-.16 74.75 74.75 0 01.79-7.47 1.79 1.79 0 00-.83-1.76zm-1.23 17.71l2.68 3.36a.38.38 0 00.68-.21l.28-5a.37.37 0 00-.61-.3 3.08 3.08 0 01-3.07.4.38.38 0 00-.5.5l.49 1.18a.26.26 0 00.05.07zM22.09 49.64a.38.38 0 00.63.13 3.1 3.1 0 012.19-.91 3.14 3.14 0 012.49 5l-.07.09a3.34 3.34 0 01-2.77 1 .39.39 0 00-.41.51l2.76 7.9a.39.39 0 00.75-.13A11.4 11.4 0 0128.94 58l1.47-2.81a4.73 4.73 0 00.1-4.12l-2.16-4.73a12.62 12.62 0 01-.93-7.57v-.13a.44.44 0 000-.2L25 31.19a1 1 0 00-1.95 0l-1.89 5a15.07 15.07 0 00-.16 10.3z"/><path class="cls-1" d="M13.63 70.37l.42.35h.16a5.51 5.51 0 015.47 4.84l.07.06 8.12 4.06a.37.37 0 00.49-.14v-.06a.38.38 0 000-.45l-10.67-12.2a.36.36 0 00-.18-.12 3.07 3.07 0 01-2.2-2.95 3 3 0 01.18-1 .5.5 0 000-.12V48.88a.38.38 0 01.74-.13l.27.71a.51.51 0 010 .13v11a.38.38 0 00.55.34 3.08 3.08 0 012.82 5.48.38.38 0 00-.11.59l9.72 11a.38.38 0 00.52 0 4.34 4.34 0 014.48.15l.05-.13L31 73.38a39.12 39.12 0 01-5.6-10.27l-7.59-20.83a.22.22 0 000-.08L12 33.93a1.36 1.36 0 00-2.47.78v27.06A9.88 9.88 0 0011.69 68zm38.55-43.16l3.13-1.79a.7.7 0 00.31-.39l2.22-7.51a.67.67 0 00-1-.75L50.15 21a14.1 14.1 0 00-4.9 5.27l-1.78 3.37a6.26 6.26 0 00-.3 5.23l2.6 6.62a.67.67 0 001.21.08l.48-.86a6.59 6.59 0 00.8-3.13v-1.89a.63.63 0 01.09-.33l2.13-3.64a4 4 0 00.52-2.25v-.13a2.32 2.32 0 011.18-2.13zM27.81 82.26c0-.14-.09-.26-.54-.46l-7.49-3.42a.38.38 0 00-.51.18 4.69 4.69 0 01-.44.79A2.18 2.18 0 0019 82l5.83 6.65a.36.36 0 00.26.13l3.28.23a.37.37 0 00.28-.1l2.52-2.26A.38.38 0 0031 86a4.33 4.33 0 01-3.19-3.74zm-1.49-28.77l.1-.1a2.08 2.08 0 00-1.51-3.48 2 2 0 00-2 2 2 2 0 00.47 1.29 2.12 2.12 0 002.94.29z"/><path class="cls-1" d="M19.92 62.34a.47.47 0 00-.1-.1 2.09 2.09 0 00-3.28.69 2.34 2.34 0 00.5 2.51.47.47 0 00.19.12 3.08 3.08 0 001.45.2 2.08 2.08 0 001.24-3.42zm21.3-2.68a2.09 2.09 0 00-3 2.94.28.28 0 00.09.1 2.09 2.09 0 003-3zm-3.37 9.58a2.1 2.1 0 00-2.94 3l.1.09a2.09 2.09 0 002.94-3 .47.47 0 00-.1-.09zm-3.97 10.35a2.85 2.85 0 00-3.16-.26 2.87 2.87 0 00-1.11 1.13.31.31 0 00-.05.1 2.77 2.77 0 00-.29 1.25 2.93 2.93 0 00.17 1 2.85 2.85 0 002.67 1.85 2.81 2.81 0 001.72-.58 2.89 2.89 0 00.57-.59 2.81 2.81 0 00-.52-3.88zM17 73.68l-.1-.09C13 70.72 8.68 75 11.55 78.9l.09.09c3.86 2.85 8.16-1.45 5.36-5.31zm46.52-50.19L53.88 28a1.59 1.59 0 00-.9 1.6 4.87 4.87 0 01-.79 3.21l-1.28 1.92a.41.41 0 00.52.6l8-3.75a.37.37 0 00.18-.17l4.4-7.37a.42.42 0 00-.49-.55z"/><path class="cls-1" d="M77.6 19.35V8.65a1.29 1.29 0 00-1.95-1.11L63 15.06a.32.32 0 00-.14.14l-4.76 8.47a.39.39 0 00.51.53L65 20.85a.38.38 0 01.56.34v.74a.38.38 0 00.57.33L73 18.38a1.61 1.61 0 00.81-1.4v-1.76a.77.77 0 00-1.15-.67l-5.31 3a.38.38 0 01-.57-.33v-1.75a.4.4 0 01.2-.33L74.25 11a1 1 0 011.54.89v5.67a1.93 1.93 0 01-.9 1.63l-6.78 4.24a.39.39 0 00-.18.33v2a.38.38 0 00.58.32L76.7 21a1.94 1.94 0 00.9-1.65zM16.32 101a63.4 63.4 0 011.62-14.28 4.23 4.23 0 00-.94-3.78l-.92-1a1.47 1.47 0 00-1.24-.51 1.51 1.51 0 00-1.38 1.2 68.21 68.21 0 0033.78 72.65A63 63 0 0116.32 101z"/><path class="cls-1" d="M22.54 118a.79.79 0 001.46.18q2.2-4.11 4.87-8.45c2.55-4.15 5.13-7.95 7.65-11.41a.84.84 0 00.16-.51v-1.75a.52.52 0 00-.9-.36c-2.31 2.35-4.69 5-7.1 7.84a130.43 130.43 0 00-5.6 7.18 6.16 6.16 0 00-1.08 4.86c.16.81.35 1.61.54 2.42zm3.53 10.05a.79.79 0 001.46-.09c1.31-4 2.86-8.34 4.7-12.81 1.56-3.77 3.17-7.3 4.79-10.58a1.37 1.37 0 00.13-.77c-.09-.71-.16-1.43-.23-2.15a.45.45 0 00-.82-.21c-2.17 3.44-4.35 7.19-6.49 11.24q-2.55 4.84-4.6 9.4a4.25 4.25 0 00-.08 3.3q.54 1.35 1.14 2.67zm4.93 8.64a.78.78 0 001.42-.31c.72-4.25 1.64-8.79 2.84-13.55 1.09-4.35 2.3-8.41 3.55-12.19a1.25 1.25 0 00-.07-.93 14 14 0 01-.73-1.93.43.43 0 00-.8 0c-1.29 3.16-2.56 6.53-3.76 10.1-1.61 4.76-2.91 9.3-4 13.56a5.11 5.11 0 00.65 4c.26.38.55.82.9 1.25zm6.24 7.71a.79.79 0 001.35-.53c.12-4.5.43-9.36 1-14.51C40.21 124 41 119 42 114.39a.79.79 0 00-.29-.78 8.64 8.64 0 01-.92-.85l-.39-.41a.51.51 0 00-.86.22c-1 3.92-2 8.13-2.8 12.63-.93 5-1.56 9.81-2 14.25a4.46 4.46 0 001.12 3.42c.42.52.89 1.03 1.38 1.53zm7.89-28.33l-1.34-1.15a.6.6 0 00-1 .36c-.69 4.92-1.23 10.31-1.5 16.12-.24 5.14-.23 10-.06 14.46a5.24 5.24 0 002 3.94c.18.15.38.3.57.44a.78.78 0 001.26-.68c-.38-4.81-.6-10-.56-15.59 0-6.15.39-11.88.92-17.11a.91.91 0 00-.29-.79zm3.75 4.83l-1.65-2.9a.52.52 0 00-1 .24c-.2 5.37-.18 11.25.19 17.57.32 5.47.87 10.59 1.55 15.32a4.65 4.65 0 002.29 3.38c.84.49 1.71.95 2.58 1.39a.34.34 0 00.49-.38c-1.16-5.06-2.2-10.62-3-16.63-.82-6.45-1.27-12.48-1.45-17.99zm11.32 34.44c-1.41-4-2.78-8.41-4-13.07-1.31-4.87-2.34-9.52-3.15-13.9-.71-1.33-1.51-2.77-2.34-4.26a.34.34 0 00-.64.2c.54 5 1.34 10.43 2.49 16.16 1.21 6.07 2.65 11.66 4.17 16.71a1.26 1.26 0 00.73.81l1.22.48a1.28 1.28 0 001.72-1.3l-.18-1.83zm-3.97-22.01c-.47.15 4.08 17.19 4.61 17.07.32-.07-.55-6.29-2.77-12.6-.37-1.05-1.62-4.54-1.84-4.47zM42.45 15.07a.56.56 0 00.88.4l3.94-2.83a.68.68 0 01.86 1l-5.2 4.89a1.07 1.07 0 00-.27.37l-5.14 10.86a10.44 10.44 0 00-.42 1 11.63 11.63 0 00-.52 2.23 14.47 14.47 0 00-.2 2.39v2.7c0 .79-.06 1.43-.09 1.87a3.1 3.1 0 01-6.19-.14 1.41 1.41 0 00-1.41 1.37c0 2.68 1.36 6.23 2.8 9a.41.41 0 00.77-.15A11.48 11.48 0 0133.82 45a1.92 1.92 0 012.69-.56l3.9 2.63a1.19 1.19 0 00.33.22 1.22 1.22 0 001.33-.18l2.15-1.84a1.26 1.26 0 00.36-1.37l-3.16-8.62a6.83 6.83 0 01.36-5.51l2-3.86a19.77 19.77 0 016.32-7.15l3.82-2.62a1.12 1.12 0 00.36-.39l8.23-13.9A1.25 1.25 0 0061.37 0a8 8 0 00-3.13.9L44.76 8a4.79 4.79 0 00-2.54 4.68zm54.04-.87v4.13a.7.7 0 01-.7.7H80.22a.7.7 0 01-.7-.7V14.2a2.2 2.2 0 01.7-1.61 2.18 2.18 0 01.49-.35l2.5-1.32a.4.4 0 01.59.36v1.63a5.27 5.27 0 001.56 3.75A3.68 3.68 0 0088 17.75a3.68 3.68 0 002.62-1.09 5.26 5.26 0 001.55-3.75v-1.63a.41.41 0 01.6-.36l2.5 1.32a2.18 2.18 0 01.49.35 2.2 2.2 0 01.73 1.61zm59.23 93.32a70.08 70.08 0 00-.19-18.47.57.57 0 00-1-.3l-1.65 1.88a.57.57 0 00-.14.38v4.4a2.14 2.14 0 01-3.35 1.76l-4.56-3.12a10.79 10.79 0 00-2.72-1.35l-1.52-.5a.71.71 0 00-.92.67v.44a.7.7 0 00.56.68 3.06 3.06 0 011.6.9L154 108.08a1 1 0 001.72-.56z"/><circle class="cls-1" cx="142.81" cy="39.88" r="1.89"/><path class="cls-1" d="M138.94 25.5a24.7 24.7 0 012.73 11.31V37a3.08 3.08 0 011.14-.21 3.12 3.12 0 012.2.9h.27A2.45 2.45 0 00147.6 36l1.11-3.34a6.4 6.4 0 00-.46-5.12L137.45 8a1.17 1.17 0 00-2.19.56v6.9a12.06 12.06 0 001.33 5.5zm34.89 34.26l-9.18 11.79.08.09a5.52 5.52 0 01-.06 9.32 67.32 67.32 0 012 20.12.5.5 0 001 .2 48.4 48.4 0 002.58-13.07 12.75 12.75 0 012.83-7 11.12 11.12 0 001.77-3.1 10.9 10.9 0 00.7-3.5l.51-14a1.21 1.21 0 00-2.23-.85zm-33.76 19.8a.39.39 0 00-.54-.22l-4.39 2.25a1.29 1.29 0 00-.67 1.49l.3 1.12a1.3 1.3 0 002.07.68l2.26-1.81a1.26 1.26 0 00.48-1.06v-.2a4.38 4.38 0 01.46-2 .4.4 0 00.03-.25zm-3.4 9.66a1.3 1.3 0 002 .26l2.26-2a1.5 1.5 0 00.27-.34l.22-.41a1.3 1.3 0 00-.31-1.61 1.29 1.29 0 00-1.6-.07l-2.77 2a1.31 1.31 0 00-.33 1.77zm4.92 2.12l.73.21a1.32 1.32 0 001.27-.34l1.13-1.14a1.29 1.29 0 00-.05-1.88l-.48-.44a1.31 1.31 0 00-1.79 0l-1.4 1.42a1.29 1.29 0 00.59 2.17zm8.21 4.17a.78.78 0 001.16-.67v-3.3a1.3 1.3 0 00-1.3-1.31h-1.9a1.28 1.28 0 00-.87.33l-.89.8a1.31 1.31 0 00.21 2.1zm-3.14-30.65v-1.24a11.42 11.42 0 00-1.14-4.83l-1.27-2.64a.38.38 0 00-.7 0l-4.33 10.45a.21.21 0 01-.06.1l-.3.36a.38.38 0 00.33.63 3.63 3.63 0 012.56.71l.1.1c1.93 2.53.16 5.33-2.26 5.33a3.07 3.07 0 01-3.08-3.08 3.19 3.19 0 01.22-1.16l-2.21 2.62a.38.38 0 00-.08.23l-.21 6.29a.38.38 0 00.54.36l5.81-2.72a.53.53 0 00.14-.12l4.11-5.66a9.59 9.59 0 001.83-5.73zm-5.6-18.31l-.15-.29a1.11 1.11 0 00-1.71-.26 36.93 36.93 0 01-3.07 2.1 1.79 1.79 0 00-.83 1.76 74.75 74.75 0 01.79 7.47.44.44 0 01-.06.16l-.48.7a2.93 2.93 0 01.67-.08 3.09 3.09 0 012.85 1.89.38.38 0 00.7 0l2.43-5.88a.45.45 0 000-.16l-.16-3.86a7.87 7.87 0 00-.98-3.55zm-7.34 17.37l.28 5a.38.38 0 00.68.21l2.68-3.36a.26.26 0 000-.09l.49-1.18a.38.38 0 00-.5-.5 3.07 3.07 0 01-1.18.24 3.12 3.12 0 01-1.89-.64.37.37 0 00-.56.32zm14.84-25.25v.13a12.55 12.55 0 01-.93 7.57l-2.16 4.73a4.69 4.69 0 00.11 4.12l1.48 2.78a11.4 11.4 0 011.28 5.25.39.39 0 00.75.13l2.76-7.9a.38.38 0 00-.41-.51 3.34 3.34 0 01-2.77-1l-.07-.09a3.14 3.14 0 012.49-5 3.08 3.08 0 012.19.91.38.38 0 00.63-.13l1.1-3.15a15.07 15.07 0 00-.12-10.3l-1.89-5a1 1 0 00-1.95 0l-2.48 7.28a.34.34 0 00-.01.18z"/><path class="cls-1" d="M145 73.38l-3.56 4.68.05.13A4.34 4.34 0 01146 78a.38.38 0 00.47-.06l9.72-11a.38.38 0 00-.11-.59 3.08 3.08 0 012.83-5.35.38.38 0 00.55-.34v-11a.51.51 0 010-.13l.27-.71a.38.38 0 01.74.13V62.6a.5.5 0 000 .12 3 3 0 01.19 1 3.08 3.08 0 01-2.21 2.95.36.36 0 00-.18.12L147.6 79.08a.38.38 0 000 .45v.06a.37.37 0 00.49.14l8.12-4.06.07-.06a5.51 5.51 0 015.47-4.84h.16l.42-.35 1.98-2.42a9.88 9.88 0 002.18-6.19v-27.1a1.36 1.36 0 00-2.47-.78l-5.78 8.27a.56.56 0 00-.05.08l-7.55 20.83A39.12 39.12 0 01145 73.38zm-17.18-33.99l1.2 2.17a.67.67 0 001.21-.08l2.6-6.62a6.26 6.26 0 00-.3-5.23l-1.78-3.37a14.1 14.1 0 00-4.9-5.27l-6.69-4.22a.67.67 0 00-1 .75l2.22 7.48a.7.7 0 00.31.39l3.13 1.79a2.35 2.35 0 011.18 2.16v.13a4 4 0 00.55 2.25l2.13 3.64a.63.63 0 01.09.33v3.37a.73.73 0 00.05.33zm29.35 39.96a4.69 4.69 0 01-.44-.79.38.38 0 00-.5-.18l-7.5 3.42c-.45.2-.53.32-.54.46A4.33 4.33 0 01145 86a.38.38 0 00-.16.65l2.52 2.26a.37.37 0 00.28.1l3.28-.23a.36.36 0 00.26-.13L157 82a2.18 2.18 0 00.17-2.65zm-4.05-27.41a2 2 0 00-2-2 2.08 2.08 0 00-1.51 3.48.47.47 0 00.1.1 2.12 2.12 0 003-.26 2 2 0 00.41-1.32z"/><path class="cls-1" d="M159 65.44a2.34 2.34 0 00.5-2.51 2.09 2.09 0 00-3.28-.69.47.47 0 00-.1.1 2.08 2.08 0 001.25 3.42 3.05 3.05 0 001.44-.2.47.47 0 00.19-.12zm-24.31-5.69a2.09 2.09 0 003 3l.1-.1a2.09 2.09 0 00-3-2.94.28.28 0 00-.1.04zM141 72.31l.1-.09a2.1 2.1 0 00-2.94-3 .47.47 0 00-.1.1 2.09 2.09 0 002.94 2.99zm5.56 10.48a2.93 2.93 0 00.17-1 2.77 2.77 0 00-.29-1.25 1 1 0 000-.1 2.84 2.84 0 10-4.8 3 2.89 2.89 0 00.57.59 2.85 2.85 0 002.89.33 2.84 2.84 0 001.46-1.57zm12.59-9.2l-.09.09c-2.86 3.86 1.44 8.16 5.3 5.31a.76.76 0 00.09-.09c2.88-3.9-1.45-8.18-5.3-5.31zm-42.62-41.97l8 3.75a.41.41 0 00.52-.6l-1.28-1.92a4.87 4.87 0 01-.79-3.21 1.59 1.59 0 00-.9-1.6l-9.64-4.55a.42.42 0 00-.53.59l4.4 7.37a.37.37 0 00.22.17z"/><path class="cls-1" d="M117.88 23.67l-4.76-8.47a.35.35 0 00-.13-.14l-12.64-7.52a1.29 1.29 0 00-1.95 1.11v10.7a1.94 1.94 0 00.9 1.65l8.19 5.12a.38.38 0 00.58-.32v-2a.37.37 0 00-.18-.33l-6.78-4.24a1.93 1.93 0 01-.9-1.63v-5.72a1 1 0 011.54-.89l7.3 4.15a.41.41 0 01.19.33v1.77a.38.38 0 01-.57.33l-5.3-3a.77.77 0 00-1.16.67V17a1.61 1.61 0 00.81 1.4l6.82 3.88a.38.38 0 00.57-.33v-.74a.38.38 0 01.56-.34l6.4 3.35a.39.39 0 00.51-.55zm43.27 57.72a1.47 1.47 0 00-1.24.51l-.92 1a4.26 4.26 0 00-.93 3.74 63.2 63.2 0 01-29.31 68.56 68.21 68.21 0 0033.78-72.65 1.51 1.51 0 00-1.38-1.16z"/><path class="cls-1" d="M153.46 118c.19-.79.38-1.59.54-2.4a6.19 6.19 0 00-1-4.9c-1.69-2.32-3.55-4.73-5.61-7.18-2.4-2.88-4.79-5.49-7.1-7.84a.52.52 0 00-.9.36v1.75a.84.84 0 00.16.51c2.52 3.46 5.1 7.26 7.66 11.41q2.66 4.33 4.86 8.45a.79.79 0 001.39-.16zm-3.53 10.05q.6-1.32 1.14-2.67a4.2 4.2 0 00-.08-3.3q-2.06-4.55-4.6-9.4c-2.14-4.05-4.32-7.8-6.48-11.24a.45.45 0 00-.83.21c-.06.72-.14 1.44-.23 2.15a1.37 1.37 0 00.13.77c1.62 3.28 3.23 6.81 4.79 10.58 1.84 4.47 3.39 8.77 4.7 12.81a.79.79 0 001.46.09zm-4.88 8.64c.3-.43.59-.87.87-1.31a5.11 5.11 0 00.65-4c-1.06-4.26-2.36-8.8-4-13.56-1.2-3.57-2.47-6.94-3.76-10.1a.43.43 0 00-.8 0 14 14 0 01-.73 1.93 1.2 1.2 0 00-.06.93 174.842 174.842 0 016.38 25.74.78.78 0 001.45.37zm-7.64 7.18a.79.79 0 001.35.53c.49-.5 1-1 1.43-1.53a4.46 4.46 0 001.12-3.42 171.628 171.628 0 00-4.81-26.88.51.51 0 00-.86-.22l-.39.41a8.64 8.64 0 01-.92.85.79.79 0 00-.29.78c.93 4.59 1.74 9.59 2.35 15 .61 5.12.9 9.98 1.02 14.48zm-5.23 6.37c.2-.14.39-.29.58-.44a5.23 5.23 0 002-3.94c.17-4.48.18-9.32-.06-14.46-.27-5.81-.81-11.2-1.5-16.12a.6.6 0 00-1-.36l-1.34 1.15a.91.91 0 00-.31.79c.53 5.23.88 11 .92 17.11 0 5.57-.18 10.78-.56 15.59a.78.78 0 001.27.68zm-2.44-31.98a.51.51 0 00-1-.24l-1.66 2.87c-.18 5.51-.63 11.54-1.49 18-.79 6-1.83 11.57-3 16.63a.34.34 0 00.49.38c.88-.44 1.74-.9 2.58-1.39a4.65 4.65 0 002.29-3.38c.68-4.73 1.23-9.85 1.55-15.32.42-6.3.44-12.18.24-17.55zm-3.74 6.05a.34.34 0 00-.64-.2c-.83 1.49-1.63 2.93-2.34 4.26-.81 4.38-1.84 9-3.14 13.9-1.25 4.66-2.62 9-4 13.07q-.09.9-.18 1.83a1.28 1.28 0 001.72 1.3l1.22-.48a1.24 1.24 0 00.74-.81c1.51-5.05 3-10.64 4.16-16.71 1.07-5.73 1.87-11.15 2.46-16.16zm-4.9 6.43a22 22 0 00-1.75 3.46c-.83 1.78-1.5 3.26-2.21 5a43.51 43.51 0 00-2.47 8.33c-.44 2.39-1.11 7.16-.62 7.27 1.1.2 7.71-23.8 7.05-24.06zm.61-114.96a1.12 1.12 0 00.36.39l3.82 2.62a19.77 19.77 0 016.32 7.15l2 3.86a6.83 6.83 0 01.36 5.51l-3.15 8.62a1.24 1.24 0 00.35 1.37l2.15 1.84a1.22 1.22 0 001.33.18 1.19 1.19 0 00.33-.22l3.9-2.63a1.92 1.92 0 012.69.56 11.48 11.48 0 011.57 5.08.41.41 0 00.77.15c1.44-2.79 2.83-6.34 2.8-9a1.41 1.41 0 00-1.41-1.37 3.1 3.1 0 01-6.19.14c0-.44-.06-1.08-.08-1.87v-2.7a14.47 14.47 0 00-.2-2.39 10.93 10.93 0 00-.52-2.23c-.13-.36-.27-.7-.43-1L133.34 19a1.07 1.07 0 00-.27-.37l-5.2-4.89a.68.68 0 01.86-1l3.94 2.83a.56.56 0 00.89-.4l.22-2.37a4.8 4.8 0 00-2.53-4.8L117.76.9a8 8 0 00-3.13-.9 1.25 1.25 0 00-1.15 1.88zm-19 10.56l-6.34 2.72a2.44 2.44 0 01-2.72-.55l-1.06-1.1a1.2 1.2 0 00-.87-.38h-7.43a1.2 1.2 0 00-.87.38l-1.06 1.1a2.44 2.44 0 01-2.72.55l-6.34-2.72a.8.8 0 01-.11-1.42L77.85 22a5.4 5.4 0 012.79-.79h14.72a5.41 5.41 0 012.8.79l4.65 2.88a.8.8 0 01-.1 1.46zM88 16a2.52 2.52 0 002.51-2.51V9.88a2.52 2.52 0 10-5 0v3.57A2.52 2.52 0 0088 16z"/></g></g></svg>