<svg xmlns="http://www.w3.org/2000/svg" viewBox="0 0 184.84 226.37"><defs><style>.cls-1{fill:#2b2828}</style></defs><g id="Слой_2" data-name="Слой 2"><g id="Логотипы"><path class="cls-1" d="M16.44 188.73v13a1.57 1.57 0 01-1.57 1.57 1.56 1.56 0 01-1.56-1.57v-6.91l-3.11 6.73a.79.79 0 01-.72.46H7a.79.79 0 01-.72-.46l-3.1-6.76v6.94a1.57 1.57 0 01-1.57 1.57A1.57 1.57 0 010 201.74v-13a1.49 1.49 0 011.49-1.49h.45a1.9 1.9 0 011.74 1.12l4.56 9.91 4.55-9.91a1.92 1.92 0 011.75-1.12H15a1.49 1.49 0 011.44 1.48zm25.88 14.58a1.48 1.48 0 01-1.37-.92l-.15-.39a7.89 7.89 0 01-4.36 1.29 7.72 7.72 0 01-4.33-1.29l-.15.37a1.48 1.48 0 01-1.37.92 1.47 1.47 0 01-1.36-2l5.27-13.13a1.48 1.48 0 011.37-.92H37a1.48 1.48 0 011.37.92l5.27 13.13a1.47 1.47 0 01-1.32 2.02zm-2.65-4.09l-2.28-5.65-1-2.37-3.2 8a5 5 0 003.2 1.14 5.08 5.08 0 003.28-1.12zm29.84 1.51a8.08 8.08 0 110-11 1.5 1.5 0 01-.26 2.25 1.48 1.48 0 01-1.92-.21 5.12 5.12 0 00-4.73-1.53 5.08 5.08 0 001 10.05 5 5 0 003.72-1.64 1.45 1.45 0 011.83-.25 1.49 1.49 0 01.36 2.33zm25.65-11.91v12.91a1.59 1.59 0 01-1.59 1.58H92V202h-7.42v1.29H83a1.58 1.58 0 01-1.58-1.58v-12.89a1.58 1.58 0 011.58-1.58 1.58 1.58 0 011.58 1.58v10H92v-10a1.58 1.58 0 011.58-1.58 1.59 1.59 0 011.58 1.58zm12.13 14.49V190.4a3.17 3.17 0 013.16-3.16v12.91a3.16 3.16 0 01-3.16 3.16zm26.13-16.07a1.58 1.58 0 011.58 1.58v12.58a1.9 1.9 0 01-1.91 1.91h-1.25v-1.44l-7-9.34v10.78h-1.58a1.58 1.58 0 01-1.58-1.58v-12.91a1.58 1.58 0 011.58-1.58h.79a1.58 1.58 0 011.27.63l6.5 8.71v-7.76a1.58 1.58 0 011.58-1.58zm51.42 14.94v1.13h-11.1v-16.07h8.81a1.76 1.76 0 011.76 1.76v1.4h-7.4v3.29h4.7v3.17h-4.7v3.29h5.9a2 2 0 012.03 2.03zm-24.33 1.13a1.45 1.45 0 01-1.36-.92L159 202a7.91 7.91 0 01-4.36 1.29 7.75 7.75 0 01-4.34-1.29l-.15.37a1.45 1.45 0 01-1.36.92 1.48 1.48 0 01-1.37-2l5.28-13.13a1.45 1.45 0 011.36-.92h1.18a1.45 1.45 0 011.36.92l5.28 13.13a1.48 1.48 0 01-1.37 2.02zm-2.65-4.09l-2.27-5.65-1-2.37-3.2 8a5 5 0 003.2 1.14 5.07 5.07 0 003.27-1.12z"/><path d="M83.94 224.09a2.28 2.28 0 01-2.28 2.28h-5.59v-9.31a2.28 2.28 0 012.28-2.28v9.31zm13.11-1.35a3.64 3.64 0 01-3.63 3.63h-3.25a1.38 1.38 0 01-1.39-1.37v-10.22h3.06a3.47 3.47 0 013.08 1.77 3.09 3.09 0 010 2.91 3.59 3.59 0 012.13 3.28zm-6-3.64h1a1.09 1.09 0 100-2.17h-1v2.17zm3.81 3.64a1.47 1.47 0 00-1.46-1.47h-2.33v2.33a.6.6 0 00.6.6h1.75a1.46 1.46 0 001.46-1.46zm-26.12 3.63a1.05 1.05 0 01-1-.66l-.11-.27a5.71 5.71 0 01-3.15.93 5.59 5.59 0 01-3.13-.93l-.1.27a1.08 1.08 0 01-1 .66 1.06 1.06 0 01-1-1.45l3.8-9.48a1.06 1.06 0 011-.66h.85a1.05 1.05 0 011 .66l3.8 9.48a1.06 1.06 0 01-.96 1.45zm-1.91-3l-1.64-4.08-.69-1.7-2.31 5.78a3.69 3.69 0 004.64 0zm44.63 3a1.05 1.05 0 01-1-.66l-.11-.27a5.71 5.71 0 01-3.15.93 5.59 5.59 0 01-3.13-.93l-.1.27a1.08 1.08 0 01-1 .66 1.06 1.06 0 01-1-1.45l3.8-9.48a1.06 1.06 0 011-.66h.85a1.05 1.05 0 011 .66l3.8 9.48a1.06 1.06 0 01-.96 1.45zm-1.91-3l-1.64-4.08-.69-1.7-2.3 5.78a3.59 3.59 0 002.3.82 3.67 3.67 0 002.33-.77zm16.07 2.18v.82h-8v-11.59H124a1.27 1.27 0 011.27 1.27v1h-5.37v2.37h3.39v2.29h-3.39v2.37h4.25a1.46 1.46 0 011.47 1.47z" fill="#999"/><path class="cls-1" d="M100.58 53.14a6.23 6.23 0 01.57-3.19 5.76 5.76 0 01.63-1c1.23-1.52 3.61-1.89 5.44-2a33.47 33.47 0 018.68 1c.69.14 1.38.3 2.08.47l1 .26c.68.18 1.37.37 2 .57l.71.22q.66.19 1.32.42l.56.19.2.07.25.09c.72.26 1.42.51 2.12.8l.68.3.87.42.5.28c1.27.72 2.5 1.54 3.69 2.38.25.18.8.58.72.75s-1.21-.12-1.41-.16a27.76 27.76 0 00-5-.45h-.56a44.68 44.68 0 00-8.34 0c-1.53.2-3.29.56-4.35 1.76-.17.2-.68.76-.52 1.06s.54.19.7.19a21.81 21.81 0 015.53.87 12.38 12.38 0 012.33.89 14.51 14.51 0 015.06 3.67c.52.59.6.8.53.93l-.06.07c-.19.18-.69.07-1 0h-.14l-.45-.08h.08c-1.36-.22-3.9-.46-8.26-.71l-2.56.05a2.92 2.92 0 00-1.49.24l-.1.08a2.87 2.87 0 00-.39.46c-.11.2-.19.41-.31.62-1 1.87-4.2 2-4.39 2a6.08 6.08 0 01-4.11-1.42c-1.19-1-1.49-2.34-2.09-4.91a36.69 36.69 0 01-.72-7.19zM25.89 88.75l1.65 1.88a.57.57 0 01.14.38v4.4A2.14 2.14 0 0031 97.17l4.56-3.12a10.79 10.79 0 012.72-1.35l1.52-.5a.71.71 0 01.92.67v.44a.7.7 0 01-.56.68 3.06 3.06 0 00-1.6.9l-12.14 13.19a1 1 0 01-1.72-.56 70.51 70.51 0 01.18-18.47.58.58 0 011.01-.3z"/><circle class="cls-1" cx="37.61" cy="39.88" r="1.89"/><path class="cls-1" d="M45.15 8.54v6.9a12.05 12.05 0 01-1.32 5.5l-2.35 4.56a24.71 24.71 0 00-2.74 11.31V37a3 3 0 00-1.13-.21 3.12 3.12 0 00-2.2.9h-.28A2.44 2.44 0 0132.82 36l-1.12-3.32a6.45 6.45 0 01.47-5.12L43 8a1.16 1.16 0 012.15.54zM13.14 76.29a5.51 5.51 0 012.54-4.64l.08-.09-9.17-11.8a1.21 1.21 0 00-2.17.79l.51 14a10.9 10.9 0 00.7 3.5 11.12 11.12 0 001.77 3.1 12.75 12.75 0 012.83 7 48.4 48.4 0 002.58 13.07.5.5 0 001-.2 67.65 67.65 0 012-20.12 5.51 5.51 0 01-2.67-4.61zm32.51 7.91l.3-1.12a1.29 1.29 0 00-.67-1.49l-4.39-2.25a.38.38 0 00-.51.52 4.38 4.38 0 01.46 2 1.27 1.27 0 010 .2 1.27 1.27 0 00.49 1.06l2.26 1.81a1.3 1.3 0 002.06-.73zm-1.9 5.02l.3-.47a1.31 1.31 0 00-.33-1.75L41 85a1.29 1.29 0 00-1.6.07 1.31 1.31 0 00-.3 1.61l.22.41a1.27 1.27 0 00.27.34l2.26 2a1.3 1.3 0 001.9-.21zM38 87.79a1.31 1.31 0 00-1.79 0l-.49.44a1.3 1.3 0 00-.05 1.88l1.14 1.14a1.32 1.32 0 001.27.34l.73-.21a1.29 1.29 0 00.57-2.17zm-5.37 2.44h-1.9a1.3 1.3 0 00-1.3 1.31v3.3a.78.78 0 001.16.67l3.55-2.05a1.3 1.3 0 00.22-2.1l-.9-.8a1.23 1.23 0 00-.83-.33zm3.55-34.08l-1.28 2.64a11.56 11.56 0 00-1.13 4.83v1.24a9.59 9.59 0 001.84 5.75l4.11 5.66a.41.41 0 00.14.12l5.81 2.72a.38.38 0 00.54-.36L46 72.46a.33.33 0 00-.09-.23l-2.2-2.62a3.19 3.19 0 01.22 1.16 3.08 3.08 0 01-3.08 3.08c-2.42 0-4.19-2.8-2.26-5.33l.1-.1a3.63 3.63 0 012.56-.71.38.38 0 00.33-.63l-.3-.36a.21.21 0 01-.06-.1l-4.34-10.45a.38.38 0 00-.7-.02zm8.11-8.08A33.76 33.76 0 0141.21 46a1.1 1.1 0 00-1.7.28l-.15.29a7.87 7.87 0 00-1 3.55L38.19 54a.45.45 0 000 .16L40.65 60a.38.38 0 00.7 0 3.09 3.09 0 012.85-1.91 3 3 0 01.67.08l-.48-.7a.44.44 0 01-.06-.16 74.75 74.75 0 01.79-7.47 1.82 1.82 0 00-.83-1.77zm-1.23 17.72l2.68 3.36a.38.38 0 00.68-.21l.28-5a.38.38 0 00-.62-.3 3.07 3.07 0 01-1.88.64A3.16 3.16 0 0143 64a.38.38 0 00-.49.5l.49 1.2zM26.51 49.64a.38.38 0 00.63.13 3.08 3.08 0 012.19-.91 3.14 3.14 0 012.49 5l-.07.09A3.34 3.34 0 0129 55a.38.38 0 00-.41.51l2.76 7.9a.38.38 0 00.74-.13A11.41 11.41 0 0133.36 58l1.46-2.81a4.69 4.69 0 00.11-4.12l-2.16-4.73a12.55 12.55 0 01-.93-7.57v-.13a.34.34 0 000-.2l-2.49-7.28a1 1 0 00-1.94 0l-1.89 5a15.07 15.07 0 00-.12 10.3z"/><path class="cls-1" d="M18 70.37h.05l.42.35h.15a5.52 5.52 0 015.48 4.84l.07.06 8.12 4.06a.37.37 0 00.49-.14v-.06a.38.38 0 000-.45l-10.67-12.2a.36.36 0 00-.18-.12 3.08 3.08 0 01-2.21-2.95 3 3 0 01.19-1 .5.5 0 000-.12V48.88a.38.38 0 01.74-.13l.26.71a.28.28 0 010 .13v11a.38.38 0 00.55.34 3.08 3.08 0 012.82 5.48.38.38 0 00-.11.59l9.72 11a.38.38 0 00.47.06 4.34 4.34 0 014.48.15v-.13l-3.56-4.68a39.12 39.12 0 01-5.6-10.27l-7.45-20.85a.56.56 0 00-.05-.08l-5.78-8.27a1.36 1.36 0 00-2.47.78v27.06A9.88 9.88 0 0016.11 68zm38.6-43.16l3.13-1.79A.7.7 0 0060 25l2.21-7.51a.66.66 0 00-1-.75L54.57 21a14 14 0 00-4.9 5.27l-1.79 3.37a6.26 6.26 0 00-.29 5.23l2.6 6.62a.67.67 0 001.21.08l.47-.86a6.49 6.49 0 00.81-3.13v-1.89a.63.63 0 01.09-.33l2.13-3.64a4 4 0 00.55-2.25v-.13a2.35 2.35 0 011.15-2.13zM32.23 82.26c0-.14-.09-.26-.54-.46l-7.5-3.42a.38.38 0 00-.5.18 4.69 4.69 0 01-.44.79 2.18 2.18 0 00.17 2.65l5.83 6.65a.36.36 0 00.26.13l3.28.23a.37.37 0 00.28-.1l2.52-2.26a.38.38 0 00-.16-.65 4.33 4.33 0 01-3.2-3.74zm-1.49-28.77l.1-.1a2.08 2.08 0 00-1.51-3.48 2 2 0 00-2 2 2 2 0 00.47 1.29 2.12 2.12 0 002.94.29z"/><path class="cls-1" d="M24.34 62.34a.47.47 0 00-.1-.1 2.09 2.09 0 00-3.28.69 2.34 2.34 0 00.5 2.51.47.47 0 00.19.12 3 3 0 001.44.2 2.08 2.08 0 001.25-3.42zm21.29-2.68a2.09 2.09 0 00-3 2.94.47.47 0 00.1.1 2.09 2.09 0 003-3 .28.28 0 00-.1-.04zm-3.36 9.58a2.1 2.1 0 00-2.94 3l.1.09a2.09 2.09 0 002.94-3 .47.47 0 00-.1-.09zM38.3 79.59a2.85 2.85 0 00-1.78-.59A2.86 2.86 0 0034 80.46a1 1 0 000 .1 2.77 2.77 0 00-.29 1.25 2.93 2.93 0 00.17 1 2.84 2.84 0 001.5 1.6 2.81 2.81 0 001.16.25 2.77 2.77 0 001.72-.58 2.7 2.7 0 00.58-.59 2.84 2.84 0 00-.52-3.88zm-16.94-5.91a.38.38 0 00-.09-.09C17.42 70.72 13.09 75 16 78.9a.76.76 0 00.09.09c3.83 2.85 8.13-1.45 5.27-5.31zm46.58-50.19L58.29 28a1.6 1.6 0 00-.89 1.6 4.87 4.87 0 01-.79 3.21l-1.28 1.92a.41.41 0 00.52.6l8-3.75a.37.37 0 00.18-.17l4.4-7.37a.42.42 0 00-.49-.55z"/><path class="cls-1" d="M80.07 7.54l-12.64 7.52a.35.35 0 00-.13.14l-4.76 8.47a.39.39 0 00.51.53l6.4-3.35a.38.38 0 01.56.34v.74a.38.38 0 00.57.33l6.82-3.88a1.61 1.61 0 00.81-1.4v-1.76a.77.77 0 00-1.16-.67l-5.3 3a.38.38 0 01-.57-.33v-1.75a.39.39 0 01.19-.33l7.3-4.14a1 1 0 011.54.89v5.67a1.93 1.93 0 01-.9 1.63l-6.78 4.24a.37.37 0 00-.18.33v2a.38.38 0 00.58.32L81.12 21a1.94 1.94 0 00.9-1.64V8.65a1.29 1.29 0 00-1.95-1.11zM20.73 101a63.4 63.4 0 011.63-14.28 4.24 4.24 0 00-.94-3.74l-.91-1a1.47 1.47 0 00-1.24-.51 1.51 1.51 0 00-1.38 1.2 68.12 68.12 0 0033.78 72.65A63 63 0 0120.73 101z"/><path class="cls-1" d="M27 118a.79.79 0 001.46.18q2.2-4.11 4.86-8.45c2.55-4.15 5.13-7.95 7.66-11.41a.84.84 0 00.16-.51v-1.75a.52.52 0 00-.9-.36c-2.31 2.35-4.7 5-7.11 7.84-2.05 2.45-3.91 4.86-5.6 7.18a6.19 6.19 0 00-1 4.88q.13 1.2.47 2.4zm3.49 10.05A.79.79 0 0032 128c1.31-4 2.86-8.34 4.7-12.81 1.56-3.77 3.17-7.3 4.79-10.58a1.37 1.37 0 00.13-.77c-.1-.71-.17-1.43-.23-2.15a.45.45 0 00-.83-.21 174.16 174.16 0 00-6.48 11.24q-2.55 4.84-4.6 9.4a4.2 4.2 0 00-.08 3.3q.49 1.31 1.09 2.63zm4.88 8.64a.79.79 0 001.42-.31c.71-4.25 1.64-8.79 2.84-13.55 1.09-4.34 2.29-8.41 3.54-12.19a1.2 1.2 0 00-.06-.93 15.4 15.4 0 01-.74-1.93.42.42 0 00-.79 0c-1.29 3.16-2.56 6.53-3.76 10.1-1.61 4.76-2.91 9.3-4 13.56a5.07 5.07 0 00.65 4c.31.38.6.82.9 1.25zm6.29 7.71a.79.79 0 001.35-.53c.12-4.5.43-9.36 1-14.51.61-5.38 1.42-10.38 2.35-15a.79.79 0 00-.29-.78 8.66 8.66 0 01-.93-.85l-.38-.41a.51.51 0 00-.87.22c-1 3.92-2 8.13-2.8 12.63-.92 5-1.56 9.81-2 14.25a4.46 4.46 0 001.12 3.42c.49.55.96 1.06 1.45 1.56zm8.2-27.54a.91.91 0 00-.31-.79l-1.34-1.15a.6.6 0 00-1 .36c-.69 4.92-1.24 10.31-1.5 16.12-.24 5.14-.24 10-.07 14.46a5.28 5.28 0 002 3.94l.57.44a.79.79 0 001.27-.68c-.38-4.81-.6-10-.56-15.59.08-6.15.41-11.88.94-17.11zm4.93 22.05c-.86-6.47-1.31-12.5-1.49-18L51.64 118a.51.51 0 00-1 .24c-.2 5.37-.18 11.25.19 17.57.32 5.47.87 10.59 1.55 15.32a4.62 4.62 0 002.29 3.38c.84.49 1.7.95 2.58 1.39a.34.34 0 00.49-.38c-1.12-5.04-2.16-10.6-2.95-16.61zm9.83 16.43c-1.41-4-2.78-8.4-4-13.07-1.3-4.87-2.33-9.52-3.14-13.9-.71-1.33-1.51-2.77-2.34-4.26a.34.34 0 00-.64.2c.54 5 1.34 10.43 2.48 16.16 1.22 6.07 2.66 11.66 4.17 16.71a1.24 1.24 0 00.74.81c.4.17.81.32 1.22.48a1.28 1.28 0 001.72-1.3q-.12-.93-.21-1.83zm-3.97-22.01c-.47.15 4.08 17.19 4.61 17.07.31-.07-.55-6.29-2.77-12.6-.37-1.05-1.63-4.54-1.84-4.47zM36.67 50.11A11.48 11.48 0 0138.24 45a1.92 1.92 0 012.69-.56l3.9 2.63a1 1 0 00.32.22 1.22 1.22 0 001.33-.18l2.15-1.84a1.24 1.24 0 00.37-1.34l-3.15-8.62a6.83 6.83 0 01.36-5.51l2-3.86a19.77 19.77 0 016.32-7.15l3.82-2.62a1.12 1.12 0 00.36-.39l8.23-13.9A1.25 1.25 0 0065.79 0a8 8 0 00-3.13.9L49.17 8a4.8 4.8 0 00-2.53 4.68l.22 2.37a.56.56 0 00.89.4l3.94-2.83a.68.68 0 01.86 1l-5.2 4.89a1.25 1.25 0 00-.28.37l-5.13 10.88c-.16.35-.3.69-.43 1a10.31 10.31 0 00-.51 2.29 14.47 14.47 0 00-.2 2.39v2.7c0 .79-.05 1.43-.08 1.87a3.1 3.1 0 01-6.19-.14 1.41 1.41 0 00-1.41 1.37c0 2.68 1.36 6.23 2.8 9a.41.41 0 00.75-.13zM159 88.75l-1.65 1.88a.54.54 0 00-.15.38v4.4a2.13 2.13 0 01-3.34 1.76l-4.57-3.12a10.57 10.57 0 00-2.71-1.35l-1.58-.5a.7.7 0 00-.92.67v.44a.69.69 0 00.56.68 3 3 0 011.59.9l12.17 13.19a1 1 0 001.73-.56 71 71 0 00-.13-18.47.57.57 0 00-1-.3z"/><circle class="cls-1" cx="147.23" cy="39.88" r="1.89"/><path class="cls-1" d="M139.68 8.54v6.9a12.06 12.06 0 001.33 5.5l2.35 4.56a24.7 24.7 0 012.73 11.31V37a3.14 3.14 0 013.33.69h.28A2.43 2.43 0 00152 36l1.12-3.34a6.4 6.4 0 00-.46-5.12L141.87 8a1.17 1.17 0 00-2.19.54zm32.01 67.75a5.5 5.5 0 00-2.53-4.64l-.08-.09 9.18-11.79a1.21 1.21 0 012.17.79l-.51 14a10.9 10.9 0 01-.7 3.5 11.15 11.15 0 01-1.78 3.1 12.74 12.74 0 00-2.82 7 48.79 48.79 0 01-2.62 13.13.5.5 0 01-1-.2 67.33 67.33 0 00-2-20.12 5.51 5.51 0 002.69-4.68zm-32.51 7.91l-.29-1.12a1.29 1.29 0 01.66-1.49l4.4-2.25a.38.38 0 01.53.22.35.35 0 010 .3 4.38 4.38 0 00-.46 2V82a1.26 1.26 0 01-.48 1.06l-2.27 1.81a1.3 1.3 0 01-2.09-.67zm1.91 5.02l-.3-.47a1.31 1.31 0 01.33-1.77l2.76-2a1.31 1.31 0 011.61.07 1.29 1.29 0 01.3 1.61l-.22.41a1.27 1.27 0 01-.27.34l-2.25 2a1.3 1.3 0 01-1.96-.19zm5.73-1.43a1.31 1.31 0 011.79 0l.48.44a1.29 1.29 0 010 1.88l-1.09 1.1a1.33 1.33 0 01-1.27.34l-.74-.21a1.29 1.29 0 01-.56-2.17zm5.39 2.44h1.9a1.3 1.3 0 011.3 1.31v3.3a.78.78 0 01-1.16.67l-3.56-2.05a1.3 1.3 0 01-.22-2.1l.9-.8a1.28 1.28 0 01.84-.33zm-3.55-34.08l1.27 2.64a11.26 11.26 0 011.13 4.83v1.24a9.66 9.66 0 01-1.84 5.75l-4.11 5.66a.44.44 0 01-.15.12l-5.8 2.72a.38.38 0 01-.54-.36l.2-6.29a.46.46 0 01.09-.23l2.21-2.62a3 3 0 00-.23 1.16 3.08 3.08 0 003.11 3.08c2.42 0 4.18-2.8 2.26-5.33l-.1-.1a3.65 3.65 0 00-2.57-.71.38.38 0 01-.32-.63l.3-.36a.33.33 0 00.06-.1L148 56.17a.38.38 0 01.66-.02zm-8.12-8.08a33.76 33.76 0 003.08-2.07 1.1 1.1 0 011.7.28l.16.29a8 8 0 011 3.55l.15 3.86a.3.3 0 010 .16L144.19 60a.38.38 0 01-.7 0 3.09 3.09 0 00-2.85-1.91 2.93 2.93 0 00-.67.08l.48-.7a.44.44 0 00.06-.16 74.75 74.75 0 00-.79-7.47 1.81 1.81 0 01.82-1.77zm1.24 17.72l-2.68 3.36a.38.38 0 01-.68-.21l-.28-5a.37.37 0 01.61-.3 3.08 3.08 0 003.07.4.38.38 0 01.5.5l-.49 1.18a.26.26 0 01-.05.07zm16.55-16.15a.38.38 0 01-.63.13 3.1 3.1 0 00-2.19-.91 3.14 3.14 0 00-2.5 5l.08.09a3.33 3.33 0 002.77 1 .39.39 0 01.41.51l-2.77 7.9a.38.38 0 01-.74-.13 11.4 11.4 0 00-1.28-5.23L150 55.22a4.73 4.73 0 01-.1-4.12l2.16-4.73a12.62 12.62 0 00.94-7.57v-.13a.44.44 0 010-.2l2.48-7.28a1 1 0 011.95 0l1.89 5a15.07 15.07 0 01.12 10.3z"/><path class="cls-1" d="M166.79 70.37l-.41.35h-.16a5.51 5.51 0 00-5.47 4.84l-.07.06-8.12 4.06a.38.38 0 01-.5-.14v-.06a.38.38 0 010-.45l10.71-12.25a.36.36 0 01.18-.12 3.07 3.07 0 002.2-2.95 3 3 0 00-.18-1 .5.5 0 010-.12V48.88a.38.38 0 00-.74-.13l-.27.71a.51.51 0 000 .13v11a.38.38 0 01-.55.34 3.08 3.08 0 00-2.82 5.48.38.38 0 01.11.59l-9.8 11a.38.38 0 01-.47.06 4.34 4.34 0 00-4.48.15v-.13l3.56-4.68a39.12 39.12 0 005.6-10.27l7.55-20.83a.22.22 0 010-.08l5.78-8.27a1.36 1.36 0 012.47.78v27.04a9.88 9.88 0 01-2.18 6.23zm-38.56-43.16l-3.12-1.79a.7.7 0 01-.31-.39l-2.22-7.51a.67.67 0 011-.75l6.69 4.23a14.1 14.1 0 014.9 5.27l1.83 3.36a6.26 6.26 0 01.3 5.23l-2.61 6.62a.66.66 0 01-1.2.08l-1.2-2.17a.73.73 0 01-.08-.33v-3.37a.63.63 0 00-.09-.33l-2.13-3.64a4 4 0 01-.55-2.25v-.13a2.31 2.31 0 00-1.21-2.13zm24.38 55.05c0-.14.09-.26.54-.46l7.49-3.42a.37.37 0 01.5.18 5.56 5.56 0 00.45.79 2.18 2.18 0 01-.17 2.63l-5.83 6.65a.38.38 0 01-.26.13l-3.28.23a.37.37 0 01-.28-.1l-2.52-2.26a.38.38 0 01.16-.65 4.33 4.33 0 003.2-3.72zm1.49-28.77l-.1-.1a2.08 2.08 0 011.51-3.48 2 2 0 012 2 2 2 0 01-.46 1.29 2.12 2.12 0 01-2.95.29z"/><path class="cls-1" d="M160.5 62.34a.47.47 0 01.1-.1 2.09 2.09 0 013.28.69 2.32 2.32 0 01-.51 2.51.37.37 0 01-.19.12 3 3 0 01-1.44.2 2.08 2.08 0 01-1.24-3.42zm-21.3-2.68a2.09 2.09 0 013 2.94.43.43 0 01-.09.1 2.09 2.09 0 01-3-3 .38.38 0 01.09-.04zm3.37 9.58a2.1 2.1 0 012.94 3l-.1.09a2.09 2.09 0 01-2.94-3 .47.47 0 01.1-.09zm3.97 10.35a2.82 2.82 0 011.77-.62 2.78 2.78 0 011.38.36 2.83 2.83 0 011.12 1.13.93.93 0 01.05.1 2.77 2.77 0 01.29 1.25 2.7 2.7 0 01-.18 1 2.82 2.82 0 01-1.49 1.6 2.85 2.85 0 01-1.17.25 2.81 2.81 0 01-1.72-.58 2.65 2.65 0 01-.57-.59 2.76 2.76 0 01-.55-1.66 2.84 2.84 0 011.07-2.24zm16.93-5.91l.09-.09c3.86-2.87 8.18 1.45 5.31 5.31l-.09.09c-3.86 2.85-8.16-1.45-5.31-5.31zM116.9 23.49l9.64 4.51a1.59 1.59 0 01.9 1.6 4.87 4.87 0 00.79 3.21l1.28 1.92a.41.41 0 01-.52.6l-8-3.75a.44.44 0 01-.19-.17l-4.39-7.37a.42.42 0 01.49-.55z"/><path class="cls-1" d="M104.77 7.54l12.63 7.52a.32.32 0 01.14.14l4.76 8.47a.39.39 0 01-.51.53l-6.41-3.35a.38.38 0 00-.55.34v.74a.38.38 0 01-.58.33l-6.81-3.88a1.61 1.61 0 01-.82-1.4v-1.76a.78.78 0 011.16-.67l5.31 3a.38.38 0 00.57-.33v-1.75a.4.4 0 00-.2-.33L106.17 11a1 1 0 00-1.55.89v5.67a1.93 1.93 0 00.91 1.63l6.78 4.24a.39.39 0 01.18.33v2a.38.38 0 01-.58.32L103.72 21a1.94 1.94 0 01-.9-1.64V8.65a1.29 1.29 0 011.95-1.11zM164.1 101a63.4 63.4 0 00-1.62-14.28 4.23 4.23 0 01.93-3.74l.91-1a1.52 1.52 0 012.63.69 68.21 68.21 0 01-33.78 72.65A63 63 0 00164.1 101z"/><path class="cls-1" d="M157.87 118a.78.78 0 01-1.45.18q-2.21-4.11-4.87-8.45c-2.55-4.15-5.13-7.95-7.65-11.41a.78.78 0 01-.16-.51v-1.75a.52.52 0 01.89-.36c2.31 2.35 4.7 5 7.11 7.84 2.05 2.45 3.92 4.86 5.6 7.18a6.16 6.16 0 011.06 4.88c-.15.79-.33 1.59-.53 2.4zm-3.52 10.05a.78.78 0 01-1.46-.09c-1.31-4-2.86-8.34-4.7-12.81-1.56-3.77-3.17-7.3-4.79-10.58a1.37 1.37 0 01-.13-.77c.09-.71.16-1.43.22-2.15a.45.45 0 01.83-.21c2.16 3.44 4.35 7.19 6.49 11.24 1.7 3.23 3.22 6.37 4.59 9.4a4.2 4.2 0 01.09 3.3q-.49 1.35-1.14 2.67zm-4.88 8.64a.78.78 0 01-1.42-.31c-.72-4.25-1.64-8.79-2.84-13.55-1.09-4.34-2.3-8.41-3.55-12.19a1.25 1.25 0 01.07-.93 14 14 0 00.73-1.93.43.43 0 01.8 0c1.29 3.16 2.56 6.53 3.76 10.1 1.6 4.76 2.91 9.3 4 13.56a5.07 5.07 0 01-.64 4zm-6.29 7.71a.79.79 0 01-1.35-.53c-.13-4.5-.44-9.36-1-14.51-.61-5.38-1.43-10.38-2.35-15a.79.79 0 01.29-.78 8.64 8.64 0 00.92-.85l.39-.41a.51.51 0 01.86.22c1 3.92 2 8.13 2.8 12.63.92 5 1.56 9.81 2 14.25a4.49 4.49 0 01-1.12 3.42 44.3 44.3 0 01-1.44 1.56zM135 116.86a.91.91 0 01.31-.79l1.34-1.15a.59.59 0 011 .36c.7 4.92 1.24 10.31 1.51 16.12.24 5.14.23 10 .06 14.46a5.24 5.24 0 01-2 3.94l-.57.44a.78.78 0 01-1.26-.68c.38-4.81.6-10 .56-15.59-.09-6.15-.44-11.88-.95-17.11zm-4.95 22.05c.86-6.47 1.31-12.5 1.49-18l1.65-2.87a.51.51 0 011 .24c.2 5.37.19 11.25-.18 17.57-.32 5.47-.87 10.59-1.55 15.32a4.65 4.65 0 01-2.29 3.38c-.85.49-1.71.95-2.58 1.39a.34.34 0 01-.49-.38c1.12-5.08 2.15-10.64 2.95-16.65zm-9.83 16.43c1.41-4 2.78-8.4 4-13.07 1.31-4.87 2.33-9.52 3.15-13.9.71-1.33 1.5-2.77 2.34-4.26a.34.34 0 01.64.2c-.55 5-1.34 10.43-2.49 16.16-1.21 6.07-2.65 11.66-4.17 16.71a1.26 1.26 0 01-.73.81l-1.22.48a1.28 1.28 0 01-1.72-1.3q.11-.93.2-1.83zm5.3-24.6c.66.21-6 24.3-7 24-.49-.11.17-4.88.62-7.27a42.09 42.09 0 012.47-8.33c.71-1.73 1.37-3.21 2.21-5a22 22 0 011.7-3.4zm22.65-80.63A11.48 11.48 0 00146.6 45a1.93 1.93 0 00-2.7-.56L140 47.1a1.19 1.19 0 01-.33.22 1.21 1.21 0 01-1.33-.18l-2.14-1.84a1.26 1.26 0 01-.36-1.37l3.16-8.62a6.83 6.83 0 00-.36-5.51l-2-3.86a19.77 19.77 0 00-6.32-7.15l-3.82-2.62a1.26 1.26 0 01-.37-.39l-8.23-13.9A1.25 1.25 0 01119 0a8 8 0 013.14.9L135.66 8a4.76 4.76 0 012.53 4.68l-.19 2.39a.56.56 0 01-.88.4l-3.94-2.83a.68.68 0 00-.86 1l5.2 4.89a1.22 1.22 0 01.27.37l5.14 10.81a10.44 10.44 0 01.42 1 11.63 11.63 0 01.52 2.23 15.66 15.66 0 01.2 2.39v2.7c0 .79.06 1.43.09 1.87a3.1 3.1 0 006.19-.14 1.4 1.4 0 011.4 1.37c0 2.68-1.35 6.23-2.79 9a.41.41 0 01-.79-.02zm-15.49 5.12c-.12.27-1.21-.12-1.41-.16a27.76 27.76 0 00-5-.45h-.56a44.68 44.68 0 00-8.34 0c-1.53.2-3.29.56-4.35 1.76-.17.2-.68.76-.52 1.06s.54.19.7.19a21.81 21.81 0 015.53.87 12.38 12.38 0 012.33.89 14.51 14.51 0 015.06 3.67c.52.59.6.8.53.93l-.06.07c-.19.18-.69.07-1 0h-.14l-.45-.08c-.79-.15-1.58-.31-2.39-.43a39.28 39.28 0 00-5.74-.28h-.13l-2.56.05a2.92 2.92 0 00-1.49.24l-.1.08a1.3 1.3 0 00-.39.46c-.11.2-.19.41-.31.62-1 1.87-4.2 2-4.39 2a6.08 6.08 0 01-4.11-1.42c-1.19-1-1.49-2.34-2.09-4.91a36.69 36.69 0 01-.64-7.26 6.23 6.23 0 01.57-3.19 5.76 5.76 0 01.63-1c1.23-1.52 3.61-1.89 5.44-2a33.47 33.47 0 018.68 1c.69.14 1.38.3 2.08.47l1 .26c.68.18 1.37.37 2 .57l.71.22q.66.19 1.32.42l.56.19.2.07.25.09c.72.26 1.42.51 2.12.8l.68.3.87.42.5.28c1.27.72 2.5 1.54 3.69 2.38.25.25.8.65.72.82z"/><path class="cls-1" d="M142.83 91.17c-.27-.12-.47.09-1.21 0a2.25 2.25 0 01-1.35-.44c-.39-.34-.27-.65-.76-1.2a4 4 0 00-.64-.54c-1-.87.22-2.7-.44-5.13-.09-.34-.27-.87-.44-1.74-.12-.62-.17-1.1-.21-1.37a42.27 42.27 0 01-.4-4.26c-.14-2.69.14-3.08.11-6-.05-3.72-.5-4.47-.25-7.59a19.34 19.34 0 01.46-3.11c.48-2.11.85-2.08 1.09-3.49a11.76 11.76 0 00-.56-5.4 16.09 16.09 0 00-1-2.65 10.3 10.3 0 00-.86-1.44c-.62-.84-2-2.18-3.41-3.89a3.1 3.1 0 01-.9-1.65 9.36 9.36 0 00-.09-1.29 1.59 1.59 0 00-.32-.88 2 2 0 00-.77-.46c-.26-.1-.49-.22-.74-.33-1.93-.91-3.94-1.79-5.91-2.68-1-.44-2-.88-2.92-1.3a3.47 3.47 0 01-1-.9c-.25-.35-.57-.89-.85-1.32l-1.76-2.73-.95-1.38-.44-.68a1.64 1.64 0 00-.59-.54 1.53 1.53 0 00-.81-.16 1.51 1.51 0 00-1.3 1 1.29 1.29 0 00-.1.42v.64a.77.77 0 01-.39.64.75.75 0 01-.74 0l-1.45-.74a8.9 8.9 0 00-.84-.39A3.13 3.13 0 00109 28a3.17 3.17 0 00-1.1.18l-.26.1-.18.08-.38.17-3 1.3-3 1.32-.37.16-.18.08-.13.05a1.78 1.78 0 01-.52.11 1.91 1.91 0 01-1-.23 2.8 2.8 0 01-.46-.36l-.6-.55a4.15 4.15 0 00-.81-.62 3.47 3.47 0 00-1-.41 3.59 3.59 0 00-1.06-.1h-5.26a3.35 3.35 0 00-.54 0 3.7 3.7 0 00-2 .92l-.61.55-.3.28-.21.17a1.85 1.85 0 01-1 .32 1.57 1.57 0 01-.53-.06 1.21 1.21 0 01-.25-.08l-.35-.15-3-1.32-3-1.31-.75-.32a3.38 3.38 0 00-1-.3 3.19 3.19 0 00-1.11.08 3.91 3.91 0 00-.94.37l-1.45.75a1.45 1.45 0 01-.49.2.7.7 0 01-.38 0 .72.72 0 01-.48-.53.34.34 0 010-.1v-.61a1.6 1.6 0 00-.23-.78 1.49 1.49 0 00-.65-.55 1.54 1.54 0 00-1.58.18 2 2 0 00-.28.31l-.13.19-.22.34-.88 1.37-1.76 2.73-.86 1.36a3.32 3.32 0 01-1 1 14.76 14.76 0 01-1.38.69l-1.47.69L55 38.39a3.26 3.26 0 00-1.4 1 2.6 2.6 0 00-.48 1 9.44 9.44 0 00-.67 1.76c-1.15 3.71-4.17 3.33-5.4 7.13a21.12 21.12 0 00-.67 4.31 8.23 8.23 0 000 2.47 20.69 20.69 0 001 3 13 13 0 01.43 3.11 28.22 28.22 0 01-.07 4.94A98.4 98.4 0 0047.52 78a44.39 44.39 0 01-.32 8.69c-.35 2.16-.76 3.15-1.59 3.81-1.11.88-1.87.93-2.64 1.9s-.77 1.94-.68 4a37.63 37.63 0 001.31 10.09 12.54 12.54 0 001.53 3.88 28.69 28.69 0 004 3.75 5.4 5.4 0 001.18.8 8.67 8.67 0 001.6.51c1 .38 1.48 1.55 1.9 2.54.69 1.63 1.59 3.16 2.35 4.76 1.56 3.26 2.14 3 4.45 7.41.78 1.48 1.39 2.79 1.76 3.58.78 1.68 1.61 3.47 2 4.68A41.89 41.89 0 0167 150a38.93 38.93 0 01-.1 6.49 2.88 2.88 0 002.17 3.1 101 101 0 0045.8.06 2.87 2.87 0 002.2-3.18c-.34-2.52-.38-2.67-.44-3.44-.07-1-.13-2.29-.16-3v-.75a31.77 31.77 0 01.7-6.42 78.82 78.82 0 016.1-16c.84-1.66 2.13-4.1 3.4-6.4.88-1.62 1.64-3 2.18-3.88a5.91 5.91 0 00-1.25 1c-.24.26-.41.47-.47.55a48.41 48.41 0 01-3 3.84 27.76 27.76 0 01-13.38 8.43c-.83.21-1.66.38-2.51.51a47 47 0 01-8.8.35 32.75 32.75 0 01-8.43-.95 8.65 8.65 0 01-4.87-3.31 4.75 4.75 0 01-.81-2.2 3.67 3.67 0 011.51-3.08c2.51-2 4.17-.94 8.54-3.15a29 29 0 004.56-3.11 24.64 24.64 0 002.21-1.89c2.22-2.13 2.73-3.38 2.86-3.75a7 7 0 00.42-1.86 2.25 2.25 0 01-.24.37 3.21 3.21 0 01-.26.3 8.43 8.43 0 01-2.31 1.48 14.51 14.51 0 01-5.62 1.76 12.54 12.54 0 01-2.6 0 3 3 0 01-1-.28 2 2 0 00-.46-.19 1.81 1.81 0 00-.52-.07 1.74 1.74 0 00-.47.06 2.37 2.37 0 00-.5.2s-.15.07-.69.25a9.38 9.38 0 01-4.14-.19 15.36 15.36 0 01-2.21-.54c-.51-.17-.94-.37-1.8-.75-2.09-.94-2.64-1.34-3-2a1 1 0 01-.18-.51c0-.36.29-.87 2.57-1.91a25.18 25.18 0 012.63-1 14.15 14.15 0 014.6-.76 3.28 3.28 0 011.17.4c.52.34.92.64 1.2.85s.52.42.78.41.43-.18.77-.46.74-.52 1.1-.78c.63-.45 1.39-.49 2.89-.56a21.42 21.42 0 012.69.06c.62 0 1.38.1 2.36.25a30.66 30.66 0 013.19.69 5.22 5.22 0 002.68.37c.3-.07.86-.23.86-.37s-.14-.08-.42-.18a4 4 0 01-1.08-.62 5.35 5.35 0 01-.47-.38c-1-.94-2-1.9-3.15-2.76-2.52-2-5.91-4.55-7.87-3.54-.19.1-.13.11-.66.47a6.45 6.45 0 01-2.89 1.42c-.51 0-1.33-.41-3-1.3-1.22-.67-1.69-1-1.69-1.5a1 1 0 01.33-.66c5-5 8.9-5.62 8.9-5.62 1.57-.39 3.48-.21 4.88-1.08.34-.21 1.51-.92 1.58-2 .06-.86-.65-1.5-1.58-2.36-3.28-3.06-3.8-3.79-6.69-5.91a4.35 4.35 0 00-2.76-1.18 4.13 4.13 0 00-2.36 1.18c-1.69 1.36-3.56 2.52-5.17 4a9.77 9.77 0 00-3.1 4.69c-.18.74-.08.86-.39 3.93a14.71 14.71 0 01-.73 4 18.76 18.76 0 01-2.28 3.86 9 9 0 01-3.06 3c-2.07 1.11-4.4.23-6.24-.41-3.85-1.33-6.25-3.71-8.55-6a36.48 36.48 0 01-4.59-5.57c-2.47-3.54-3.69-5.35-3.35-7.61a5.76 5.76 0 012.23-3.88c2.2-1.34 4.61-2.43 6.9-3.62.29-.15-.1 0 5-2.82a6.49 6.49 0 002.45-2.18 3 3 0 00.56-2.23 2.49 2.49 0 00-.4-.79 3.47 3.47 0 00-1.57-1.18 9 9 0 00-3.75-.54 30.46 30.46 0 00-4.52.54c-1.09.18-2.57.44-4.33.79a11.64 11.64 0 012.49-2 11.8 11.8 0 012.77-1.22 10.82 10.82 0 013.24-.53c.72 0 1.44-.08 2.16-.07a21.82 21.82 0 012.29.13c1.37.14 2.78.41 4-.29.34-.19.7-.54 1.12-.38a.73.73 0 01.39.4 1 1 0 01-.16.74c-.4.86-1.5 1.72-1.39 2.75a1.81 1.81 0 00.43.93 11.34 11.34 0 001.09 1.2 7.09 7.09 0 004 1.86h.56a4.09 4.09 0 002-.72A13.19 13.19 0 0083 67.52c2.21-2.71 3.76-4.61 4.7-7.74.72-2.41 2-6.63-.23-9.62-1-1.37-2.5-2.16-5.12-2.76a29.47 29.47 0 00-12.2 0 42.73 42.73 0 00-10.63 3.54 48.3 48.3 0 00-6.3 3.55c.49-5.29.76-9 .84-11.47a6.81 6.81 0 011.25-2.58 9.51 9.51 0 012.44-1.52c1.55-.68 2.8-1.19 3.63-1.52a9.31 9.31 0 003.5-2A7.5 7.5 0 0066 34.06c.43-.72.87-1.43 1.31-2.15l2.14-3.28.23-.32v.45a1.67 1.67 0 000 .31 2.4 2.4 0 001.5 1.85 2.43 2.43 0 001.22.15 3.28 3.28 0 001-.36l1.53-.71a2.05 2.05 0 01.55-.22 1.75 1.75 0 01.51 0 1.52 1.52 0 01.5.16l.74.34 2.94 1.37 3 1.36.4.17a3.09 3.09 0 00.51.18 3.59 3.59 0 001.08.13 3.9 3.9 0 002.06-.66 2.83 2.83 0 00.42-.34l.31-.27.59-.54a1.79 1.79 0 01.93-.41 1.14 1.14 0 01.26 0h5.31a1.81 1.81 0 01.55.05 1.7 1.7 0 01.49.18 3.15 3.15 0 01.47.37l.6.55a4.06 4.06 0 00.83.61 3.79 3.79 0 002.11.47 3.85 3.85 0 001.06-.22l.26-.11.18-.08.37-.17 3-1.36 2.94-1.37.37-.17.18-.08h.12a1.71 1.71 0 01.5-.1 2.16 2.16 0 011.13.37l1.46.71a2.49 2.49 0 002.37-.08 2.44 2.44 0 001.17-2.05v-.39l.37.54.93 1.33 1.87 2.66.45.64a8 8 0 002 1.88 14.93 14.93 0 002.92 1.24 34.33 34.33 0 013.88 1.7c2.18 1.07 2.67 1.57 3 2a11.66 11.66 0 01.82 2c.67 1.49 1.57 2 2.58 3 .23.23 3.38 3.62 3.12 7.38a10.26 10.26 0 01-.69 3c-.35.92-.89 1.75-1.26 2.66a11.72 11.72 0 00-.73 3.08 53 53 0 000 6.67 49.57 49.57 0 01-1 10.3 9.06 9.06 0 01-1.21 3.74 6.48 6.48 0 00-1.25 2.39 2.73 2.73 0 00-.16 1.29c.2.61.78.12 1.14-.12.94-.64 2-1 3-1.57 1.79-1 2.43-1.8 2.75-1.57s0 .44 0 1.57.2 1.38 0 2c-.05.19-.11.27-.78 1.18-1 1.4-1.21 1.61-1.18 2a1.72 1.72 0 00.78 1.18c.53.34 1.22.13 1.75.5.34.24.51.64.81.92a9.51 9.51 0 002 1.25.9.9 0 01.52.45 1.08 1.08 0 010 .31c-.08 1.34 0 2.68-.1 4a37.62 37.62 0 01-2.61 10.54c-.86 2.15-2 4.79-4.38 5.61-.13 0-.58.2-.78 0s0-1.08 0-1.17a50.7 50.7 0 00-3.73 4.67 59.26 59.26 0 00-5 8.72c-2.81 5.73-5.16 11.83-4.87 12s2.31-3.77 3.64-6.52c1.06-2.19 1.42-3.2 2.68-5.55.43-.8.16-.26 2.18-3.77 1.9-3.29 2.66-4.67 4.34-6a10.49 10.49 0 011.06-.73s1.13-.69 2.54-1.76a11 11 0 002.74-2.65 11.86 11.86 0 001.37-3 27.42 27.42 0 00.85-2.94c.3-1.29.46-2.22.72-3.84.07-.42.49-3 .95-7 .08-1.32.27-3.14-.4-3.44zm-73-63z"/><rect class="cls-1" x="89.9" y="7.36" width="5.03" height="8.6" rx="2.52"/><path class="cls-1" d="M26.42 108.08l12.17-13.19a3.06 3.06 0 011.6-.9.7.7 0 00.56-.68v-.44a.71.71 0 00-.92-.67l-1.52.5a10.79 10.79 0 00-2.72 1.35L31 97.17a2.14 2.14 0 01-3.35-1.76V91a.57.57 0 00-.14-.38l-1.65-1.88a.58.58 0 00-1 .3 70.51 70.51 0 00-.18 18.47 1 1 0 001.74.57z"/><circle class="cls-1" cx="37.61" cy="39.88" r="1.89"/><path class="cls-1" d="M32.82 36a2.44 2.44 0 002.31 1.66h.28a3.12 3.12 0 012.2-.9 3 3 0 011.13.21v-.18a24.71 24.71 0 012.74-11.29l2.35-4.56a12.05 12.05 0 001.32-5.5v-6.9A1.16 1.16 0 0043 8L32.17 27.56a6.45 6.45 0 00-.47 5.12zM13.14 76.29a5.51 5.51 0 012.54-4.64l.08-.09-9.17-11.8a1.21 1.21 0 00-2.17.79l.51 14a10.9 10.9 0 00.7 3.5 11.12 11.12 0 001.77 3.1 12.75 12.75 0 012.83 7 48.4 48.4 0 002.58 13.07.5.5 0 001-.2 67.65 67.65 0 012-20.12 5.51 5.51 0 01-2.67-4.61zm32.51 7.91l.3-1.12a1.29 1.29 0 00-.67-1.49l-4.39-2.25a.38.38 0 00-.51.52 4.38 4.38 0 01.46 2 1.27 1.27 0 010 .2 1.27 1.27 0 00.49 1.06l2.26 1.81a1.3 1.3 0 002.06-.73zm-1.9 5.02l.3-.47a1.31 1.31 0 00-.33-1.75L41 85a1.29 1.29 0 00-1.6.07 1.31 1.31 0 00-.3 1.61l.22.41a1.27 1.27 0 00.27.34l2.26 2a1.3 1.3 0 001.9-.21zM38 87.79a1.31 1.31 0 00-1.79 0l-.49.44a1.3 1.3 0 00-.05 1.88l1.14 1.14a1.32 1.32 0 001.27.34l.73-.21a1.29 1.29 0 00.57-2.17zm-5.37 2.44h-1.9a1.3 1.3 0 00-1.3 1.31v3.3a.78.78 0 001.16.67l3.55-2.05a1.3 1.3 0 00.22-2.1l-.9-.8a1.23 1.23 0 00-.83-.33zm3.55-34.08l-1.28 2.64a11.56 11.56 0 00-1.13 4.83v1.24a9.59 9.59 0 001.84 5.75l4.11 5.66a.41.41 0 00.14.12l5.81 2.72a.38.38 0 00.54-.36L46 72.46a.33.33 0 00-.09-.23l-2.2-2.62a3.19 3.19 0 01.22 1.16 3.08 3.08 0 01-3.08 3.08c-2.42 0-4.19-2.8-2.26-5.33l.1-.1a3.63 3.63 0 012.56-.71.38.38 0 00.33-.63l-.3-.36a.21.21 0 01-.06-.1l-4.34-10.45a.38.38 0 00-.7-.02zm8.11-8.07A35.71 35.71 0 0141.21 46a1.1 1.1 0 00-1.7.28l-.15.29a7.87 7.87 0 00-1 3.55L38.19 54a.45.45 0 000 .16L40.65 60a.38.38 0 00.7 0 3.09 3.09 0 012.85-1.91 3 3 0 01.67.08l-.48-.7a.44.44 0 01-.06-.16 74.75 74.75 0 01.79-7.47 1.79 1.79 0 00-.83-1.76zm-1.23 17.71l2.68 3.36a.38.38 0 00.68-.21l.28-5a.38.38 0 00-.62-.3 3.07 3.07 0 01-1.88.64A3.16 3.16 0 0143 64a.38.38 0 00-.49.5l.49 1.2zM26.51 49.64a.38.38 0 00.63.13 3.08 3.08 0 012.19-.91 3.14 3.14 0 012.49 5l-.07.09A3.34 3.34 0 0129 55a.38.38 0 00-.41.51l2.76 7.9a.38.38 0 00.74-.13A11.41 11.41 0 0133.36 58l1.46-2.81a4.69 4.69 0 00.11-4.12l-2.16-4.73a12.55 12.55 0 01-.93-7.57v-.13a.34.34 0 000-.2l-2.49-7.28a1 1 0 00-1.94 0l-1.89 5a15.07 15.07 0 00-.12 10.3z"/><path class="cls-1" d="M18 70.37h.05l.42.35h.15a5.52 5.52 0 015.48 4.84l.07.06 8.12 4.06a.37.37 0 00.49-.14v-.06a.38.38 0 000-.45l-10.67-12.2a.36.36 0 00-.18-.12 3.08 3.08 0 01-2.21-2.95 3 3 0 01.19-1 .5.5 0 000-.12V48.88a.38.38 0 01.74-.13l.26.71a.28.28 0 010 .13v11a.38.38 0 00.55.34 3.08 3.08 0 012.82 5.48.38.38 0 00-.11.59l9.72 11a.38.38 0 00.47.06 4.34 4.34 0 014.48.15v-.13l-3.56-4.68a39.12 39.12 0 01-5.6-10.27l-7.46-20.85a.2.2 0 000-.08l-5.82-8.27a1.36 1.36 0 00-2.47.78v27.06A9.88 9.88 0 0016.11 68zm38.6-43.16l3.13-1.79A.7.7 0 0060 25l2.21-7.51a.66.66 0 00-1-.75L54.57 21a14 14 0 00-4.9 5.27l-1.79 3.37a6.26 6.26 0 00-.29 5.23l2.6 6.62a.67.67 0 001.21.08l.47-.86a6.49 6.49 0 00.81-3.13v-1.89a.63.63 0 01.09-.33l2.13-3.64a4 4 0 00.55-2.25v-.13a2.35 2.35 0 011.15-2.13zM32.23 82.26c0-.14-.09-.26-.54-.46l-7.5-3.42a.38.38 0 00-.5.18 4.69 4.69 0 01-.44.79 2.18 2.18 0 00.17 2.65l5.83 6.65a.36.36 0 00.26.13l3.28.23a.37.37 0 00.28-.1l2.52-2.26a.38.38 0 00-.16-.65 4.33 4.33 0 01-3.2-3.74zm-1.49-28.77l.1-.1a2.08 2.08 0 00-1.51-3.48 2 2 0 00-2 2 2 2 0 00.47 1.29 2.12 2.12 0 002.94.29z"/><path class="cls-1" d="M24.34 62.34a.47.47 0 00-.1-.1 2.09 2.09 0 00-3.28.69 2.34 2.34 0 00.5 2.51.47.47 0 00.19.12 3 3 0 001.44.2 2.08 2.08 0 001.25-3.42zm21.29-2.68a2.09 2.09 0 00-3 2.94.47.47 0 00.1.1 2.09 2.09 0 003-3 .28.28 0 00-.1-.04zm-3.36 9.58a2.1 2.1 0 00-2.94 3l.1.09a2.09 2.09 0 002.94-3 .47.47 0 00-.1-.09zM38.3 79.59a2.85 2.85 0 00-1.78-.59A2.86 2.86 0 0034 80.46a1 1 0 000 .1 2.77 2.77 0 00-.29 1.25 2.93 2.93 0 00.17 1 2.84 2.84 0 001.5 1.6 2.81 2.81 0 001.16.25 2.77 2.77 0 001.72-.58 2.7 2.7 0 00.58-.59 2.84 2.84 0 00-.52-3.88zm-16.94-5.91a.38.38 0 00-.09-.09C17.42 70.72 13.09 75 16 78.9a.76.76 0 00.09.09c3.83 2.85 8.13-1.45 5.27-5.31zm46.58-50.19L58.29 28a1.6 1.6 0 00-.89 1.6 4.87 4.87 0 01-.79 3.21l-1.28 1.92a.41.41 0 00.52.6l8-3.75a.37.37 0 00.18-.17l4.4-7.37a.42.42 0 00-.49-.55z"/><path class="cls-1" d="M82 19.35V8.65a1.29 1.29 0 00-2-1.11l-12.57 7.52a.35.35 0 00-.13.14l-4.76 8.47a.39.39 0 00.51.53l6.4-3.35a.38.38 0 01.56.34v.74a.38.38 0 00.57.33l6.82-3.88a1.61 1.61 0 00.81-1.4v-1.76a.77.77 0 00-1.16-.67l-5.3 3a.38.38 0 01-.57-.33v-1.75a.39.39 0 01.19-.33l7.3-4.14a1 1 0 011.54.89v5.67a1.93 1.93 0 01-.9 1.63l-6.78 4.24a.37.37 0 00-.18.33v2a.38.38 0 00.58.32L81.12 21a1.94 1.94 0 00.88-1.65zM20.73 101a63.4 63.4 0 011.63-14.28 4.24 4.24 0 00-.94-3.74l-.91-1a1.47 1.47 0 00-1.24-.51 1.51 1.51 0 00-1.38 1.2 68.12 68.12 0 0033.78 72.65A63 63 0 0120.73 101z"/><path class="cls-1" d="M27 118a.79.79 0 001.46.18q2.2-4.11 4.86-8.45c2.55-4.15 5.13-7.95 7.66-11.41a.84.84 0 00.16-.51v-1.75a.52.52 0 00-.9-.36c-2.31 2.35-4.7 5-7.11 7.84-2.05 2.45-3.91 4.86-5.6 7.18a6.19 6.19 0 00-1 4.88q.13 1.2.47 2.4zm3.49 10.05A.79.79 0 0032 128c1.31-4 2.86-8.34 4.7-12.81 1.56-3.77 3.17-7.3 4.79-10.58a1.37 1.37 0 00.13-.77c-.1-.71-.17-1.43-.23-2.15a.45.45 0 00-.83-.21 174.16 174.16 0 00-6.48 11.24q-2.55 4.84-4.6 9.4a4.2 4.2 0 00-.08 3.3q.49 1.31 1.09 2.63zm4.88 8.64a.79.79 0 001.42-.31c.71-4.25 1.64-8.79 2.84-13.55 1.09-4.35 2.29-8.41 3.54-12.19a1.2 1.2 0 00-.06-.93 15.4 15.4 0 01-.74-1.93.42.42 0 00-.79 0c-1.29 3.16-2.56 6.53-3.76 10.1-1.61 4.76-2.91 9.3-4 13.56a5.07 5.07 0 00.65 4c.31.38.6.82.9 1.25zm6.29 7.71a.79.79 0 001.35-.53c.12-4.5.43-9.36 1-14.51.61-5.38 1.42-10.38 2.35-15a.79.79 0 00-.29-.78 8.66 8.66 0 01-.93-.85l-.38-.41a.51.51 0 00-.87.22c-1 3.92-2 8.13-2.8 12.63-.92 5-1.56 9.81-2 14.25a4.46 4.46 0 001.12 3.42c.49.55.96 1.06 1.45 1.56zm7.89-28.33l-1.34-1.15a.6.6 0 00-1 .36c-.69 4.92-1.24 10.31-1.5 16.12-.24 5.14-.24 10-.07 14.46a5.28 5.28 0 002 3.94l.57.44a.79.79 0 001.27-.68c-.38-4.81-.6-10-.56-15.59 0-6.15.39-11.88.92-17.11a.91.91 0 00-.29-.79zm3.75 4.83l-1.66-2.9a.51.51 0 00-1 .24c-.2 5.37-.18 11.25.19 17.57.32 5.47.87 10.59 1.55 15.32a4.62 4.62 0 002.29 3.38c.84.49 1.7.95 2.58 1.39a.34.34 0 00.49-.38c-1.16-5.06-2.2-10.62-3-16.63-.81-6.45-1.26-12.48-1.44-17.99zm11.32 34.44c-1.41-4-2.78-8.41-4-13.07-1.3-4.87-2.33-9.52-3.14-13.9-.71-1.33-1.51-2.77-2.34-4.26a.34.34 0 00-.64.2c.54 5 1.34 10.43 2.48 16.16 1.22 6.07 2.66 11.66 4.17 16.71a1.24 1.24 0 00.74.81c.4.17.81.32 1.22.48a1.28 1.28 0 001.72-1.3q-.09-.93-.18-1.83zm-3.97-22.01c-.47.15 4.08 17.19 4.61 17.07.31-.07-.55-6.29-2.77-12.6-.37-1.05-1.63-4.54-1.84-4.47zM46.86 15.07a.56.56 0 00.89.4l3.94-2.83a.68.68 0 01.86 1l-5.2 4.89a1.25 1.25 0 00-.28.37l-5.13 10.86c-.16.35-.3.69-.43 1a10.31 10.31 0 00-.51 2.29 14.47 14.47 0 00-.2 2.39v2.7c0 .79-.05 1.43-.08 1.87a3.1 3.1 0 01-6.19-.14 1.41 1.41 0 00-1.41 1.37c0 2.68 1.36 6.23 2.8 9a.41.41 0 00.77-.15A11.48 11.48 0 0138.24 45a1.92 1.92 0 012.69-.56l3.9 2.63a1.14 1.14 0 00.32.22 1.22 1.22 0 001.33-.18l2.15-1.84a1.24 1.24 0 00.37-1.34l-3.15-8.62a6.83 6.83 0 01.36-5.51l2-3.86a19.77 19.77 0 016.32-7.15l3.82-2.62a1.12 1.12 0 00.36-.39l8.23-13.9A1.25 1.25 0 0065.79 0a8 8 0 00-3.13.9L49.17 8a4.8 4.8 0 00-2.53 4.68zm54.04-.87v4.14a.7.7 0 01-.7.69H84.63a.69.69 0 01-.7-.69V14.2a2.22 2.22 0 011.19-2l2.5-1.31a.4.4 0 01.59.36v1.63a5.31 5.31 0 001.56 3.75 3.73 3.73 0 002.62 1.09 3.73 3.73 0 002.62-1.09 5.31 5.31 0 001.56-3.75v-1.59a.4.4 0 01.59-.36l2.5 1.31a2.22 2.22 0 011.24 1.96zm59.24 93.32a71 71 0 00-.14-18.47.57.57 0 00-1-.3l-1.65 1.88a.54.54 0 00-.15.38v4.4a2.13 2.13 0 01-3.34 1.76l-4.57-3.12a10.57 10.57 0 00-2.71-1.35l-1.58-.5a.7.7 0 00-.92.67v.44a.69.69 0 00.56.68 3 3 0 011.59.9l12.17 13.19a1 1 0 001.74-.56z"/><circle class="cls-1" cx="147.23" cy="39.88" r="1.89"/><path class="cls-1" d="M143.36 25.5a24.7 24.7 0 012.73 11.31V37a3.14 3.14 0 013.33.69h.28A2.43 2.43 0 00152 36l1.12-3.34a6.4 6.4 0 00-.46-5.12L141.87 8a1.17 1.17 0 00-2.19.56v6.9a12.06 12.06 0 001.33 5.5zm34.89 34.26l-9.18 11.79.08.09a5.52 5.52 0 01-.07 9.32 67.33 67.33 0 012 20.12.5.5 0 001 .2 48.79 48.79 0 002.58-13.07 12.74 12.74 0 012.82-7 11.15 11.15 0 001.78-3.1 10.9 10.9 0 00.7-3.5l.51-14a1.21 1.21 0 00-2.22-.85zm-33.77 19.8a.38.38 0 00-.53-.22l-4.4 2.25a1.29 1.29 0 00-.66 1.49l.29 1.12a1.3 1.3 0 002.07.68l2.27-1.81A1.26 1.26 0 00144 82v-.2a4.38 4.38 0 01.46-2 .35.35 0 00.02-.24zm-3.39 9.66a1.3 1.3 0 002 .26l2.25-2a1.27 1.27 0 00.27-.34l.22-.41a1.29 1.29 0 00-.3-1.61 1.31 1.31 0 00-1.61-.07l-2.76 2a1.31 1.31 0 00-.33 1.77zm4.91 2.12l.74.21a1.33 1.33 0 001.27-.34l1.13-1.14a1.29 1.29 0 000-1.88l-.48-.44a1.31 1.31 0 00-1.79 0l-1.38 1.38a1.29 1.29 0 00.51 2.21zm8.22 4.17a.78.78 0 001.16-.67v-3.3a1.3 1.3 0 00-1.3-1.31h-1.9a1.28 1.28 0 00-.87.33l-.9.8a1.3 1.3 0 00.22 2.1zm-3.14-30.65v-1.24a11.26 11.26 0 00-1.13-4.83l-1.27-2.64a.38.38 0 00-.7 0l-4.33 10.45a.33.33 0 01-.06.1l-.3.36a.38.38 0 00.32.63 3.65 3.65 0 012.57.71l.1.1c1.92 2.53.16 5.33-2.26 5.33a3.08 3.08 0 01-3.09-3.08 3 3 0 01.23-1.16l-2.21 2.62a.46.46 0 00-.09.23l-.2 6.29a.38.38 0 00.54.36l5.8-2.72a.44.44 0 00.15-.12l4.11-5.66a9.66 9.66 0 001.82-5.73zm-5.6-18.31l-.16-.29a1.1 1.1 0 00-1.7-.28 35.71 35.71 0 01-3.08 2.1 1.79 1.79 0 00-.82 1.76 74.75 74.75 0 01.79 7.47.44.44 0 01-.06.16l-.48.7a2.93 2.93 0 01.67-.08 3.09 3.09 0 012.85 1.91.38.38 0 00.7 0l2.43-5.88a.3.3 0 000-.16l-.15-3.86a8 8 0 00-.99-3.55zm-7.34 17.37l.28 5a.38.38 0 00.68.21l2.68-3.36a.26.26 0 00.05-.09l.49-1.18a.38.38 0 00-.5-.5 3.08 3.08 0 01-3.07-.4.37.37 0 00-.61.32zM153 38.67v.13a12.62 12.62 0 01-.93 7.57l-2.16 4.73a4.73 4.73 0 00.1 4.12l1.47 2.78a11.4 11.4 0 011.28 5.25.38.38 0 00.74.13l2.77-7.9a.39.39 0 00-.41-.51 3.33 3.33 0 01-2.77-1l-.08-.09a3.14 3.14 0 012.5-5 3.1 3.1 0 012.19.91.38.38 0 00.63-.13l1.1-3.15a15.07 15.07 0 00-.12-10.3l-1.89-5a1 1 0 00-1.95 0L153 38.47a.44.44 0 000 .2z"/><path class="cls-1" d="M149.46 73.38l-3.56 4.68v.13a4.34 4.34 0 014.48-.15.38.38 0 00.47-.06l9.72-11a.38.38 0 00-.11-.59 3.08 3.08 0 012.87-5.39.38.38 0 00.55-.34v-11a.51.51 0 010-.13l.27-.71a.38.38 0 01.74.13V62.6a.5.5 0 000 .12 3 3 0 01.18 1 3.07 3.07 0 01-2.2 2.95.36.36 0 00-.18.12L152 79.08a.38.38 0 000 .45v.06a.38.38 0 00.5.14l8.12-4.06.07-.06a5.51 5.51 0 015.47-4.84h.16l.41-.35 2-2.42a9.88 9.88 0 002.18-6.19v-27.1a1.36 1.36 0 00-2.47-.78l-5.78 8.27a.22.22 0 000 .08l-7.55 20.83a39.12 39.12 0 01-5.65 10.27zm-17.22-33.99l1.2 2.17a.67.67 0 001.21-.08l2.6-6.62a6.26 6.26 0 00-.3-5.23l-1.78-3.37a14.1 14.1 0 00-4.9-5.27l-6.69-4.22a.67.67 0 00-1 .75L124.8 25a.7.7 0 00.31.39l3.12 1.79a2.31 2.31 0 011.16 2.13v.13a4 4 0 00.55 2.25l2.13 3.64a.63.63 0 01.09.33v3.37a.73.73 0 00.08.36zm29.35 39.96a5.56 5.56 0 01-.45-.79.37.37 0 00-.5-.18l-7.49 3.42c-.45.2-.53.32-.54.46a4.33 4.33 0 01-3.2 3.72.38.38 0 00-.16.65l2.52 2.26a.37.37 0 00.28.1l3.28-.23a.38.38 0 00.26-.13l5.83-6.63a2.18 2.18 0 00.17-2.65zm-4.06-27.41a2 2 0 00-2-2 2.08 2.08 0 00-1.53 3.45l.1.1a2.12 2.12 0 003-.26 2 2 0 00.43-1.29z"/><path class="cls-1" d="M163.37 65.44a2.32 2.32 0 00.51-2.51 2.09 2.09 0 00-3.28-.69.47.47 0 00-.1.1 2.08 2.08 0 001.24 3.42 3 3 0 001.44-.2.37.37 0 00.19-.12zm-24.26-5.69a2.09 2.09 0 003 3 .43.43 0 00.09-.1 2.09 2.09 0 00-3-2.94.38.38 0 00-.09.04zm6.3 12.56l.1-.09a2.1 2.1 0 00-2.94-3 .47.47 0 00-.1.1 2.09 2.09 0 002.94 2.99zM151 82.79a2.7 2.7 0 00.18-1 2.77 2.77 0 00-.29-1.25.93.93 0 00-.05-.1 2.83 2.83 0 00-1.12-1.13 2.78 2.78 0 00-1.38-.36 2.84 2.84 0 00-2.84 2.84 2.76 2.76 0 00.55 1.66 2.65 2.65 0 00.57.59 2.81 2.81 0 001.72.58 2.85 2.85 0 001.17-.25 2.82 2.82 0 001.49-1.58zm12.56-9.2l-.09.09c-2.85 3.86 1.45 8.16 5.31 5.31l.09-.09c2.87-3.9-1.45-8.18-5.31-5.31zM121 31.62l8 3.75a.41.41 0 00.52-.6l-1.28-1.92a4.87 4.87 0 01-.79-3.21 1.59 1.59 0 00-.9-1.6l-9.64-4.55a.42.42 0 00-.53.59l4.39 7.37a.44.44 0 00.23.17z"/><path class="cls-1" d="M122.3 23.67l-4.76-8.47a.32.32 0 00-.14-.14l-12.63-7.52a1.29 1.29 0 00-2 1.11v10.7a1.94 1.94 0 00.9 1.64l8.19 5.12a.38.38 0 00.58-.32v-2a.39.39 0 00-.18-.33l-6.78-4.24a1.93 1.93 0 01-.91-1.63v-5.71a1 1 0 011.55-.89l7.29 4.15a.4.4 0 01.2.33v1.77a.38.38 0 01-.57.33l-5.31-3a.78.78 0 00-1.16.67V17a1.61 1.61 0 00.82 1.4l6.82 3.88a.38.38 0 00.57-.33v-.74a.38.38 0 01.55-.34l6.41 3.35a.39.39 0 00.56-.55zm43.27 57.72a1.5 1.5 0 00-1.25.51l-.91 1a4.23 4.23 0 00-.93 3.74 63.2 63.2 0 01-29.31 68.56A68.21 68.21 0 00167 82.59a1.51 1.51 0 00-1.43-1.2z"/><path class="cls-1" d="M157.87 118c.2-.79.38-1.59.55-2.4a6.16 6.16 0 00-1.06-4.88 130.43 130.43 0 00-5.6-7.18c-2.41-2.88-4.8-5.49-7.11-7.84a.52.52 0 00-.89.36v1.75a.78.78 0 00.16.51c2.52 3.46 5.1 7.26 7.65 11.41q2.67 4.33 4.87 8.45a.78.78 0 001.43-.18zm-3.52 10.05q.6-1.32 1.14-2.67a4.2 4.2 0 00-.09-3.3c-1.37-3-2.89-6.17-4.59-9.4-2.14-4.05-4.33-7.8-6.49-11.24a.45.45 0 00-.83.21c-.06.72-.13 1.44-.22 2.15a1.37 1.37 0 00.13.77c1.62 3.28 3.23 6.81 4.79 10.58 1.84 4.47 3.39 8.77 4.7 12.81a.78.78 0 001.46.09zm-4.88 8.64l.87-1.31a5.07 5.07 0 00.64-4c-1-4.26-2.36-8.8-4-13.56-1.2-3.57-2.47-6.94-3.76-10.1a.43.43 0 00-.8 0 14 14 0 01-.73 1.93 1.25 1.25 0 00-.07.93c1.25 3.78 2.46 7.84 3.55 12.19 1.2 4.76 2.12 9.3 2.84 13.55a.78.78 0 001.46.37zm-7.64 7.18a.79.79 0 001.35.53c.48-.5 1-1 1.43-1.53a4.49 4.49 0 001.12-3.42c-.44-4.44-1.08-9.21-2-14.25-.82-4.5-1.78-8.71-2.8-12.63a.51.51 0 00-.86-.22l-.39.41a8.64 8.64 0 01-.92.85.79.79 0 00-.29.78c.92 4.59 1.74 9.59 2.35 15 .57 5.12.88 9.98 1.01 14.48zm-5.23 6.37l.57-.44a5.24 5.24 0 002-3.94c.17-4.48.18-9.32-.06-14.46-.27-5.81-.81-11.2-1.51-16.12a.59.59 0 00-1-.36l-1.34 1.15a.91.91 0 00-.31.79c.53 5.23.88 11 .92 17.11 0 5.57-.18 10.78-.56 15.59a.78.78 0 001.29.68zm-2.45-31.98a.51.51 0 00-1-.24l-1.65 2.87c-.18 5.51-.63 11.54-1.49 18-.8 6-1.83 11.57-3 16.63a.34.34 0 00.49.38c.87-.44 1.73-.9 2.58-1.39a4.65 4.65 0 002.29-3.38c.68-4.73 1.23-9.85 1.55-15.32.42-6.3.43-12.18.23-17.55zm-3.78 6.05a.34.34 0 00-.64-.2c-.84 1.49-1.63 2.93-2.34 4.26-.82 4.38-1.84 9-3.15 13.9-1.24 4.66-2.61 9-4 13.07q-.09.9-.18 1.83a1.28 1.28 0 001.72 1.3L123 158a1.26 1.26 0 00.73-.81c1.52-5.05 3-10.64 4.17-16.71 1.1-5.74 1.92-11.16 2.47-16.17zm-4.85 6.43a22 22 0 00-1.75 3.46 96.97 96.97 0 00-2.21 5 42.09 42.09 0 00-2.47 8.33c-.45 2.39-1.11 7.16-.62 7.27 1.1.2 7.71-23.8 7.05-24.06zm.6-114.96a1.26 1.26 0 00.37.39l3.82 2.62a19.77 19.77 0 016.32 7.15l2 3.86a6.83 6.83 0 01.36 5.51l-3.16 8.62a1.26 1.26 0 00.36 1.37l2.15 1.84a1.21 1.21 0 001.33.18 1.19 1.19 0 00.33-.22l3.89-2.63a1.93 1.93 0 012.7.56 11.48 11.48 0 011.57 5.08.41.41 0 00.77.15c1.44-2.79 2.83-6.34 2.79-9a1.4 1.4 0 00-1.4-1.37 3.1 3.1 0 01-6.19.14c0-.44-.07-1.08-.09-1.87v-2.7a14.47 14.47 0 00-.2-2.39 11.63 11.63 0 00-.52-2.23 10.44 10.44 0 00-.42-1L137.76 19a1.22 1.22 0 00-.27-.37l-5.2-4.89a.68.68 0 01.86-1l3.94 2.83a.56.56 0 00.88-.4l.22-2.37a4.76 4.76 0 00-2.53-4.8L122.18.9A8 8 0 00119 0a1.25 1.25 0 00-1.14 1.88zm-19 10.56l-6.34 2.73a2.44 2.44 0 01-2.72-.55L97 27.41a1.19 1.19 0 00-.87-.37H88.7a1.19 1.19 0 00-.87.37l-1.06 1.11a2.44 2.44 0 01-2.72.55l-6.34-2.73a.8.8 0 01-.11-1.42l4.66-2.87a5.31 5.31 0 012.8-.79h14.71a5.31 5.31 0 012.8.79l4.66 2.87a.8.8 0 01-.11 1.42zM92.41 16a2.52 2.52 0 002.52-2.51V9.88a2.52 2.52 0 10-5 0v3.57A2.52 2.52 0 0092.41 16z"/></g></g></svg>