<svg xmlns="http://www.w3.org/2000/svg" viewBox="0 0 184.84 226.37"><defs><style>.cls-1{fill:#fff;}.cls-2{fill:#999;}</style></defs><g id="Слой_2" data-name="Слой 2"><g id="Логотипы"><path class="cls-1" d="M25.89,88.75l1.65,1.88a.57.57,0,0,1,.14.38v4.4A2.14,2.14,0,0,0,31,97.17l4.56-3.12a10.79,10.79,0,0,1,2.72-1.35l1.52-.5a.71.71,0,0,1,.92.67v.44a.7.7,0,0,1-.56.68h0a3.06,3.06,0,0,0-1.6.9L26.42,108.08a1,1,0,0,1-1.72-.56,70.51,70.51,0,0,1,.18-18.47A.58.58,0,0,1,25.89,88.75Z"/><circle class="cls-1" cx="37.61" cy="39.88" r="1.89"/><path class="cls-1" d="M45.15,8.54v6.9a12.05,12.05,0,0,1-1.32,5.5L41.48,25.5a24.71,24.71,0,0,0-2.74,11.31V37a3,3,0,0,0-1.13-.21,3.12,3.12,0,0,0-2.2.9h-.28A2.44,2.44,0,0,1,32.82,36L31.7,32.68a6.45,6.45,0,0,1,.47-5.12L43,8A1.16,1.16,0,0,1,45.15,8.54Z"/><path class="cls-1" d="M13.14,76.29a5.51,5.51,0,0,1,2.54-4.64h0l.08-.09L6.59,59.76a1.21,1.21,0,0,0-2.17.79l.51,14a10.9,10.9,0,0,0,.7,3.5,11.12,11.12,0,0,0,1.77,3.1,12.75,12.75,0,0,1,2.83,7,48.4,48.4,0,0,0,2.58,13.07.5.5,0,0,0,1-.2,67.65,67.65,0,0,1,2-20.12A5.51,5.51,0,0,1,13.14,76.29Z"/><path class="cls-1" d="M45.65,84.2l.3-1.12a1.29,1.29,0,0,0-.67-1.49l-4.39-2.25a.38.38,0,0,0-.51.52,4.38,4.38,0,0,1,.46,2,1.27,1.27,0,0,1,0,.2,1.27,1.27,0,0,0,.49,1.06l2.26,1.81A1.3,1.3,0,0,0,45.65,84.2Z"/><path class="cls-1" d="M43.75,89.22l.3-.47A1.31,1.31,0,0,0,43.72,87L41,85a1.29,1.29,0,0,0-1.6.07h0a1.31,1.31,0,0,0-.3,1.61l.22.41a1.27,1.27,0,0,0,.27.34l2.26,2A1.3,1.3,0,0,0,43.75,89.22Z"/><path class="cls-1" d="M38,87.79a1.31,1.31,0,0,0-1.79,0l-.49.44a1.3,1.3,0,0,0-.05,1.88l1.14,1.14a1.32,1.32,0,0,0,1.27.34l.73-.21a1.29,1.29,0,0,0,.57-2.17Z"/><path class="cls-1" d="M32.63,90.23h-1.9a1.3,1.3,0,0,0-1.3,1.31l0,3.3a.78.78,0,0,0,1.16.67l3.55-2.05a1.3,1.3,0,0,0,.22-2.1l-.9-.8A1.23,1.23,0,0,0,32.63,90.23Z"/><path class="cls-1" d="M36.18,56.15,34.9,58.79a11.56,11.56,0,0,0-1.13,4.83v1.24a9.59,9.59,0,0,0,1.84,5.75l4.11,5.66a.41.41,0,0,0,.14.12l5.81,2.72a.38.38,0,0,0,.54-.36L46,72.46a.33.33,0,0,0-.09-.23l-2.2-2.62a3.19,3.19,0,0,1,.22,1.16,3.08,3.08,0,0,1-3.08,3.08c-2.42,0-4.19-2.8-2.26-5.33l.1-.1a3.63,3.63,0,0,1,2.56-.71.38.38,0,0,0,.33-.63l-.3-.36a.21.21,0,0,1-.06-.1L36.88,56.17A.38.38,0,0,0,36.18,56.15Z"/><path class="cls-1" d="M44.29,48.07A33.76,33.76,0,0,1,41.21,46a1.1,1.1,0,0,0-1.7.28l-.15.29a7.87,7.87,0,0,0-1,3.55L38.19,54a.45.45,0,0,0,0,.16L40.65,60a.38.38,0,0,0,.7,0,3.09,3.09,0,0,1,2.85-1.91,3,3,0,0,1,.67.08l-.48-.7a.44.44,0,0,1-.06-.16,74.75,74.75,0,0,1,.79-7.47A1.82,1.82,0,0,0,44.29,48.07Z"/><path class="cls-1" d="M43.06,65.79l2.68,3.36a.38.38,0,0,0,.68-.21l.28-5a.38.38,0,0,0-.62-.3,3.07,3.07,0,0,1-1.88.64A3.16,3.16,0,0,1,43,64a.38.38,0,0,0-.49.5L43,65.7Z"/><path class="cls-1" d="M26.51,49.64a.38.38,0,0,0,.63.13,3.08,3.08,0,0,1,2.19-.91,3.14,3.14,0,0,1,2.49,5l-.07.09A3.34,3.34,0,0,1,29,55a.38.38,0,0,0-.41.51l2.76,7.9a.38.38,0,0,0,.74-.13A11.41,11.41,0,0,1,33.36,58l1.46-2.81a4.69,4.69,0,0,0,.11-4.12l-2.16-4.73a12.55,12.55,0,0,1-.93-7.57l0-.13a.34.34,0,0,0,0-.2l-2.49-7.28a1,1,0,0,0-1.94,0l-1.89,5a15.07,15.07,0,0,0-.12,10.3Z"/><path class="cls-1" d="M18,70.37s0,0,.05,0l.42.35h.15a5.52,5.52,0,0,1,5.48,4.84l.07.06,8.12,4.06a.37.37,0,0,0,.49-.14l0-.06a.38.38,0,0,0,0-.45L22.11,66.83a.36.36,0,0,0-.18-.12,3.08,3.08,0,0,1-2.21-2.95,3,3,0,0,1,.19-1,.5.5,0,0,0,0-.12V48.88a.38.38,0,0,1,.74-.13l.26.71a.28.28,0,0,1,0,.13v11a.38.38,0,0,0,.55.34,3.08,3.08,0,0,1,2.82,5.48.38.38,0,0,0-.11.59l9.72,11a.38.38,0,0,0,.47.06,4.34,4.34,0,0,1,4.48.15l0-.13-3.56-4.68a39.12,39.12,0,0,1-5.6-10.27L22.23,42.28a.56.56,0,0,0-.05-.08L16.4,33.93a1.36,1.36,0,0,0-2.47.78V61.77A9.88,9.88,0,0,0,16.11,68Z"/><path class="cls-1" d="M56.6,27.21l3.13-1.79A.7.7,0,0,0,60,25l2.21-7.51a.66.66,0,0,0-1-.75L54.57,21a14,14,0,0,0-4.9,5.27l-1.79,3.37a6.26,6.26,0,0,0-.29,5.23l2.6,6.62a.67.67,0,0,0,1.21.08l.47-.86a6.49,6.49,0,0,0,.81-3.13V35.69a.63.63,0,0,1,.09-.33l2.13-3.64a4,4,0,0,0,.55-2.25v-.13A2.35,2.35,0,0,1,56.6,27.21Z"/><path class="cls-1" d="M32.23,82.26c0-.14-.09-.26-.54-.46l-7.5-3.42a.38.38,0,0,0-.5.18,4.69,4.69,0,0,1-.44.79A2.18,2.18,0,0,0,23.42,82l5.83,6.65a.36.36,0,0,0,.26.13l3.28.23a.37.37,0,0,0,.28-.1l2.52-2.26a.38.38,0,0,0-.16-.65A4.33,4.33,0,0,1,32.23,82.26Z"/><path class="cls-1" d="M30.74,53.49l.1-.1a2.08,2.08,0,0,0-1.51-3.48,2,2,0,0,0-2,2,0,0,0,0,0,0,0,2,2,0,0,0,.47,1.29h0A2.12,2.12,0,0,0,30.74,53.49Z"/><path class="cls-1" d="M24.34,62.34a.47.47,0,0,0-.1-.1,2.09,2.09,0,0,0-3.28.69,2.34,2.34,0,0,0,.5,2.51.47.47,0,0,0,.19.12,3,3,0,0,0,1.44.2A2.08,2.08,0,0,0,24.34,62.34Z"/><path class="cls-1" d="M45.63,59.66a2.09,2.09,0,0,0-3,2.94.47.47,0,0,0,.1.1,2.09,2.09,0,0,0,3-3A.28.28,0,0,0,45.63,59.66Z"/><path class="cls-1" d="M42.27,69.24a2.1,2.1,0,0,0-2.94,3l.1.09a2.09,2.09,0,0,0,2.94-3A.47.47,0,0,0,42.27,69.24Z"/><path class="cls-1" d="M38.3,79.59A2.85,2.85,0,0,0,36.52,79,2.86,2.86,0,0,0,34,80.46a1,1,0,0,0,0,.1,2.77,2.77,0,0,0-.29,1.25,2.93,2.93,0,0,0,.17,1,2.84,2.84,0,0,0,1.5,1.6,2.81,2.81,0,0,0,1.16.25,2.77,2.77,0,0,0,1.72-.58,2.7,2.7,0,0,0,.58-.59,2.84,2.84,0,0,0-.52-3.88Z"/><path class="cls-1" d="M21.36,73.68a.38.38,0,0,0-.09-.09C17.42,70.72,13.09,75,16,78.9a.76.76,0,0,0,.09.09C19.92,81.84,24.22,77.54,21.36,73.68Z"/><path class="cls-1" d="M67.94,23.49,58.29,28a1.6,1.6,0,0,0-.89,1.6,4.87,4.87,0,0,1-.79,3.21l-1.28,1.92a.41.41,0,0,0,.52.6l8-3.75a.37.37,0,0,0,.18-.17l4.4-7.37A.42.42,0,0,0,67.94,23.49Z"/><path class="cls-1" d="M80.07,7.54,67.43,15.06a.35.35,0,0,0-.13.14l-4.76,8.47a.39.39,0,0,0,.51.53l6.4-3.35a.38.38,0,0,1,.56.34v.74a.38.38,0,0,0,.57.33l6.82-3.88a1.61,1.61,0,0,0,.81-1.4V15.22a.77.77,0,0,0-1.16-.67l-5.3,3a.38.38,0,0,1-.57-.33V15.47a.39.39,0,0,1,.19-.33L78.67,11a1,1,0,0,1,1.54.89v5.67a1.93,1.93,0,0,1-.9,1.63l-6.78,4.24a.37.37,0,0,0-.18.33v2a.38.38,0,0,0,.58.32L81.12,21a1.94,1.94,0,0,0,.9-1.64V8.65A1.29,1.29,0,0,0,80.07,7.54Z"/><path class="cls-1" d="M20.73,101a63.4,63.4,0,0,1,1.63-14.28,4.24,4.24,0,0,0-.94-3.74l-.91-1a1.47,1.47,0,0,0-1.24-.51,1.51,1.51,0,0,0-1.38,1.2,68.12,68.12,0,0,0,33.78,72.65A63,63,0,0,1,20.73,101Z"/><path class="cls-1" d="M27,118a.79.79,0,0,0,1.46.18q2.2-4.11,4.86-8.45c2.55-4.15,5.13-7.95,7.66-11.41a.84.84,0,0,0,.16-.51c0-.63,0-1.21,0-1.75a.52.52,0,0,0-.9-.36c-2.31,2.35-4.7,5-7.11,7.84-2.05,2.45-3.91,4.86-5.6,7.18a6.19,6.19,0,0,0-1,4.88Q26.66,116.8,27,118Z"/><path class="cls-1" d="M30.49,128.05A.79.79,0,0,0,32,128c1.31-4,2.86-8.34,4.7-12.81,1.56-3.77,3.17-7.3,4.79-10.58a1.37,1.37,0,0,0,.13-.77c-.1-.71-.17-1.43-.23-2.15a.45.45,0,0,0-.83-.21c-2.16,3.44-4.34,7.19-6.48,11.24q-2.55,4.84-4.6,9.4a4.2,4.2,0,0,0-.08,3.3Q29.89,126.73,30.49,128.05Z"/><path class="cls-1" d="M35.37,136.69a.79.79,0,0,0,1.42-.31c.71-4.25,1.64-8.79,2.84-13.55,1.09-4.34,2.29-8.41,3.54-12.19a1.2,1.2,0,0,0-.06-.93,15.4,15.4,0,0,1-.74-1.93.42.42,0,0,0-.79,0c-1.29,3.16-2.56,6.53-3.76,10.1-1.61,4.76-2.91,9.3-4,13.56a5.07,5.07,0,0,0,.65,4C34.78,135.82,35.07,136.26,35.37,136.69Z"/><path class="cls-1" d="M41.66,144.4a.79.79,0,0,0,1.35-.53c.12-4.5.43-9.36,1-14.51.61-5.38,1.42-10.38,2.35-15a.79.79,0,0,0-.29-.78,8.66,8.66,0,0,1-.93-.85l-.38-.41a.51.51,0,0,0-.87.22c-1,3.92-2,8.13-2.8,12.63-.92,5-1.56,9.81-2,14.25a4.46,4.46,0,0,0,1.12,3.42C40.7,143.39,41.17,143.9,41.66,144.4Z"/><path class="cls-1" d="M49.86,116.86a.91.91,0,0,0-.31-.79l-1.34-1.15a.6.6,0,0,0-1,.36c-.69,4.92-1.24,10.31-1.5,16.12-.24,5.14-.24,10-.07,14.46a5.28,5.28,0,0,0,2,3.94l.57.44a.79.79,0,0,0,1.27-.68c-.38-4.81-.6-10-.56-15.59C49,127.82,49.33,122.09,49.86,116.86Z"/><path class="cls-1" d="M54.79,138.91c-.86-6.47-1.31-12.5-1.49-18h0L51.64,118a.51.51,0,0,0-1,.24c-.2,5.37-.18,11.25.19,17.57.32,5.47.87,10.59,1.55,15.32a4.62,4.62,0,0,0,2.29,3.38c.84.49,1.7.95,2.58,1.39a.34.34,0,0,0,.49-.38C56.62,150.48,55.58,144.92,54.79,138.91Z"/><path class="cls-1" d="M64.62,155.34h0c-1.41-4-2.78-8.4-4-13.07-1.3-4.87-2.33-9.52-3.14-13.9h0c-.71-1.33-1.51-2.77-2.34-4.26a.34.34,0,0,0-.64.2c.54,5,1.34,10.43,2.48,16.16,1.22,6.07,2.66,11.66,4.17,16.71a1.24,1.24,0,0,0,.74.81c.4.17.81.32,1.22.48a1.28,1.28,0,0,0,1.72-1.3Q64.71,156.24,64.62,155.34Z"/><path class="cls-1" d="M60.65,133.33c-.47.15,4.08,17.19,4.61,17.07.31-.07-.55-6.29-2.77-12.6C62.12,136.75,60.86,133.26,60.65,133.33Z"/><path class="cls-1" d="M36.67,50.11A11.48,11.48,0,0,1,38.24,45a1.92,1.92,0,0,1,2.69-.56l3.9,2.63a1,1,0,0,0,.32.22h0a1.22,1.22,0,0,0,1.33-.18l2.15-1.84A1.24,1.24,0,0,0,49,43.93l-3.15-8.62a6.83,6.83,0,0,1,.36-5.51l2-3.86a19.77,19.77,0,0,1,6.32-7.15l3.82-2.62a1.12,1.12,0,0,0,.36-.39l8.23-13.9A1.25,1.25,0,0,0,65.79,0a8,8,0,0,0-3.13.9L49.17,8a4.8,4.8,0,0,0-2.53,4.68l.22,2.37a.56.56,0,0,0,.89.4l3.94-2.83a.68.68,0,0,1,.86,1l-5.2,4.89a1.25,1.25,0,0,0-.28.37L41.94,29.76c-.16.35-.3.69-.43,1h0v0A10.31,10.31,0,0,0,41,33.05a14.47,14.47,0,0,0-.2,2.39c0,.41,0,1.33,0,2.7,0,.79-.05,1.43-.08,1.87a3.1,3.1,0,0,1-6.19-.14,1.41,1.41,0,0,0-1.41,1.37c0,2.68,1.36,6.23,2.8,9A.41.41,0,0,0,36.67,50.11Z"/><path class="cls-1" d="M107.12,26.34l-6.34,2.73a2.44,2.44,0,0,1-2.72-.55L97,27.41a1.19,1.19,0,0,0-.87-.37H88.7a1.19,1.19,0,0,0-.87.37l-1.06,1.11a2.44,2.44,0,0,1-2.72.55l-6.34-2.73a.8.8,0,0,1-.11-1.42l4.66-2.87a5.31,5.31,0,0,1,2.8-.79H99.77a5.31,5.31,0,0,1,2.8.79l4.66,2.87A.8.8,0,0,1,107.12,26.34Z"/><path class="cls-1" d="M100.9,14.2v4.14a.7.7,0,0,1-.7.69H84.63a.69.69,0,0,1-.7-.69V14.2a2.22,2.22,0,0,1,1.19-2l2.5-1.31a.4.4,0,0,1,.59.36v1.63a5.31,5.31,0,0,0,1.56,3.75,3.73,3.73,0,0,0,2.62,1.09h0a3.73,3.73,0,0,0,2.62-1.09,5.31,5.31,0,0,0,1.56-3.75V11.29a.4.4,0,0,1,.59-.36l2.5,1.31A2.22,2.22,0,0,1,100.9,14.2Z"/><path class="cls-1" d="M159,88.75l-1.65,1.88a.54.54,0,0,0-.15.38v4.4a2.13,2.13,0,0,1-3.34,1.76l-4.57-3.12a10.57,10.57,0,0,0-2.71-1.35L145,92.2a.7.7,0,0,0-.92.67v.44a.69.69,0,0,0,.56.68h0a3,3,0,0,1,1.59.9l12.17,13.19a1,1,0,0,0,1.73-.56A71,71,0,0,0,160,89.05.57.57,0,0,0,159,88.75Z"/><circle class="cls-1" cx="147.23" cy="39.88" r="1.89"/><path class="cls-1" d="M139.68,8.54v6.9a12.06,12.06,0,0,0,1.33,5.5l2.35,4.56a24.7,24.7,0,0,1,2.73,11.31V37a3.14,3.14,0,0,1,3.33.69h.28A2.43,2.43,0,0,0,152,36l1.12-3.34a6.4,6.4,0,0,0-.46-5.12L141.87,8A1.17,1.17,0,0,0,139.68,8.54Z"/><path class="cls-1" d="M171.69,76.29a5.5,5.5,0,0,0-2.53-4.64h0l-.08-.09,9.18-11.79a1.21,1.21,0,0,1,2.17.79l-.51,14a10.9,10.9,0,0,1-.7,3.5,11.15,11.15,0,0,1-1.78,3.1,12.74,12.74,0,0,0-2.82,7A48.79,48.79,0,0,1,172,101.29a.5.5,0,0,1-1-.2,67.33,67.33,0,0,0-2-20.12A5.51,5.51,0,0,0,171.69,76.29Z"/><path class="cls-1" d="M139.18,84.2l-.29-1.12a1.29,1.29,0,0,1,.66-1.49l4.4-2.25a.38.38,0,0,1,.53.22.35.35,0,0,1,0,.3,4.38,4.38,0,0,0-.46,2V82a1.26,1.26,0,0,1-.48,1.06l-2.27,1.81A1.3,1.3,0,0,1,139.18,84.2Z"/><path class="cls-1" d="M141.09,89.22l-.3-.47a1.31,1.31,0,0,1,.33-1.77l2.76-2a1.31,1.31,0,0,1,1.61.07h0a1.29,1.29,0,0,1,.3,1.61l-.22.41a1.27,1.27,0,0,1-.27.34l-2.25,2A1.3,1.3,0,0,1,141.09,89.22Z"/><path class="cls-1" d="M146.82,87.79a1.31,1.31,0,0,1,1.79,0l.48.44a1.29,1.29,0,0,1,0,1.88L148,91.21a1.33,1.33,0,0,1-1.27.34l-.74-.21a1.29,1.29,0,0,1-.56-2.17Z"/><path class="cls-1" d="M152.21,90.23h1.9a1.3,1.3,0,0,1,1.3,1.31l0,3.3a.78.78,0,0,1-1.16.67l-3.56-2.05a1.3,1.3,0,0,1-.22-2.1l.9-.8A1.28,1.28,0,0,1,152.21,90.23Z"/><path class="cls-1" d="M148.66,56.15l1.27,2.64a11.26,11.26,0,0,1,1.13,4.83l0,1.24a9.66,9.66,0,0,1-1.84,5.75l-4.11,5.66a.44.44,0,0,1-.15.12l-5.8,2.72a.38.38,0,0,1-.54-.36l.2-6.29a.46.46,0,0,1,.09-.23l2.21-2.62a3,3,0,0,0-.23,1.16A3.08,3.08,0,0,0,144,73.85c2.42,0,4.18-2.8,2.26-5.33l-.1-.1a3.65,3.65,0,0,0-2.57-.71.38.38,0,0,1-.32-.63l.3-.36a.33.33,0,0,0,.06-.1L148,56.17A.38.38,0,0,1,148.66,56.15Z"/><path class="cls-1" d="M140.54,48.07A33.76,33.76,0,0,0,143.62,46a1.1,1.1,0,0,1,1.7.28l.16.29a8,8,0,0,1,1,3.55l.15,3.86a.3.3,0,0,1,0,.16L144.19,60a.38.38,0,0,1-.7,0,3.09,3.09,0,0,0-2.85-1.91,2.93,2.93,0,0,0-.67.08l.48-.7a.44.44,0,0,0,.06-.16,74.75,74.75,0,0,0-.79-7.47A1.81,1.81,0,0,1,140.54,48.07Z"/><path class="cls-1" d="M141.78,65.79l-2.68,3.36a.38.38,0,0,1-.68-.21l-.28-5a.37.37,0,0,1,.61-.3,3.08,3.08,0,0,0,3.07.4.38.38,0,0,1,.5.5l-.49,1.18A.26.26,0,0,1,141.78,65.79Z"/><path class="cls-1" d="M158.33,49.64a.38.38,0,0,1-.63.13,3.1,3.1,0,0,0-2.19-.91,3.14,3.14,0,0,0-2.5,5l.08.09a3.33,3.33,0,0,0,2.77,1,.39.39,0,0,1,.41.51l-2.77,7.9a.38.38,0,0,1-.74-.13A11.4,11.4,0,0,0,151.48,58L150,55.22a4.73,4.73,0,0,1-.1-4.12l2.16-4.73A12.62,12.62,0,0,0,153,38.8l0-.13a.44.44,0,0,1,0-.2l2.48-7.28a1,1,0,0,1,1.95,0l1.89,5a15.07,15.07,0,0,1,.12,10.3Z"/><path class="cls-1" d="M166.79,70.37l0,0-.41.35h-.16a5.51,5.51,0,0,0-5.47,4.84l-.07.06-8.12,4.06a.38.38,0,0,1-.5-.14l0-.06a.38.38,0,0,1,0-.45l10.71-12.25a.36.36,0,0,1,.18-.12,3.07,3.07,0,0,0,2.2-2.95,3,3,0,0,0-.18-1,.5.5,0,0,1,0-.12V48.88a.38.38,0,0,0-.74-.13l-.27.71a.51.51,0,0,0,0,.13v11a.38.38,0,0,1-.55.34,3.08,3.08,0,0,0-2.82,5.48.38.38,0,0,1,.11.59L150.9,78a.38.38,0,0,1-.47.06,4.34,4.34,0,0,0-4.48.15l0-.13,3.56-4.68a39.12,39.12,0,0,0,5.6-10.27l7.55-20.83a.22.22,0,0,1,0-.08l5.78-8.27a1.36,1.36,0,0,1,2.47.78V61.77A9.88,9.88,0,0,1,168.73,68Z"/><path class="cls-1" d="M128.23,27.21l-3.12-1.79a.7.7,0,0,1-.31-.39l-2.22-7.51a.67.67,0,0,1,1-.75L130.27,21a14.1,14.1,0,0,1,4.9,5.27L137,29.63a6.26,6.26,0,0,1,.3,5.23l-2.6,6.62a.67.67,0,0,1-1.21.08l-1.2-2.17a.73.73,0,0,1-.08-.33V35.69a.63.63,0,0,0-.09-.33l-2.13-3.64a4,4,0,0,1-.55-2.25v-.13A2.31,2.31,0,0,0,128.23,27.21Z"/><path class="cls-1" d="M152.61,82.26c0-.14.09-.26.54-.46l7.49-3.42a.37.37,0,0,1,.5.18,5.56,5.56,0,0,0,.45.79,2.18,2.18,0,0,1-.17,2.63l-5.83,6.65a.38.38,0,0,1-.26.13l-3.28.23a.37.37,0,0,1-.28-.1l-2.52-2.26a.38.38,0,0,1,.16-.65A4.33,4.33,0,0,0,152.61,82.26Z"/><path class="cls-1" d="M154.1,53.49l-.1-.1a2.08,2.08,0,0,1,1.51-3.48,2,2,0,0,1,2,2v0a2,2,0,0,1-.46,1.29h0A2.12,2.12,0,0,1,154.1,53.49Z"/><path class="cls-1" d="M160.5,62.34a.47.47,0,0,1,.1-.1,2.09,2.09,0,0,1,3.28.69,2.32,2.32,0,0,1-.51,2.51.37.37,0,0,1-.19.12,3,3,0,0,1-1.44.2A2.08,2.08,0,0,1,160.5,62.34Z"/><path class="cls-1" d="M139.2,59.66a2.09,2.09,0,0,1,3,2.94.43.43,0,0,1-.09.1,2.09,2.09,0,0,1-3-3A.38.38,0,0,1,139.2,59.66Z"/><path class="cls-1" d="M142.57,69.24a2.1,2.1,0,0,1,2.94,3l-.1.09a2.09,2.09,0,0,1-2.94-3A.47.47,0,0,1,142.57,69.24Z"/><path class="cls-1" d="M146.54,79.59a2.82,2.82,0,0,1,1.77-.62,2.78,2.78,0,0,1,1.38.36,2.83,2.83,0,0,1,1.12,1.13.93.93,0,0,1,.05.1,2.77,2.77,0,0,1,.29,1.25,2.7,2.7,0,0,1-.18,1,2.82,2.82,0,0,1-1.49,1.6,2.85,2.85,0,0,1-1.17.25,2.81,2.81,0,0,1-1.72-.58,2.65,2.65,0,0,1-.57-.59,2.76,2.76,0,0,1-.55-1.66A2.84,2.84,0,0,1,146.54,79.59Z"/><path class="cls-1" d="M163.47,73.68l.09-.09c3.86-2.87,8.18,1.45,5.31,5.31l-.09.09C164.92,81.84,160.62,77.54,163.47,73.68Z"/><path class="cls-1" d="M116.9,23.49,126.54,28a1.59,1.59,0,0,1,.9,1.6,4.87,4.87,0,0,0,.79,3.21l1.28,1.92a.41.41,0,0,1-.52.6l-8-3.75a.44.44,0,0,1-.19-.17l-4.39-7.37A.42.42,0,0,1,116.9,23.49Z"/><path class="cls-1" d="M104.77,7.54l12.63,7.52a.32.32,0,0,1,.14.14l4.76,8.47a.39.39,0,0,1-.51.53l-6.41-3.35a.38.38,0,0,0-.55.34v.74a.38.38,0,0,1-.58.33l-6.81-3.88a1.61,1.61,0,0,1-.82-1.4V15.22a.78.78,0,0,1,1.16-.67l5.31,3a.38.38,0,0,0,.57-.33V15.47a.4.4,0,0,0-.2-.33L106.17,11a1,1,0,0,0-1.55.89v5.67a1.93,1.93,0,0,0,.91,1.63l6.78,4.24a.39.39,0,0,1,.18.33v2a.38.38,0,0,1-.58.32L103.72,21a1.94,1.94,0,0,1-.9-1.64V8.65A1.29,1.29,0,0,1,104.77,7.54Z"/><path class="cls-1" d="M164.1,101a63.4,63.4,0,0,0-1.62-14.28,4.23,4.23,0,0,1,.93-3.74l.91-1a1.52,1.52,0,0,1,2.63.69,68.21,68.21,0,0,1-33.78,72.65A63,63,0,0,0,164.1,101Z"/><path class="cls-1" d="M157.87,118a.78.78,0,0,1-1.45.18q-2.21-4.11-4.87-8.45c-2.55-4.15-5.13-7.95-7.65-11.41a.78.78,0,0,1-.16-.51c0-.63,0-1.21,0-1.75a.52.52,0,0,1,.89-.36c2.31,2.35,4.7,5,7.11,7.84,2.05,2.45,3.92,4.86,5.6,7.18a6.16,6.16,0,0,1,1.06,4.88C158.25,116.39,158.07,117.19,157.87,118Z"/><path class="cls-1" d="M154.35,128.05a.78.78,0,0,1-1.46-.09c-1.31-4-2.86-8.34-4.7-12.81-1.56-3.77-3.17-7.3-4.79-10.58a1.37,1.37,0,0,1-.13-.77c.09-.71.16-1.43.22-2.15a.45.45,0,0,1,.83-.21c2.16,3.44,4.35,7.19,6.49,11.24,1.7,3.23,3.22,6.37,4.59,9.4a4.2,4.2,0,0,1,.09,3.3Q155,126.73,154.35,128.05Z"/><path class="cls-1" d="M149.47,136.69a.78.78,0,0,1-1.42-.31c-.72-4.25-1.64-8.79-2.84-13.55-1.09-4.34-2.3-8.41-3.55-12.19a1.25,1.25,0,0,1,.07-.93,14,14,0,0,0,.73-1.93.43.43,0,0,1,.8,0c1.29,3.16,2.56,6.53,3.76,10.1,1.6,4.76,2.91,9.3,4,13.56a5.07,5.07,0,0,1-.64,4Z"/><path class="cls-1" d="M143.18,144.4a.79.79,0,0,1-1.35-.53c-.13-4.5-.44-9.36-1-14.51-.61-5.38-1.43-10.38-2.35-15a.79.79,0,0,1,.29-.78,8.64,8.64,0,0,0,.92-.85l.39-.41a.51.51,0,0,1,.86.22c1,3.92,2,8.13,2.8,12.63.92,5,1.56,9.81,2,14.25a4.49,4.49,0,0,1-1.12,3.42C144.14,143.39,143.66,143.9,143.18,144.4Z"/><path class="cls-1" d="M135,116.86a.91.91,0,0,1,.31-.79l1.34-1.15a.59.59,0,0,1,1,.36c.7,4.92,1.24,10.31,1.51,16.12.24,5.14.23,10,.06,14.46a5.24,5.24,0,0,1-2,3.94l-.57.44a.78.78,0,0,1-1.26-.68c.38-4.81.6-10,.56-15.59C135.86,127.82,135.51,122.09,135,116.86Z"/><path class="cls-1" d="M130.05,138.91c.86-6.47,1.31-12.5,1.49-18h0l1.65-2.87a.51.51,0,0,1,1,.24c.2,5.37.19,11.25-.18,17.57-.32,5.47-.87,10.59-1.55,15.32a4.65,4.65,0,0,1-2.29,3.38c-.85.49-1.71.95-2.58,1.39a.34.34,0,0,1-.49-.38C128.22,150.48,129.25,144.92,130.05,138.91Z"/><path class="cls-1" d="M120.22,155.34h0c1.41-4,2.78-8.4,4-13.07,1.31-4.87,2.33-9.52,3.15-13.9h0c.71-1.33,1.5-2.77,2.34-4.26a.34.34,0,0,1,.64.2c-.55,5-1.34,10.43-2.49,16.16-1.21,6.07-2.65,11.66-4.17,16.71a1.26,1.26,0,0,1-.73.81l-1.22.48a1.28,1.28,0,0,1-1.72-1.3Q120.13,156.24,120.22,155.34Z"/><path class="cls-1" d="M125.52,130.74c.66.21-6,24.3-7,24-.49-.11.17-4.88.62-7.27a42.09,42.09,0,0,1,2.47-8.33c.71-1.73,1.37-3.21,2.21-5A22,22,0,0,1,125.52,130.74Z"/><path class="cls-1" d="M148.17,50.11A11.48,11.48,0,0,0,146.6,45a1.93,1.93,0,0,0-2.7-.56L140,47.1a1.19,1.19,0,0,1-.33.22h0a1.21,1.21,0,0,1-1.33-.18L136.2,45.3a1.26,1.26,0,0,1-.36-1.37L139,35.31a6.83,6.83,0,0,0-.36-5.51l-2-3.86a19.77,19.77,0,0,0-6.32-7.15l-3.82-2.62a1.26,1.26,0,0,1-.37-.39L117.9,1.88A1.25,1.25,0,0,1,119,0a8,8,0,0,1,3.14.9L135.66,8a4.76,4.76,0,0,1,2.53,4.68L138,15.07a.56.56,0,0,1-.88.4l-3.94-2.83a.68.68,0,0,0-.86,1l5.2,4.89a1.22,1.22,0,0,1,.27.37l5.14,10.81a10.44,10.44,0,0,1,.42,1h0v0a11.63,11.63,0,0,1,.52,2.23,15.66,15.66,0,0,1,.2,2.39c0,.41,0,1.33,0,2.7,0,.79.06,1.43.09,1.87a3.1,3.1,0,0,0,6.19-.14,1.4,1.4,0,0,1,1.4,1.37c0,2.68-1.35,6.23-2.79,9A.41.41,0,0,1,148.17,50.11Z"/><path class="cls-1" d="M112.13,64.08c-.11.2-.19.41-.31.62A2.81,2.81,0,0,1,112.13,64.08Z"/><path class="cls-1" d="M126.51,64.09a1.23,1.23,0,0,1-.76,0A1.78,1.78,0,0,0,126.51,64.09Z"/><path class="cls-1" d="M125.75,64.08a1.23,1.23,0,0,0,.76,0A1.78,1.78,0,0,1,125.75,64.08Zm-13.62,0a2.81,2.81,0,0,0-.31.62C111.94,64.49,112,64.28,112.13,64.08Z"/><path class="cls-1" d="M141.62,93.67s0,0,0,0a.9.9,0,0,0-.52-.45,9.51,9.51,0,0,1-2-1.25c-.3-.28-.47-.68-.81-.92-.53-.37-1.22-.16-1.75-.5a1.72,1.72,0,0,1-.78-1.18c0-.36.15-.57,1.18-2,.67-.91.73-1,.78-1.18.2-.59,0-.81,0-2s.2-1.44,0-1.57-1,.57-2.75,1.57c-1,.55-2,.93-3,1.57-.36.24-.94.73-1.14.12a2.73,2.73,0,0,1,.16-1.29,6.48,6.48,0,0,1,1.18-2.37,9.06,9.06,0,0,0,1.21-3.74,49.57,49.57,0,0,0,1-10.3,53,53,0,0,1,0-6.67,11.72,11.72,0,0,1,.73-3.08c.37-.91.91-1.74,1.26-2.66a10.26,10.26,0,0,0,.69-3c.13-2-1-3.77-3.12-7.38-.59-1-1.13-2-1.77-3-1-1.49-1.49-2-1.44-3a1.92,1.92,0,0,0-.14-1.28,1.82,1.82,0,0,0-1-.57c-.48-.18-1.17-.46-2-.87l-7-3a3.94,3.94,0,0,1-1.69-1.44l-3.8-5.79a.7.7,0,0,0-1.29.36l0,.59a1.59,1.59,0,0,1-.66,1.28,1.57,1.57,0,0,1-1.59.11l-1.88-1a2.3,2.3,0,0,0-2,0L100.76,31a2.73,2.73,0,0,1-3-.48l-.88-.82A2.69,2.69,0,0,0,95,29l-2.57.05L89.85,29a2.64,2.64,0,0,0-1.91.72l-.88.81a2.69,2.69,0,0,1-3,.48l-6.86-3.18a2.3,2.3,0,0,0-2,0l-1.88,1a1.57,1.57,0,0,1-1,.13,1.54,1.54,0,0,1-1.21-1.45l0-.66a.7.7,0,0,0-1.29-.36L66,32.29a4,4,0,0,1-1.69,1.45L55.65,37.6a2.41,2.41,0,0,0-1.43,2.11c0,1-.11,2.42-.15,3.31h0c-.08,2.45-.35,6.18-.84,11.47a48.3,48.3,0,0,1,6.3-3.55A42.73,42.73,0,0,1,70.17,47.4a29.47,29.47,0,0,1,12.2,0c2.62.6,4.13,1.39,5.12,2.76,2.18,3,1,7.21.23,9.62-.94,3.13-2.49,5-4.7,7.74a13.19,13.19,0,0,1-2.81,2.41,4.09,4.09,0,0,1-2,.72c-.11,0-.29,0-.56,0a7.09,7.09,0,0,1-4-1.86,11.34,11.34,0,0,1-1.09-1.2,1.81,1.81,0,0,1-.43-.93c-.11-1,1-1.89,1.39-2.75a1,1,0,0,0,.16-.74.73.73,0,0,0-.39-.4c-.42-.16-.78.19-1.12.38-1.26.7-2.67.43-4,.29a21.82,21.82,0,0,0-2.29-.13c-.72,0-1.44.07-2.16.07a10.82,10.82,0,0,0-3.24.53,11.8,11.8,0,0,0-2.77,1.22,11.64,11.64,0,0,0-2.49,2c1.76-.35,3.24-.61,4.33-.79a30.46,30.46,0,0,1,4.52-.54,9,9,0,0,1,3.75.54,3.47,3.47,0,0,1,1.57,1.18,2.49,2.49,0,0,1,.4.79,3,3,0,0,1-.56,2.23,6.49,6.49,0,0,1-2.45,2.18c-5.15,2.87-4.76,2.67-5,2.82-2.29,1.19-4.7,2.28-6.9,3.62A5.76,5.76,0,0,0,52.59,83c-.34,2.26.88,4.07,3.35,7.61a36.48,36.48,0,0,0,4.59,5.57c2.3,2.27,4.7,4.65,8.55,6,1.84.64,4.17,1.52,6.24.41a9,9,0,0,0,3.06-3,18.76,18.76,0,0,0,2.28-3.86,14.71,14.71,0,0,0,.73-4c.31-3.07.21-3.19.39-3.93a9.77,9.77,0,0,1,3.1-4.69c1.61-1.46,3.48-2.62,5.17-4a4.13,4.13,0,0,1,2.36-1.18,4.35,4.35,0,0,1,2.76,1.18c2.89,2.12,3.41,2.85,6.69,5.91.93.86,1.64,1.5,1.58,2.36-.07,1-1.24,1.76-1.58,2-1.4.87-3.31.69-4.88,1.08,0,0-3.94.61-8.9,5.62a1,1,0,0,0-.33.66c0,.45.47.83,1.69,1.5,1.64.89,2.46,1.34,3,1.3a6.45,6.45,0,0,0,2.89-1.42c.53-.36.47-.37.66-.47,2-1,5.35,1.59,7.87,3.54,1.11.86,2.12,1.82,3.15,2.76a5.35,5.35,0,0,0,.47.38,4,4,0,0,0,1.08.62c.28.1.42.11.42.18s-.56.3-.86.37a5.22,5.22,0,0,1-2.68-.37,30.66,30.66,0,0,0-3.19-.69c-1-.15-1.74-.21-2.36-.25a21.42,21.42,0,0,0-2.69-.06c-1.5.07-2.26.11-2.89.56-.36.26-.75.49-1.1.78s-.5.45-.77.46-.44-.14-.78-.41-.68-.51-1.2-.85c0,0,0,0,0,0a3.28,3.28,0,0,0-1.17-.4,14.15,14.15,0,0,0-4.6.76A25.18,25.18,0,0,0,82,106c-2.28,1-2.57,1.55-2.57,1.91a1,1,0,0,0,.18.51c.33.61.88,1,3,2,.86.38,1.29.58,1.8.75a15.36,15.36,0,0,0,2.21.54,9.38,9.38,0,0,0,4.14.19c.54-.18.69-.25.69-.25a2.37,2.37,0,0,1,.5-.2,1.74,1.74,0,0,1,.47-.06,1.81,1.81,0,0,1,.52.07,2,2,0,0,1,.46.19,3,3,0,0,0,1,.28,12.54,12.54,0,0,0,2.6,0,14.51,14.51,0,0,0,5.67-1.77,8.43,8.43,0,0,0,2.31-1.48,3.21,3.21,0,0,0,.26-.3,2.25,2.25,0,0,0,.24-.37,7,7,0,0,1-.42,1.86c-.13.37-.64,1.62-2.86,3.75a24.64,24.64,0,0,1-2.21,1.89,29,29,0,0,1-4.56,3.11c-4.37,2.21-6,1.12-8.54,3.15a3.67,3.67,0,0,0-1.51,3.08,4.75,4.75,0,0,0,.81,2.2,8.65,8.65,0,0,0,4.79,3.26,32.75,32.75,0,0,0,8.43.95,47,47,0,0,0,8.8-.35c.85-.13,1.68-.3,2.51-.51a27.76,27.76,0,0,0,13.38-8.43,48.41,48.41,0,0,0,3-3.84c.06-.08.23-.29.47-.55a5.91,5.91,0,0,1,1.25-1c-.54.93-1.3,2.26-2.18,3.88-1.27,2.3-2.56,4.74-3.4,6.4a78.82,78.82,0,0,0-6.1,16,31.77,31.77,0,0,0-.7,6.42l0,.75a26.64,26.64,0,0,0,.4,3.15,51.2,51.2,0,0,1,1.57-9.06c1.12-4.17,2.58-7.24,5.51-13.39,0,0,3.13-6.54,6.7-12.6,1.33-2.26,3-4.87,3.13-5.08l0,0c0,.09-.27.9,0,1.17s.65,0,.78,0c2.39-.82,3.52-3.46,4.38-5.61A37.62,37.62,0,0,0,141.53,98c.12-1.33,0-2.67.1-4A1.08,1.08,0,0,0,141.62,93.67ZM126.27,54.62l-.56,0a44.68,44.68,0,0,0-8.34,0c-1.53.2-3.29.56-4.35,1.76-.17.2-.68.76-.52,1.06s.54.19.7.19a21.81,21.81,0,0,1,5.53.87,12.38,12.38,0,0,1,2.33.89,14.51,14.51,0,0,1,5.06,3.67c.52.59.6.8.53.93l-.06.07-.08,0a1.23,1.23,0,0,1-.76,0l-.14,0-.14,0-.45-.08H125c-1.36-.22-3.9-.46-8.26-.71h-.18c-.75,0-1.4-.05-2-.05-1.12,0-1.55.06-1.92.35l-.1.08a2.87,2.87,0,0,0-.39.46l0,0h0c-.11.2-.19.41-.31.62,0,0,0,0,0,0-1,1.87-4.2,2-4.39,2a6.08,6.08,0,0,1-4.11-1.42c-1.19-1-1.49-2.34-2.09-4.91a36.69,36.69,0,0,1-.64-7.26,6.23,6.23,0,0,1,.57-3.19,5.76,5.76,0,0,1,.63-1c1.23-1.52,3.61-1.89,5.44-2a33.47,33.47,0,0,1,8.68,1c.69.14,1.38.3,2.08.47l1,.26c.68.18,1.37.37,2,.57l.71.22q.66.19,1.32.42l.56.19.2.07.25.09c.72.26,1.42.51,2.12.8l.68.3.87.42.5.28c1.27.72,2.5,1.54,3.69,2.38.25.18.8.58.72.75s-1.21-.12-1.41-.16A27.76,27.76,0,0,0,126.27,54.62Z"/><rect class="cls-1" x="89.9" y="7.36" width="5.03" height="8.6" rx="2.52"/><path class="cls-1" d="M16.44,188.73v13a1.57,1.57,0,0,1-1.57,1.57h0a1.56,1.56,0,0,1-1.56-1.57v-6.91l-3.11,6.73a.79.79,0,0,1-.72.46H7a.79.79,0,0,1-.72-.46l-3.1-6.76v6.94a1.57,1.57,0,0,1-1.57,1.57h0A1.57,1.57,0,0,1,0,201.74v-13a1.49,1.49,0,0,1,1.49-1.49h.45a1.9,1.9,0,0,1,1.74,1.12l4.56,9.91,4.55-9.91a1.92,1.92,0,0,1,1.75-1.12H15A1.49,1.49,0,0,1,16.44,188.73Z"/><path class="cls-1" d="M42.32,203.31h0a1.48,1.48,0,0,1-1.37-.92L40.8,202a7.89,7.89,0,0,1-4.36,1.29A7.72,7.72,0,0,1,32.11,202l-.15.37a1.48,1.48,0,0,1-1.37.92h0a1.47,1.47,0,0,1-1.36-2l5.27-13.13a1.48,1.48,0,0,1,1.37-.92H37a1.48,1.48,0,0,1,1.37.92l5.27,13.13A1.47,1.47,0,0,1,42.32,203.31Zm-2.65-4.09-2.28-5.65-1-2.37-3.2,8a5,5,0,0,0,3.2,1.14A5.08,5.08,0,0,0,39.67,199.22Z"/><path class="cls-1" d="M69.51,200.73a8.08,8.08,0,1,1,0-11,1.5,1.5,0,0,1-.26,2.25h0a1.48,1.48,0,0,1-1.92-.21,5.12,5.12,0,0,0-4.73-1.53,5.08,5.08,0,0,0,1,10.05,5,5,0,0,0,3.72-1.64,1.45,1.45,0,0,1,1.83-.25h0A1.49,1.49,0,0,1,69.51,200.73Z"/><path class="cls-1" d="M95.16,188.82v12.91a1.59,1.59,0,0,1-1.59,1.58H92V202H84.58v1.29H83a1.58,1.58,0,0,1-1.58-1.58V188.82A1.58,1.58,0,0,1,83,187.24h0a1.58,1.58,0,0,1,1.58,1.58v10H92v-10a1.58,1.58,0,0,1,1.58-1.58h0A1.59,1.59,0,0,1,95.16,188.82Z"/><path class="cls-1" d="M107.29,203.31V190.4a3.17,3.17,0,0,1,3.16-3.16h0v12.91a3.16,3.16,0,0,1-3.16,3.16Z"/><path class="cls-1" d="M133.42,187.24a1.58,1.58,0,0,1,1.58,1.58V201.4a1.9,1.9,0,0,1-1.91,1.91h-1.25v-1.44l-7-9.34v10.78h-1.58a1.58,1.58,0,0,1-1.58-1.58V188.82a1.58,1.58,0,0,1,1.58-1.58h.79a1.58,1.58,0,0,1,1.27.63l6.5,8.71v-7.76a1.58,1.58,0,0,1,1.58-1.58Z"/><path class="cls-1" d="M184.84,202.18v1.13h-11.1V187.24h8.81a1.76,1.76,0,0,1,1.76,1.76v1.4h-7.4v3.29h4.7v3.17h-4.7v3.29h5.9A2,2,0,0,1,184.84,202.18Z"/><path class="cls-1" d="M160.51,203.31h0a1.45,1.45,0,0,1-1.36-.92L159,202a7.91,7.91,0,0,1-4.36,1.29A7.75,7.75,0,0,1,150.3,202l-.15.37a1.45,1.45,0,0,1-1.36.92h0a1.48,1.48,0,0,1-1.37-2l5.28-13.13a1.45,1.45,0,0,1,1.36-.92h1.18a1.45,1.45,0,0,1,1.36.92l5.28,13.13A1.48,1.48,0,0,1,160.51,203.31Zm-2.65-4.09-2.27-5.65-1-2.37-3.2,8a5,5,0,0,0,3.2,1.14A5.07,5.07,0,0,0,157.86,199.22Z"/><path class="cls-2" d="M83.94,224.09h0a2.28,2.28,0,0,1-2.28,2.28H76.07v-9.31a2.28,2.28,0,0,1,2.28-2.28h0v9.31Z"/><path class="cls-2" d="M97.05,222.74a3.64,3.64,0,0,1-3.63,3.63H90.17A1.38,1.38,0,0,1,88.78,225V214.78h3.06a3.47,3.47,0,0,1,3.08,1.77,3.09,3.09,0,0,1,0,2.91A3.59,3.59,0,0,1,97.05,222.74Zm-6-3.64h1a1.09,1.09,0,1,0,0-2.17h-1v2.17Zm3.81,3.64a1.47,1.47,0,0,0-1.46-1.47H91.07v2.33a.6.6,0,0,0,.6.6h1.75A1.46,1.46,0,0,0,94.88,222.74Z"/><path class="cls-2" d="M68.74,226.37h0a1.05,1.05,0,0,1-1-.66l-.11-.27a5.71,5.71,0,0,1-3.15.93,5.59,5.59,0,0,1-3.13-.93l-.1.27a1.08,1.08,0,0,1-1,.66h0a1.06,1.06,0,0,1-1-1.45l3.8-9.48a1.06,1.06,0,0,1,1-.66h.85a1.05,1.05,0,0,1,1,.66l3.8,9.48A1.06,1.06,0,0,1,68.74,226.37Zm-1.91-3-1.64-4.08-.69-1.7-2.31,5.78a3.69,3.69,0,0,0,4.64,0Z"/><path class="cls-2" d="M111.46,226.37h0a1.05,1.05,0,0,1-1-.66l-.11-.27a5.71,5.71,0,0,1-3.15.93,5.59,5.59,0,0,1-3.13-.93l-.1.27a1.08,1.08,0,0,1-1,.66h0a1.06,1.06,0,0,1-1-1.45l3.8-9.48a1.06,1.06,0,0,1,1-.66h.85a1.05,1.05,0,0,1,1,.66l3.8,9.48A1.06,1.06,0,0,1,111.46,226.37Zm-1.91-3-1.64-4.08-.69-1.7-2.3,5.78a3.59,3.59,0,0,0,2.3.82A3.67,3.67,0,0,0,109.55,223.42Z"/><path class="cls-2" d="M125.62,225.55v.82h-8V214.78H124a1.27,1.27,0,0,1,1.27,1.27v1H119.9v2.37h3.39v2.29H119.9v2.37h4.25A1.46,1.46,0,0,1,125.62,225.55Z"/></g></g></svg>