<svg xmlns="http://www.w3.org/2000/svg" viewBox="0 0 529.53 158.55"><defs><style>.cls-1{fill:#fff;}.cls-2{fill:#999;}</style></defs><g id="Слой_2" data-name="Слой 2"><g id="Логотипы"><path class="cls-1" d="M21.47,88.75l1.65,1.88a.58.58,0,0,1,.15.38v4.4a2.13,2.13,0,0,0,3.34,1.76l4.56-3.12a10.79,10.79,0,0,1,2.72-1.35l1.52-.5a.71.71,0,0,1,.92.67v.44a.69.69,0,0,1-.56.68h0a3,3,0,0,0-1.59.9L22,108.08a1,1,0,0,1-1.73-.56,70.51,70.51,0,0,1,.19-18.47A.57.57,0,0,1,21.47,88.75Z"/><circle class="cls-1" cx="33.19" cy="39.88" r="1.89"/><path class="cls-1" d="M40.74,8.54v6.9a12.06,12.06,0,0,1-1.33,5.5L37.06,25.5a24.7,24.7,0,0,0-2.73,11.31V37a3.14,3.14,0,0,0-3.33.69h-.28A2.46,2.46,0,0,1,28.4,36l-1.11-3.34a6.4,6.4,0,0,1,.46-5.12L38.55,8A1.17,1.17,0,0,1,40.74,8.54Z"/><path class="cls-1" d="M8.73,76.29a5.5,5.5,0,0,1,2.53-4.64h0l.08-.09L2.17,59.76A1.21,1.21,0,0,0,0,60.55l.51,14a10.9,10.9,0,0,0,.7,3.5A11.15,11.15,0,0,0,3,81.18a12.74,12.74,0,0,1,2.82,7,48.79,48.79,0,0,0,2.58,13.07.5.5,0,0,0,1-.2,67.65,67.65,0,0,1,2-20.12A5.53,5.53,0,0,1,8.73,76.29Z"/><path class="cls-1" d="M41.23,84.2l.3-1.12a1.29,1.29,0,0,0-.66-1.49l-4.4-2.25a.38.38,0,0,0-.53.22.35.35,0,0,0,0,.3,4.38,4.38,0,0,1,.46,2V82a1.26,1.26,0,0,0,.48,1.06l2.26,1.81A1.3,1.3,0,0,0,41.23,84.2Z"/><path class="cls-1" d="M39.33,89.22l.3-.47A1.31,1.31,0,0,0,39.3,87l-2.77-2a1.29,1.29,0,0,0-1.6.07h0a1.29,1.29,0,0,0-.3,1.61l.22.41a1.27,1.27,0,0,0,.27.34l2.25,2A1.3,1.3,0,0,0,39.33,89.22Z"/><path class="cls-1" d="M33.6,87.79a1.31,1.31,0,0,0-1.79,0l-.48.44a1.29,1.29,0,0,0,0,1.88l1.13,1.14a1.33,1.33,0,0,0,1.27.34l.73-.21A1.29,1.29,0,0,0,35,89.17Z"/><path class="cls-1" d="M28.21,90.23h-1.9A1.3,1.3,0,0,0,25,91.54l0,3.3a.78.78,0,0,0,1.16.67l3.56-2.05a1.3,1.3,0,0,0,.21-2.1l-.89-.8A1.28,1.28,0,0,0,28.21,90.23Z"/><path class="cls-1" d="M31.76,56.15l-1.27,2.64a11.26,11.26,0,0,0-1.13,4.83l0,1.24a9.66,9.66,0,0,0,1.84,5.75l4.11,5.66a.44.44,0,0,0,.15.12l5.8,2.72a.38.38,0,0,0,.54-.36l-.2-6.29a.46.46,0,0,0-.09-.23l-2.21-2.62a3,3,0,0,1,.22,1.16,3.07,3.07,0,0,1-3.08,3.08c-2.42,0-4.19-2.8-2.26-5.33l.1-.1a3.65,3.65,0,0,1,2.57-.71.38.38,0,0,0,.32-.63l-.3-.36a.21.21,0,0,1-.06-.1L32.46,56.17A.38.38,0,0,0,31.76,56.15Z"/><path class="cls-1" d="M39.87,48.07A34.85,34.85,0,0,1,36.8,46a1.1,1.1,0,0,0-1.7.28l-.16.29a8,8,0,0,0-1,3.55L33.78,54a.3.3,0,0,0,0,.16L36.23,60a.38.38,0,0,0,.7,0,3.09,3.09,0,0,1,2.85-1.91,2.93,2.93,0,0,1,.67.08l-.48-.7a.44.44,0,0,1-.06-.16,74.75,74.75,0,0,1,.79-7.47A1.82,1.82,0,0,0,39.87,48.07Z"/><path class="cls-1" d="M38.64,65.79l2.68,3.36a.38.38,0,0,0,.68-.21l.28-5a.37.37,0,0,0-.61-.3,3.08,3.08,0,0,1-3.07.4.38.38,0,0,0-.5.5l.49,1.18A.26.26,0,0,0,38.64,65.79Z"/><path class="cls-1" d="M22.09,49.64a.38.38,0,0,0,.63.13,3.1,3.1,0,0,1,2.19-.91,3.14,3.14,0,0,1,2.49,5l-.07.09a3.34,3.34,0,0,1-2.77,1,.39.39,0,0,0-.41.51l2.76,7.9a.39.39,0,0,0,.75-.13A11.4,11.4,0,0,1,28.94,58l1.47-2.81a4.73,4.73,0,0,0,.1-4.12l-2.16-4.73a12.62,12.62,0,0,1-.93-7.57l0-.13a.44.44,0,0,0,0-.2L25,31.19a1,1,0,0,0-1.95,0l-1.89,5A15.07,15.07,0,0,0,21,46.49Z"/><path class="cls-1" d="M13.63,70.37l0,0,.42.35h.16a5.51,5.51,0,0,1,5.47,4.84l.07.06,8.12,4.06a.37.37,0,0,0,.49-.14l0-.06a.38.38,0,0,0,0-.45L17.69,66.83a.36.36,0,0,0-.18-.12,3.07,3.07,0,0,1-2.2-2.95,3,3,0,0,1,.18-1,.5.5,0,0,0,0-.12V48.88a.38.38,0,0,1,.74-.13l.27.71a.51.51,0,0,1,0,.13v11a.38.38,0,0,0,.55.34,3.08,3.08,0,0,1,2.82,5.48.38.38,0,0,0-.11.59l9.72,11A.38.38,0,0,0,30,78a4.34,4.34,0,0,1,4.48.15l.05-.13L31,73.38a39.12,39.12,0,0,1-5.6-10.27L17.81,42.28a.22.22,0,0,0,0-.08L12,33.93a1.36,1.36,0,0,0-2.47.78V61.77A9.88,9.88,0,0,0,11.69,68Z"/><path class="cls-1" d="M52.18,27.21l3.13-1.79a.7.7,0,0,0,.31-.39l2.22-7.51a.67.67,0,0,0-1-.75L50.15,21a14.1,14.1,0,0,0-4.9,5.27l-1.78,3.37a6.26,6.26,0,0,0-.3,5.23l2.6,6.62a.67.67,0,0,0,1.21.08l.48-.86a6.59,6.59,0,0,0,.8-3.13V35.69a.63.63,0,0,1,.09-.33l2.13-3.64A4,4,0,0,0,51,29.47v-.13A2.32,2.32,0,0,1,52.18,27.21Z"/><path class="cls-1" d="M27.81,82.26c0-.14-.09-.26-.54-.46l-7.49-3.42a.38.38,0,0,0-.51.18,4.69,4.69,0,0,1-.44.79A2.18,2.18,0,0,0,19,82l5.83,6.65a.36.36,0,0,0,.26.13l3.28.23a.37.37,0,0,0,.28-.1l2.52-2.26A.38.38,0,0,0,31,86,4.33,4.33,0,0,1,27.81,82.26Z"/><path class="cls-1" d="M26.32,53.49l.1-.1a2.08,2.08,0,0,0-1.51-3.48,2,2,0,0,0-2,2,0,0,0,0,0,0,0,2,2,0,0,0,.47,1.29h0A2.12,2.12,0,0,0,26.32,53.49Z"/><path class="cls-1" d="M19.92,62.34a.47.47,0,0,0-.1-.1,2.09,2.09,0,0,0-3.28.69,2.34,2.34,0,0,0,.5,2.51.47.47,0,0,0,.19.12,3.08,3.08,0,0,0,1.45.2A2.08,2.08,0,0,0,19.92,62.34Z"/><path class="cls-1" d="M41.21,59.66a2.09,2.09,0,0,0-3,2.94.28.28,0,0,0,.09.1,2.09,2.09,0,0,0,3-3A.28.28,0,0,0,41.21,59.66Z"/><path class="cls-1" d="M37.85,69.24a2.1,2.1,0,0,0-2.94,3l.1.09a2.09,2.09,0,0,0,2.94-3A.47.47,0,0,0,37.85,69.24Z"/><path class="cls-1" d="M33.88,79.59a2.85,2.85,0,0,0-3.16-.26,2.87,2.87,0,0,0-1.11,1.13.31.31,0,0,0-.05.1,2.77,2.77,0,0,0-.29,1.25,2.93,2.93,0,0,0,.17,1,2.85,2.85,0,0,0,2.67,1.85,2.81,2.81,0,0,0,1.72-.58,2.89,2.89,0,0,0,.57-.59,2.84,2.84,0,0,0-.52-3.88Z"/><path class="cls-1" d="M17,73.68l-.1-.09C13,70.72,8.68,75,11.55,78.9l.09.09C15.5,81.84,19.8,77.54,17,73.68Z"/><path class="cls-1" d="M63.52,23.49,53.88,28a1.59,1.59,0,0,0-.9,1.6,4.87,4.87,0,0,1-.79,3.21l-1.28,1.92a.41.41,0,0,0,.52.6l8-3.75a.37.37,0,0,0,.18-.17l4.4-7.37A.42.42,0,0,0,63.52,23.49Z"/><path class="cls-1" d="M75.65,7.54,63,15.06a.32.32,0,0,0-.14.14l-4.76,8.47a.39.39,0,0,0,.51.53L65,20.85a.38.38,0,0,1,.56.34v.74a.38.38,0,0,0,.57.33L73,18.38a1.61,1.61,0,0,0,.81-1.4V15.22a.77.77,0,0,0-1.15-.67l-5.31,3a.38.38,0,0,1-.57-.33V15.47a.4.4,0,0,1,.2-.33L74.25,11a1,1,0,0,1,1.54.89v5.67a1.93,1.93,0,0,1-.9,1.63l-6.78,4.24a.39.39,0,0,0-.18.33v2a.38.38,0,0,0,.58.32L76.7,21a1.94,1.94,0,0,0,.9-1.64V8.65A1.29,1.29,0,0,0,75.65,7.54Z"/><path class="cls-1" d="M16.32,101a63.4,63.4,0,0,1,1.62-14.28A4.23,4.23,0,0,0,17,82.94l-.92-1a1.47,1.47,0,0,0-1.24-.51,1.51,1.51,0,0,0-1.38,1.2,68.21,68.21,0,0,0,33.78,72.65A63,63,0,0,1,16.32,101Z"/><path class="cls-1" d="M22.54,118a.79.79,0,0,0,1.46.18q2.2-4.11,4.87-8.45c2.55-4.15,5.13-7.95,7.65-11.41a.84.84,0,0,0,.16-.51c0-.63,0-1.21,0-1.75a.52.52,0,0,0-.9-.36c-2.31,2.35-4.69,5-7.1,7.84-2.05,2.45-3.92,4.86-5.61,7.18A6.19,6.19,0,0,0,22,115.58C22.16,116.39,22.35,117.19,22.54,118Z"/><path class="cls-1" d="M26.07,128.05a.79.79,0,0,0,1.46-.09c1.31-4,2.86-8.34,4.7-12.81,1.56-3.77,3.17-7.3,4.79-10.58a1.37,1.37,0,0,0,.13-.77c-.09-.71-.16-1.43-.23-2.15a.45.45,0,0,0-.82-.21c-2.17,3.44-4.35,7.19-6.49,11.24q-2.55,4.84-4.6,9.4a4.25,4.25,0,0,0-.08,3.3Q25.47,126.73,26.07,128.05Z"/><path class="cls-1" d="M31,136.69a.78.78,0,0,0,1.42-.31c.72-4.25,1.64-8.79,2.84-13.55,1.09-4.34,2.3-8.41,3.55-12.19a1.25,1.25,0,0,0-.07-.93,14,14,0,0,1-.73-1.93.43.43,0,0,0-.8,0c-1.29,3.16-2.56,6.53-3.76,10.1-1.61,4.76-2.91,9.3-4,13.56a5.11,5.11,0,0,0,.65,4C30.36,135.82,30.65,136.26,31,136.69Z"/><path class="cls-1" d="M37.24,144.4a.79.79,0,0,0,1.35-.53c.12-4.5.43-9.36,1-14.51C40.21,124,41,119,42,114.39a.79.79,0,0,0-.29-.78,8.64,8.64,0,0,1-.92-.85l-.39-.41a.51.51,0,0,0-.86.22c-1,3.92-2,8.13-2.8,12.63-.93,5-1.56,9.81-2,14.25a4.46,4.46,0,0,0,1.12,3.42C36.28,143.39,36.75,143.9,37.24,144.4Z"/><path class="cls-1" d="M45.44,116.86a.91.91,0,0,0-.31-.79l-1.34-1.15a.6.6,0,0,0-1,.36c-.69,4.92-1.23,10.31-1.5,16.12-.24,5.14-.23,10-.06,14.46a5.24,5.24,0,0,0,2,3.94c.18.15.38.3.57.44a.78.78,0,0,0,1.26-.68c-.38-4.81-.6-10-.56-15.59C44.56,127.82,44.91,122.09,45.44,116.86Z"/><path class="cls-1" d="M50.37,138.91c-.86-6.47-1.31-12.5-1.49-18h0L47.23,118a.52.52,0,0,0-1,.24c-.2,5.37-.18,11.25.19,17.57.32,5.47.87,10.59,1.55,15.32a4.65,4.65,0,0,0,2.29,3.38c.84.49,1.71.95,2.58,1.39a.34.34,0,0,0,.49-.38C52.2,150.48,51.16,144.92,50.37,138.91Z"/><path class="cls-1" d="M60.2,155.34h0c-1.41-4-2.78-8.4-4-13.07-1.31-4.87-2.34-9.52-3.15-13.9h0c-.71-1.33-1.51-2.77-2.34-4.26a.34.34,0,0,0-.64.2c.54,5,1.34,10.43,2.49,16.16,1.21,6.07,2.65,11.66,4.17,16.71a1.26,1.26,0,0,0,.73.81l1.22.48a1.28,1.28,0,0,0,1.72-1.3Z"/><path class="cls-1" d="M56.23,133.33c-.47.15,4.08,17.19,4.61,17.07.32-.07-.55-6.29-2.77-12.6C57.7,136.75,56.45,133.26,56.23,133.33Z"/><path class="cls-1" d="M32.25,50.11A11.48,11.48,0,0,1,33.82,45a1.92,1.92,0,0,1,2.69-.56l3.9,2.63a1.19,1.19,0,0,0,.33.22h0a1.22,1.22,0,0,0,1.33-.18l2.15-1.84a1.26,1.26,0,0,0,.36-1.37l-3.16-8.62a6.83,6.83,0,0,1,.36-5.51l2-3.86a19.77,19.77,0,0,1,6.32-7.15l3.82-2.62a1.12,1.12,0,0,0,.36-.39l8.23-13.9A1.25,1.25,0,0,0,61.37,0a8,8,0,0,0-3.13.9L44.75,8a4.8,4.8,0,0,0-2.53,4.68l.23,2.37a.56.56,0,0,0,.88.4l3.94-2.83a.68.68,0,0,1,.86,1l-5.2,4.89a1.07,1.07,0,0,0-.27.37L37.52,29.76a10.44,10.44,0,0,0-.42,1h0v0a11.63,11.63,0,0,0-.52,2.23,14.47,14.47,0,0,0-.2,2.39c0,.41,0,1.33,0,2.7,0,.79-.06,1.43-.09,1.87a3.1,3.1,0,0,1-6.19-.14,1.41,1.41,0,0,0-1.41,1.37c0,2.68,1.36,6.23,2.8,9A.41.41,0,0,0,32.25,50.11Z"/><path class="cls-1" d="M102.71,26.34l-6.34,2.73a2.44,2.44,0,0,1-2.72-.55l-1.06-1.11a1.19,1.19,0,0,0-.87-.37H84.29a1.19,1.19,0,0,0-.87.37l-1.06,1.11a2.44,2.44,0,0,1-2.72.55L73.3,26.34a.8.8,0,0,1-.11-1.42l4.66-2.87a5.31,5.31,0,0,1,2.8-.79H95.36a5.31,5.31,0,0,1,2.8.79l4.66,2.87A.8.8,0,0,1,102.71,26.34Z"/><path class="cls-1" d="M96.49,14.2v4.14a.7.7,0,0,1-.7.69H80.22a.69.69,0,0,1-.7-.69V14.2a2.22,2.22,0,0,1,1.19-2l2.5-1.31a.4.4,0,0,1,.59.36v1.63a5.31,5.31,0,0,0,1.56,3.75A3.73,3.73,0,0,0,88,17.76h0a3.73,3.73,0,0,0,2.62-1.09,5.31,5.31,0,0,0,1.56-3.75V11.29a.4.4,0,0,1,.59-.36l2.5,1.31A2.22,2.22,0,0,1,96.49,14.2Z"/><path class="cls-1" d="M154.53,88.75l-1.65,1.88a.58.58,0,0,0-.15.38v4.4a2.13,2.13,0,0,1-3.34,1.76l-4.56-3.12a10.79,10.79,0,0,0-2.72-1.35l-1.52-.5a.71.71,0,0,0-.92.67v.44a.7.7,0,0,0,.56.68h0a3.06,3.06,0,0,1,1.6.9L154,108.08a1,1,0,0,0,1.73-.56,70.08,70.08,0,0,0-.19-18.47A.57.57,0,0,0,154.53,88.75Z"/><circle class="cls-1" cx="142.81" cy="39.88" r="1.89"/><path class="cls-1" d="M135.26,8.54v6.9a12.06,12.06,0,0,0,1.33,5.5l2.35,4.56a24.7,24.7,0,0,1,2.73,11.31V37a3.08,3.08,0,0,1,1.14-.21,3.12,3.12,0,0,1,2.2.9h.27A2.45,2.45,0,0,0,147.6,36l1.11-3.34a6.4,6.4,0,0,0-.46-5.12L137.45,8A1.17,1.17,0,0,0,135.26,8.54Z"/><path class="cls-1" d="M167.27,76.29a5.5,5.5,0,0,0-2.53-4.64h0l-.08-.09,9.18-11.79a1.21,1.21,0,0,1,2.17.79l-.51,14a10.9,10.9,0,0,1-.7,3.5,11.12,11.12,0,0,1-1.77,3.1,12.75,12.75,0,0,0-2.83,7,48.4,48.4,0,0,1-2.58,13.07.5.5,0,0,1-1-.2,67.32,67.32,0,0,0-2-20.12A5.5,5.5,0,0,0,167.27,76.29Z"/><path class="cls-1" d="M134.77,84.2l-.3-1.12a1.29,1.29,0,0,1,.67-1.49l4.39-2.25a.38.38,0,0,1,.51.52,4.38,4.38,0,0,0-.46,2V82a1.26,1.26,0,0,1-.48,1.06l-2.26,1.81A1.3,1.3,0,0,1,134.77,84.2Z"/><path class="cls-1" d="M136.67,89.22l-.3-.47A1.31,1.31,0,0,1,136.7,87l2.77-2a1.29,1.29,0,0,1,1.6.07h0a1.3,1.3,0,0,1,.31,1.61l-.22.41a1.5,1.5,0,0,1-.27.34l-2.26,2A1.3,1.3,0,0,1,136.67,89.22Z"/><path class="cls-1" d="M142.4,87.79a1.31,1.31,0,0,1,1.79,0l.48.44a1.29,1.29,0,0,1,.05,1.88l-1.13,1.14a1.32,1.32,0,0,1-1.27.34l-.73-.21a1.29,1.29,0,0,1-.57-2.17Z"/><path class="cls-1" d="M147.79,90.23h1.9a1.3,1.3,0,0,1,1.3,1.31l0,3.3a.78.78,0,0,1-1.16.67l-3.56-2.05a1.31,1.31,0,0,1-.21-2.1l.89-.8A1.28,1.28,0,0,1,147.79,90.23Z"/><path class="cls-1" d="M144.24,56.15l1.27,2.64a11.42,11.42,0,0,1,1.14,4.83v1.24a9.59,9.59,0,0,1-1.84,5.75l-4.11,5.66a.53.53,0,0,1-.14.12l-5.81,2.72a.38.38,0,0,1-.54-.36l.21-6.29a.38.38,0,0,1,.08-.23l2.21-2.62a3.19,3.19,0,0,0-.22,1.16,3.07,3.07,0,0,0,3.08,3.08c2.42,0,4.19-2.8,2.26-5.33l-.1-.1a3.63,3.63,0,0,0-2.56-.71.38.38,0,0,1-.33-.63l.3-.36a.21.21,0,0,0,.06-.1l4.33-10.45A.38.38,0,0,1,144.24,56.15Z"/><path class="cls-1" d="M136.13,48.07A34.85,34.85,0,0,0,139.2,46a1.11,1.11,0,0,1,1.71.28l.15.29a7.87,7.87,0,0,1,1,3.55l.16,3.86a.45.45,0,0,1,0,.16L139.77,60a.38.38,0,0,1-.7,0,3.09,3.09,0,0,0-2.85-1.91,2.93,2.93,0,0,0-.67.08l.48-.7a.44.44,0,0,0,.06-.16,74.75,74.75,0,0,0-.79-7.47A1.82,1.82,0,0,1,136.13,48.07Z"/><path class="cls-1" d="M137.36,65.79l-2.68,3.36a.38.38,0,0,1-.68-.21l-.28-5a.37.37,0,0,1,.61-.3,3.12,3.12,0,0,0,1.89.64A3.07,3.07,0,0,0,137.4,64a.38.38,0,0,1,.5.5l-.49,1.18A.26.26,0,0,1,137.36,65.79Z"/><path class="cls-1" d="M153.91,49.64a.38.38,0,0,1-.63.13,3.08,3.08,0,0,0-2.19-.91,3.14,3.14,0,0,0-2.49,5l.07.09a3.34,3.34,0,0,0,2.77,1,.38.38,0,0,1,.41.51l-2.76,7.9a.39.39,0,0,1-.75-.13A11.4,11.4,0,0,0,147.06,58l-1.46-2.81a4.69,4.69,0,0,1-.11-4.12l2.16-4.73a12.55,12.55,0,0,0,.93-7.57l0-.13a.34.34,0,0,1,0-.2l2.48-7.28a1,1,0,0,1,1.95,0l1.89,5a15.07,15.07,0,0,1,.12,10.3Z"/><path class="cls-1" d="M162.38,70.37a.12.12,0,0,0,0,0l-.42.35h-.16a5.51,5.51,0,0,0-5.47,4.84l-.07.06-8.12,4.06a.37.37,0,0,1-.49-.14l0-.06a.38.38,0,0,1,0-.45l10.71-12.25a.36.36,0,0,1,.18-.12,3.08,3.08,0,0,0,2.21-2.95,3,3,0,0,0-.19-1,.5.5,0,0,1,0-.12V48.88a.38.38,0,0,0-.74-.13l-.27.71a.51.51,0,0,0,0,.13v11a.38.38,0,0,1-.55.34,3.08,3.08,0,0,0-2.82,5.48.38.38,0,0,1,.11.59l-9.72,11A.38.38,0,0,1,146,78a4.34,4.34,0,0,0-4.48.15l-.05-.13L145,73.38a39.12,39.12,0,0,0,5.6-10.27l7.55-20.83a.56.56,0,0,1,.05-.08L164,33.93a1.36,1.36,0,0,1,2.47.78V61.77A9.88,9.88,0,0,1,164.31,68Z"/><path class="cls-1" d="M123.82,27.21l-3.13-1.79a.7.7,0,0,1-.31-.39l-2.22-7.51a.67.67,0,0,1,1-.75L125.85,21a14.1,14.1,0,0,1,4.9,5.27l1.78,3.37a6.26,6.26,0,0,1,.3,5.23l-2.6,6.62a.67.67,0,0,1-1.21.08l-1.2-2.17a.73.73,0,0,1-.08-.33V35.69a.63.63,0,0,0-.09-.33l-2.13-3.64a4,4,0,0,1-.55-2.25v-.13A2.35,2.35,0,0,0,123.82,27.21Z"/><path class="cls-1" d="M148.19,82.26c0-.14.09-.26.54-.46l7.5-3.42a.38.38,0,0,1,.5.18,4.69,4.69,0,0,0,.44.79A2.18,2.18,0,0,1,157,82l-5.83,6.65a.36.36,0,0,1-.26.13l-3.28.23a.37.37,0,0,1-.28-.1l-2.52-2.26A.38.38,0,0,1,145,86,4.33,4.33,0,0,0,148.19,82.26Z"/><path class="cls-1" d="M149.68,53.49a.47.47,0,0,1-.1-.1,2.08,2.08,0,0,1,1.51-3.48,2,2,0,0,1,2,2,0,0,0,0,1,0,0,2,2,0,0,1-.47,1.29h0A2.12,2.12,0,0,1,149.68,53.49Z"/><path class="cls-1" d="M156.08,62.34a.47.47,0,0,1,.1-.1,2.09,2.09,0,0,1,3.28.69,2.34,2.34,0,0,1-.5,2.51.47.47,0,0,1-.19.12,3.05,3.05,0,0,1-1.44.2A2.08,2.08,0,0,1,156.08,62.34Z"/><path class="cls-1" d="M134.79,59.66a2.09,2.09,0,0,1,3,2.94l-.1.1a2.09,2.09,0,0,1-3-3A.28.28,0,0,1,134.79,59.66Z"/><path class="cls-1" d="M138.15,69.24a2.1,2.1,0,0,1,2.94,3l-.1.09a2.09,2.09,0,0,1-2.94-3A.47.47,0,0,1,138.15,69.24Z"/><path class="cls-1" d="M142.12,79.59a2.85,2.85,0,0,1,4.28.87,1,1,0,0,1,0,.1,2.77,2.77,0,0,1,.29,1.25,2.93,2.93,0,0,1-.17,1,2.85,2.85,0,0,1-2.67,1.85,2.81,2.81,0,0,1-1.72-.58,2.89,2.89,0,0,1-.57-.59,2.84,2.84,0,0,1,.52-3.88Z"/><path class="cls-1" d="M159.06,73.68l.09-.09c3.85-2.87,8.18,1.45,5.3,5.31a.76.76,0,0,1-.09.09C160.5,81.84,156.2,77.54,159.06,73.68Z"/><path class="cls-1" d="M112.48,23.49,122.12,28a1.59,1.59,0,0,1,.9,1.6,4.87,4.87,0,0,0,.79,3.21l1.28,1.92a.41.41,0,0,1-.52.6l-8-3.75a.37.37,0,0,1-.18-.17L112,24.08A.42.42,0,0,1,112.48,23.49Z"/><path class="cls-1" d="M100.35,7.54,113,15.06a.35.35,0,0,1,.13.14l4.76,8.47a.39.39,0,0,1-.51.53L111,20.85a.38.38,0,0,0-.56.34v.74a.38.38,0,0,1-.57.33L103,18.38a1.61,1.61,0,0,1-.81-1.4V15.22a.77.77,0,0,1,1.16-.67l5.3,3a.38.38,0,0,0,.57-.33V15.47a.41.41,0,0,0-.19-.33L101.75,11a1,1,0,0,0-1.54.89v5.67a1.93,1.93,0,0,0,.9,1.63l6.78,4.24a.37.37,0,0,1,.18.33v2a.38.38,0,0,1-.58.32L99.3,21a1.94,1.94,0,0,1-.9-1.64V8.65A1.29,1.29,0,0,1,100.35,7.54Z"/><path class="cls-1" d="M159.68,101a63.4,63.4,0,0,0-1.62-14.28,4.26,4.26,0,0,1,.93-3.74l.92-1a1.47,1.47,0,0,1,1.24-.51,1.51,1.51,0,0,1,1.38,1.2,68.21,68.21,0,0,1-33.78,72.65A63,63,0,0,0,159.68,101Z"/><path class="cls-1" d="M153.46,118a.79.79,0,0,1-1.46.18q-2.2-4.11-4.86-8.45c-2.56-4.15-5.14-7.95-7.66-11.41a.84.84,0,0,1-.16-.51c0-.63,0-1.21,0-1.75a.52.52,0,0,1,.9-.36c2.31,2.35,4.7,5,7.1,7.84,2.06,2.45,3.92,4.86,5.61,7.18a6.19,6.19,0,0,1,1.05,4.88C153.84,116.39,153.65,117.19,153.46,118Z"/><path class="cls-1" d="M149.93,128.05a.79.79,0,0,1-1.46-.09c-1.31-4-2.86-8.34-4.7-12.81-1.56-3.77-3.17-7.3-4.79-10.58a1.37,1.37,0,0,1-.13-.77c.09-.71.17-1.43.23-2.15a.45.45,0,0,1,.83-.21c2.16,3.44,4.34,7.19,6.48,11.24q2.55,4.84,4.6,9.4a4.2,4.2,0,0,1,.08,3.3Q150.53,126.73,149.93,128.05Z"/><path class="cls-1" d="M145.05,136.69a.78.78,0,0,1-1.42-.31c-.72-4.25-1.64-8.79-2.84-13.55-1.09-4.34-2.29-8.41-3.55-12.19a1.25,1.25,0,0,1,.07-.93,14,14,0,0,0,.73-1.93.43.43,0,0,1,.8,0c1.29,3.16,2.56,6.53,3.76,10.1,1.61,4.76,2.91,9.3,4,13.56a5.11,5.11,0,0,1-.65,4C145.64,135.82,145.35,136.26,145.05,136.69Z"/><path class="cls-1" d="M138.76,144.4a.79.79,0,0,1-1.35-.53c-.12-4.5-.43-9.36-1-14.51-.61-5.38-1.42-10.38-2.35-15a.79.79,0,0,1,.29-.78,8.64,8.64,0,0,0,.92-.85l.39-.41a.51.51,0,0,1,.86.22c1,3.92,2,8.13,2.81,12.63.92,5,1.55,9.81,2,14.25a4.46,4.46,0,0,1-1.12,3.42C139.72,143.39,139.25,143.9,138.76,144.4Z"/><path class="cls-1" d="M130.56,116.86a.91.91,0,0,1,.31-.79l1.34-1.15a.6.6,0,0,1,1,.36c.69,4.92,1.23,10.31,1.5,16.12.24,5.14.23,10,.06,14.46a5.23,5.23,0,0,1-2,3.94c-.19.15-.38.3-.58.44a.78.78,0,0,1-1.26-.68c.38-4.81.6-10,.56-15.59C131.44,127.82,131.09,122.09,130.56,116.86Z"/><path class="cls-1" d="M125.63,138.91c.86-6.47,1.31-12.5,1.49-18h0l1.66-2.87a.51.51,0,0,1,1,.24c.2,5.37.18,11.25-.19,17.57-.32,5.47-.87,10.59-1.55,15.32a4.65,4.65,0,0,1-2.29,3.38c-.84.49-1.7.95-2.58,1.39a.34.34,0,0,1-.49-.38C123.8,150.48,124.84,144.92,125.63,138.91Z"/><path class="cls-1" d="M115.8,155.34h0c1.41-4,2.78-8.4,4-13.07,1.3-4.87,2.33-9.52,3.14-13.9h0c.71-1.33,1.51-2.77,2.34-4.26a.34.34,0,0,1,.64.2c-.54,5-1.34,10.43-2.49,16.16-1.21,6.07-2.65,11.66-4.16,16.71a1.24,1.24,0,0,1-.74.81l-1.22.48a1.28,1.28,0,0,1-1.72-1.3Q115.71,156.24,115.8,155.34Z"/><path class="cls-1" d="M121.1,130.74c.66.21-5.95,24.3-7,24-.49-.11.18-4.88.62-7.27a42.78,42.78,0,0,1,2.47-8.33c.71-1.73,1.38-3.21,2.21-5A22,22,0,0,1,121.1,130.74Z"/><path class="cls-1" d="M143.75,50.11A11.48,11.48,0,0,0,142.18,45a1.92,1.92,0,0,0-2.69-.56l-3.9,2.63a1.19,1.19,0,0,1-.33.22h0a1.22,1.22,0,0,1-1.33-.18l-2.15-1.84a1.24,1.24,0,0,1-.35-1.37l3.15-8.62a6.83,6.83,0,0,0-.36-5.51l-2-3.86a19.77,19.77,0,0,0-6.32-7.15l-3.82-2.62a1.12,1.12,0,0,1-.36-.39l-8.23-13.9A1.25,1.25,0,0,1,114.63,0a8,8,0,0,1,3.13.9L131.25,8a4.8,4.8,0,0,1,2.53,4.68l-.22,2.37a.56.56,0,0,1-.89.4l-3.94-2.83a.68.68,0,0,0-.86,1l5.2,4.89a1.07,1.07,0,0,1,.27.37l5.14,10.81c.16.35.3.69.43,1h0v0a10.93,10.93,0,0,1,.52,2.23,14.47,14.47,0,0,1,.2,2.39c0,.41,0,1.33,0,2.7,0,.79.05,1.43.08,1.87a3.1,3.1,0,0,0,6.19-.14,1.41,1.41,0,0,1,1.41,1.37c0,2.68-1.36,6.23-2.8,9A.41.41,0,0,1,143.75,50.11Z"/><path class="cls-1" d="M107.72,64.08c-.11.2-.19.41-.31.62A2.81,2.81,0,0,1,107.72,64.08Z"/><path class="cls-1" d="M122.1,64.09a1.23,1.23,0,0,1-.76,0A1.78,1.78,0,0,0,122.1,64.09Z"/><path class="cls-1" d="M121.34,64.08a1.23,1.23,0,0,0,.76,0A1.78,1.78,0,0,1,121.34,64.08Zm-13.62,0a2.81,2.81,0,0,0-.31.62C107.53,64.49,107.61,64.28,107.72,64.08Z"/><path class="cls-1" d="M137.21,93.67l0,0a.9.9,0,0,0-.52-.45,9.51,9.51,0,0,1-2-1.25c-.3-.28-.47-.68-.81-.92-.53-.37-1.22-.16-1.75-.5a1.72,1.72,0,0,1-.78-1.18c0-.36.15-.57,1.18-2,.67-.91.73-1,.78-1.18.2-.59,0-.81,0-2s.2-1.44,0-1.57-1,.57-2.75,1.57c-1,.55-2,.93-3,1.57-.36.24-.94.73-1.14.12a2.73,2.73,0,0,1,.16-1.29,6.48,6.48,0,0,1,1.18-2.37A9.06,9.06,0,0,0,129,78.5a49.57,49.57,0,0,0,1-10.3,53,53,0,0,1,0-6.67,11.72,11.72,0,0,1,.73-3.08c.37-.91.91-1.74,1.26-2.66a10.26,10.26,0,0,0,.69-3c.13-2-1-3.77-3.12-7.38-.59-1-1.13-2-1.77-3-1-1.49-1.49-2-1.44-3a1.92,1.92,0,0,0-.14-1.28,1.82,1.82,0,0,0-1-.57c-.48-.18-1.17-.46-2-.87l-7-3a3.94,3.94,0,0,1-1.69-1.44l-3.8-5.79a.7.7,0,0,0-1.29.36l0,.59a1.59,1.59,0,0,1-.66,1.28,1.57,1.57,0,0,1-1.59.11l-1.88-1a2.3,2.3,0,0,0-2,0L96.35,31a2.73,2.73,0,0,1-3-.48l-.88-.82A2.69,2.69,0,0,0,90.57,29L88,29.05,85.44,29a2.64,2.64,0,0,0-1.91.72l-.88.81a2.69,2.69,0,0,1-3,.48L72.8,27.83a2.3,2.3,0,0,0-2,0l-1.88,1a1.57,1.57,0,0,1-1,.13,1.54,1.54,0,0,1-1.21-1.45l0-.66a.7.7,0,0,0-1.29-.36l-3.8,5.79a4,4,0,0,1-1.69,1.45L51.24,37.6a2.41,2.41,0,0,0-1.43,2.11c-.05,1-.11,2.42-.15,3.31h0c-.08,2.45-.35,6.18-.84,11.47a48.3,48.3,0,0,1,6.3-3.55A42.73,42.73,0,0,1,65.76,47.4a29.47,29.47,0,0,1,12.2,0c2.62.6,4.13,1.39,5.12,2.76,2.18,3,1,7.21.23,9.62-.94,3.13-2.49,5-4.7,7.74a13.19,13.19,0,0,1-2.81,2.41,4.09,4.09,0,0,1-2,.72c-.11,0-.29,0-.56,0a7.09,7.09,0,0,1-4-1.86,11.34,11.34,0,0,1-1.09-1.2,1.81,1.81,0,0,1-.43-.93c-.11-1,1-1.89,1.39-2.75a1,1,0,0,0,.16-.74.73.73,0,0,0-.39-.4c-.42-.16-.78.19-1.12.38-1.26.7-2.67.43-4,.29a21.82,21.82,0,0,0-2.29-.13c-.72,0-1.44.07-2.16.07a10.82,10.82,0,0,0-3.24.53,11.8,11.8,0,0,0-2.77,1.22,11.64,11.64,0,0,0-2.49,2c1.76-.35,3.24-.61,4.33-.79a30.46,30.46,0,0,1,4.52-.54,9,9,0,0,1,3.75.54A3.47,3.47,0,0,1,65,67.48a2.49,2.49,0,0,1,.4.79,3,3,0,0,1-.56,2.23,6.49,6.49,0,0,1-2.45,2.18c-5.15,2.87-4.76,2.67-5,2.82-2.29,1.19-4.7,2.28-6.9,3.62A5.76,5.76,0,0,0,48.18,83c-.34,2.26.88,4.07,3.35,7.61a36.48,36.48,0,0,0,4.59,5.57c2.3,2.27,4.7,4.65,8.55,6,1.84.64,4.17,1.52,6.24.41a9,9,0,0,0,3.06-3,18.76,18.76,0,0,0,2.28-3.86,14.71,14.71,0,0,0,.73-4c.31-3.07.21-3.19.39-3.93a9.77,9.77,0,0,1,3.1-4.69c1.61-1.46,3.48-2.62,5.17-4A4.13,4.13,0,0,1,88,77.91a4.35,4.35,0,0,1,2.76,1.18c2.89,2.12,3.41,2.85,6.69,5.91.93.86,1.64,1.5,1.58,2.36-.07,1-1.24,1.76-1.58,2-1.4.87-3.31.69-4.88,1.08,0,0-3.94.61-8.9,5.62a1,1,0,0,0-.33.66c0,.45.47.83,1.69,1.5,1.64.89,2.46,1.34,3,1.3a6.45,6.45,0,0,0,2.89-1.42c.53-.36.47-.37.66-.47,2-1,5.35,1.59,7.87,3.54,1.11.86,2.12,1.82,3.15,2.76a5.35,5.35,0,0,0,.47.38,4,4,0,0,0,1.08.62c.28.1.42.11.42.18s-.56.3-.86.37a5.22,5.22,0,0,1-2.68-.37,30.66,30.66,0,0,0-3.19-.69c-1-.15-1.74-.21-2.36-.25a21.42,21.42,0,0,0-2.69-.06c-1.5.07-2.26.11-2.89.56-.36.26-.75.49-1.1.78s-.5.45-.77.46-.44-.14-.78-.41-.68-.51-1.2-.85c0,0,0,0,0,0a3.28,3.28,0,0,0-1.17-.4,14.15,14.15,0,0,0-4.6.76,25.18,25.18,0,0,0-2.63,1c-2.28,1-2.57,1.55-2.57,1.91a1,1,0,0,0,.18.51c.33.61.88,1,3,2,.86.38,1.29.58,1.8.75a15.36,15.36,0,0,0,2.21.54,9.38,9.38,0,0,0,4.14.19c.54-.18.69-.25.69-.25a2.37,2.37,0,0,1,.5-.2,1.74,1.74,0,0,1,.47-.06,1.81,1.81,0,0,1,.52.07,2,2,0,0,1,.46.19,3,3,0,0,0,1,.28,12.54,12.54,0,0,0,2.6,0,14.51,14.51,0,0,0,5.67-1.77,8.43,8.43,0,0,0,2.31-1.48,3.21,3.21,0,0,0,.26-.3A2.25,2.25,0,0,0,101,108a7,7,0,0,1-.42,1.86c-.13.37-.64,1.62-2.86,3.75a24.64,24.64,0,0,1-2.21,1.89A29,29,0,0,1,91,118.56c-4.37,2.21-6,1.12-8.54,3.15a3.67,3.67,0,0,0-1.51,3.08,4.75,4.75,0,0,0,.81,2.2,8.65,8.65,0,0,0,4.79,3.26,32.75,32.75,0,0,0,8.43.95,47,47,0,0,0,8.8-.35c.85-.13,1.68-.3,2.51-.51a27.76,27.76,0,0,0,13.38-8.43,48.41,48.41,0,0,0,3-3.84c.06-.08.23-.29.47-.55a5.91,5.91,0,0,1,1.25-1c-.54.93-1.3,2.26-2.18,3.88-1.27,2.3-2.56,4.74-3.4,6.4a78.82,78.82,0,0,0-6.1,16,31.77,31.77,0,0,0-.7,6.42l0,.75a26.64,26.64,0,0,0,.4,3.15,51.2,51.2,0,0,1,1.57-9.06c1.12-4.17,2.58-7.24,5.51-13.39,0,0,3.13-6.54,6.7-12.6,1.33-2.26,3-4.87,3.13-5.08l0,0c0,.09-.27.9,0,1.17s.65,0,.78,0c2.39-.82,3.52-3.46,4.38-5.61A37.62,37.62,0,0,0,137.12,98c.12-1.33,0-2.67.1-4A1.08,1.08,0,0,0,137.21,93.67ZM121.86,54.62l-.56,0a44.68,44.68,0,0,0-8.34,0c-1.53.2-3.29.56-4.35,1.76-.17.2-.68.76-.52,1.06s.54.19.7.19a21.81,21.81,0,0,1,5.53.87,12.38,12.38,0,0,1,2.33.89,14.51,14.51,0,0,1,5.06,3.67c.52.59.6.8.53.93l-.06.07-.08,0a1.23,1.23,0,0,1-.76,0l-.14,0-.14,0-.45-.08h-.07c-1.36-.22-3.9-.46-8.26-.71h-.18c-.75,0-1.4-.05-1.95-.05-1.12,0-1.55.06-1.92.35l-.1.08a2.87,2.87,0,0,0-.39.46l0,0h0c-.11.2-.19.41-.31.62,0,0,0,0,0,0-1,1.87-4.2,2-4.39,2a6.08,6.08,0,0,1-4.11-1.42c-1.19-1-1.49-2.34-2.09-4.91a36.69,36.69,0,0,1-.64-7.26A6.23,6.23,0,0,1,96.74,50a5.76,5.76,0,0,1,.63-1c1.23-1.52,3.61-1.89,5.44-2a33.47,33.47,0,0,1,8.68,1c.69.14,1.38.3,2.08.47l1,.26c.68.18,1.37.37,2.05.57l.71.22q.66.19,1.32.42l.56.19.2.07.25.09c.72.26,1.42.51,2.12.8l.68.3.87.42.5.28c1.27.72,2.5,1.54,3.69,2.38.25.18.8.58.72.75s-1.21-.12-1.41-.16A27.76,27.76,0,0,0,121.86,54.62Z"/><rect class="cls-1" x="85.48" y="7.36" width="5.03" height="8.6" rx="2.52"/><path class="cls-1" d="M244.77,33.9h-1a4.44,4.44,0,0,0-4,2.6l-10.59,23-10.6-23a4.44,4.44,0,0,0-4-2.6h-1a3.46,3.46,0,0,0-3.46,3.48V67.6a3.63,3.63,0,0,0,3.62,3.63h.07a3.64,3.64,0,0,0,3.65-3.63V51.46l7.22,15.7a1.86,1.86,0,0,0,1.68,1.07h5.78a1.84,1.84,0,0,0,1.67-1.07L241,51.53V67.6a3.65,3.65,0,0,0,7.3,0V37.38A3.48,3.48,0,0,0,244.77,33.9Z"/><path class="cls-1" d="M293.08,66.56,280.81,36a3.4,3.4,0,0,0-3.15-2.14h-2.74A3.41,3.41,0,0,0,271.76,36L259.52,66.56a3.37,3.37,0,0,0,3.15,4.67,3.39,3.39,0,0,0,3.16-2.12l.35-.88a18,18,0,0,0,10.08,3,18.37,18.37,0,0,0,10.13-3l.35.88a3.42,3.42,0,0,0,6.34-2.55Zm-16.82-2.18a11.71,11.71,0,0,1-7.43-2.63l7.43-18.63,2.21,5.48,5.27,13.15A11.83,11.83,0,0,1,276.26,64.38Z"/><path class="cls-1" d="M333.35,59.92a3.4,3.4,0,0,0-4.25.58,11.66,11.66,0,0,1-8.64,3.81,11.78,11.78,0,1,1,8.64-19.77,3.37,3.37,0,0,0,2.48,1.07,3.42,3.42,0,0,0,2-.61,3.49,3.49,0,0,0,.6-5.22,18.55,18.55,0,0,0-13.7-6,18.74,18.74,0,1,0,13.7,31.5,3.47,3.47,0,0,0-.81-5.34Z"/><path class="cls-1" d="M374.81,33.86a3.67,3.67,0,0,0-3.67,3.68V60.86H353.93V37.54a3.68,3.68,0,1,0-7.36,0v30a3.66,3.66,0,0,0,3.69,3.67h3.67v-3h17.21v3h3.67a3.66,3.66,0,0,0,3.67-3.67v-30A3.68,3.68,0,0,0,374.81,33.86Z"/><path class="cls-1" d="M394.11,41.23v30a7.34,7.34,0,0,0,7.36-7.34v-30A7.37,7.37,0,0,0,394.11,41.23Z"/><path class="cls-1" d="M444.84,33.9a3.67,3.67,0,0,0-3.67,3.67v18l-15.12-20.2a3.68,3.68,0,0,0-2.92-1.49h-1.84a3.68,3.68,0,0,0-3.69,3.67v30a3.68,3.68,0,0,0,7.36,0V46.19l16.21,21.69v3.35h2.91a4.42,4.42,0,0,0,4.43-4.44V37.57A3.67,3.67,0,0,0,444.84,33.9Z"/><path class="cls-1" d="M524.81,63.89h-13.7V56.25h10.94V48.91H511.11V41.26h17.21V38a4.09,4.09,0,0,0-4.09-4.09H503.77V71.23h25.76V68.6A4.72,4.72,0,0,0,524.81,63.89Z"/><path class="cls-1" d="M493,66.56,480.8,36a3.42,3.42,0,0,0-3.16-2.14H474.9A3.48,3.48,0,0,0,471.71,36L459.47,66.56a3.64,3.64,0,0,0-.25,1.28,3.42,3.42,0,0,0,6.59,1.27l.35-.88a17.92,17.92,0,0,0,10.06,3,18.38,18.38,0,0,0,10.15-3l.35.88A3.41,3.41,0,0,0,493,66.56Zm-16.82-2.18a11.64,11.64,0,0,1-7.41-2.63l7.41-18.63,2.21,5.48,5.29,13.15A11.87,11.87,0,0,1,476.22,64.38Z"/><path class="cls-2" d="M254.61,119.49V97.87a5.3,5.3,0,0,0-5.3,5.3v21.62h13a5.3,5.3,0,0,0,5.3-5.3Z"/><path class="cls-2" d="M293.14,108.74a7.05,7.05,0,0,0-.07-6.76,8,8,0,0,0-7.13-4.11h-7.1v23.71a3.22,3.22,0,0,0,3.22,3.21h7.53a8.41,8.41,0,0,0,3.55-16.05Zm-9-5.88h2.28a2.52,2.52,0,0,1,2.51,2.54,2.5,2.5,0,0,1-2.51,2.5h-2.28Zm5.46,16.89h-4a1.41,1.41,0,0,1-1.42-1.39V113h5.46a3.39,3.39,0,1,1,0,6.78Z"/><path class="cls-2" d="M234.56,121.42l-8.82-22a2.53,2.53,0,0,0-2.3-1.56h-2a2.46,2.46,0,0,0-2.27,1.56l-8.85,22a2.46,2.46,0,0,0,4.57,1.84l.26-.63a13,13,0,0,0,7.27,2.16,13.19,13.19,0,0,0,7.29-2.16l.26.63a2.46,2.46,0,0,0,4.57-1.84Zm-12.12-1.55a8.37,8.37,0,0,1-5.37-1.91l5.37-13.45,1.58,4,3.81,9.48A8.49,8.49,0,0,1,222.44,119.87Z"/><path class="cls-2" d="M334,121.42l-8.83-22a2.48,2.48,0,0,0-2.28-1.56h-2a2.48,2.48,0,0,0-2.3,1.56l-8.83,22a2.79,2.79,0,0,0-.18.93,2.44,2.44,0,0,0,2.46,2.44,2.5,2.5,0,0,0,2.3-1.53l.23-.63a13,13,0,0,0,7.27,2.16,13.29,13.29,0,0,0,7.32-2.16l.26.63a2.45,2.45,0,0,0,4.55-1.84Zm-12.13-1.55a8.41,8.41,0,0,1-5.36-1.91l5.36-13.45,1.61,4,3.8,9.48A8.48,8.48,0,0,1,321.84,119.87Z"/><path class="cls-2" d="M361,119.49H351.1V114H359v-5.3H351.1v-5.52h12.4v-2.35a2.94,2.94,0,0,0-2.95-2.95H345.8v26.92h18.58v-1.9A3.4,3.4,0,0,0,361,119.49Z"/></g></g></svg>