<svg xmlns="http://www.w3.org/2000/svg" viewBox="0 0 184.84 226.37"><defs><style>.cls-1{fill:#2b2828;}.cls-2{fill:#999;}</style></defs><g id="Слой_2" data-name="Слой 2"><g id="Логотипы"><path class="cls-1" d="M16.44,188.73v13a1.57,1.57,0,0,1-1.57,1.57h0a1.56,1.56,0,0,1-1.56-1.57v-6.91l-3.11,6.73a.79.79,0,0,1-.72.46H7a.79.79,0,0,1-.72-.46l-3.1-6.76v6.94a1.57,1.57,0,0,1-1.57,1.57h0A1.57,1.57,0,0,1,0,201.74v-13a1.49,1.49,0,0,1,1.49-1.49h.45a1.9,1.9,0,0,1,1.74,1.12l4.56,9.91,4.55-9.91a1.92,1.92,0,0,1,1.75-1.12H15A1.49,1.49,0,0,1,16.44,188.73Z"/><path class="cls-1" d="M42.32,203.31h0a1.48,1.48,0,0,1-1.37-.92L40.8,202a7.89,7.89,0,0,1-4.36,1.29A7.72,7.72,0,0,1,32.11,202l-.15.37a1.48,1.48,0,0,1-1.37.92h0a1.47,1.47,0,0,1-1.36-2l5.27-13.13a1.48,1.48,0,0,1,1.37-.92H37a1.48,1.48,0,0,1,1.37.92l5.27,13.13A1.47,1.47,0,0,1,42.32,203.31Zm-2.65-4.09-2.28-5.65-1-2.37-3.2,8a5,5,0,0,0,3.2,1.14A5.08,5.08,0,0,0,39.67,199.22Z"/><path class="cls-1" d="M69.51,200.73a8.08,8.08,0,1,1,0-11,1.5,1.5,0,0,1-.26,2.25h0a1.48,1.48,0,0,1-1.92-.21,5.12,5.12,0,0,0-4.73-1.53,5.08,5.08,0,0,0,1,10.05,5,5,0,0,0,3.72-1.64,1.45,1.45,0,0,1,1.83-.25h0A1.49,1.49,0,0,1,69.51,200.73Z"/><path class="cls-1" d="M95.16,188.82v12.91a1.59,1.59,0,0,1-1.59,1.58H92V202H84.58v1.29H83a1.58,1.58,0,0,1-1.58-1.58V188.82A1.58,1.58,0,0,1,83,187.24h0a1.58,1.58,0,0,1,1.58,1.58v10H92v-10a1.58,1.58,0,0,1,1.58-1.58h0A1.59,1.59,0,0,1,95.16,188.82Z"/><path class="cls-1" d="M107.29,203.31V190.4a3.17,3.17,0,0,1,3.16-3.16h0v12.91a3.16,3.16,0,0,1-3.16,3.16Z"/><path class="cls-1" d="M133.42,187.24a1.58,1.58,0,0,1,1.58,1.58V201.4a1.9,1.9,0,0,1-1.91,1.91h-1.25v-1.44l-7-9.34v10.78h-1.58a1.58,1.58,0,0,1-1.58-1.58V188.82a1.58,1.58,0,0,1,1.58-1.58h.79a1.58,1.58,0,0,1,1.27.63l6.5,8.71v-7.76a1.58,1.58,0,0,1,1.58-1.58Z"/><path class="cls-1" d="M184.84,202.18v1.13h-11.1V187.24h8.81a1.76,1.76,0,0,1,1.76,1.76v1.4h-7.4v3.29h4.7v3.17h-4.7v3.29h5.9A2,2,0,0,1,184.84,202.18Z"/><path class="cls-1" d="M160.51,203.31h0a1.45,1.45,0,0,1-1.36-.92L159,202a7.91,7.91,0,0,1-4.36,1.29A7.75,7.75,0,0,1,150.3,202l-.15.37a1.45,1.45,0,0,1-1.36.92h0a1.48,1.48,0,0,1-1.37-2l5.28-13.13a1.45,1.45,0,0,1,1.36-.92h1.18a1.45,1.45,0,0,1,1.36.92l5.28,13.13A1.48,1.48,0,0,1,160.51,203.31Zm-2.65-4.09-2.27-5.65-1-2.37-3.2,8a5,5,0,0,0,3.2,1.14A5.07,5.07,0,0,0,157.86,199.22Z"/><path class="cls-2" d="M83.94,224.09h0a2.28,2.28,0,0,1-2.28,2.28H76.07v-9.31a2.28,2.28,0,0,1,2.28-2.28h0v9.31Z"/><path class="cls-2" d="M97.05,222.74a3.64,3.64,0,0,1-3.63,3.63H90.17A1.38,1.38,0,0,1,88.78,225V214.78h3.06a3.47,3.47,0,0,1,3.08,1.77,3.09,3.09,0,0,1,0,2.91A3.59,3.59,0,0,1,97.05,222.74Zm-6-3.64h1a1.09,1.09,0,1,0,0-2.17h-1v2.17Zm3.81,3.64a1.47,1.47,0,0,0-1.46-1.47H91.07v2.33a.6.6,0,0,0,.6.6h1.75A1.46,1.46,0,0,0,94.88,222.74Z"/><path class="cls-2" d="M68.74,226.37h0a1.05,1.05,0,0,1-1-.66l-.11-.27a5.71,5.71,0,0,1-3.15.93,5.59,5.59,0,0,1-3.13-.93l-.1.27a1.08,1.08,0,0,1-1,.66h0a1.06,1.06,0,0,1-1-1.45l3.8-9.48a1.06,1.06,0,0,1,1-.66h.85a1.05,1.05,0,0,1,1,.66l3.8,9.48A1.06,1.06,0,0,1,68.74,226.37Zm-1.91-3-1.64-4.08-.69-1.7-2.31,5.78a3.69,3.69,0,0,0,4.64,0Z"/><path class="cls-2" d="M111.46,226.37h0a1.05,1.05,0,0,1-1-.66l-.11-.27a5.71,5.71,0,0,1-3.15.93,5.59,5.59,0,0,1-3.13-.93l-.1.27a1.08,1.08,0,0,1-1,.66h0a1.06,1.06,0,0,1-1-1.45l3.8-9.48a1.06,1.06,0,0,1,1-.66h.85a1.05,1.05,0,0,1,1,.66l3.8,9.48A1.06,1.06,0,0,1,111.46,226.37Zm-1.91-3-1.64-4.08-.69-1.7-2.3,5.78a3.59,3.59,0,0,0,2.3.82A3.67,3.67,0,0,0,109.55,223.42Z"/><path class="cls-2" d="M125.62,225.55v.82h-8V214.78H124a1.27,1.27,0,0,1,1.27,1.27v1H119.9v2.37h3.39v2.29H119.9v2.37h4.25A1.46,1.46,0,0,1,125.62,225.55Z"/><path class="cls-1" d="M100.58,53.14a6.23,6.23,0,0,1,.57-3.19,5.76,5.76,0,0,1,.63-1c1.23-1.52,3.61-1.89,5.44-2a33.47,33.47,0,0,1,8.68,1c.69.14,1.38.3,2.08.47l1,.26c.68.18,1.37.37,2,.57l.71.22q.66.19,1.32.42l.56.19.2.07.25.09c.72.26,1.42.51,2.12.8l.68.3.87.42.5.28c1.27.72,2.5,1.54,3.69,2.38.25.18.8.58.72.75s-1.21-.12-1.41-.16a27.76,27.76,0,0,0-5-.45l-.56,0a44.68,44.68,0,0,0-8.34,0c-1.53.2-3.29.56-4.35,1.76-.17.2-.68.76-.52,1.06s.54.19.7.19a21.81,21.81,0,0,1,5.53.87,12.38,12.38,0,0,1,2.33.89,14.51,14.51,0,0,1,5.06,3.67c.52.59.6.8.53.93l-.06.07c-.19.18-.69.07-1,0l-.14,0-.45-.08H125c-1.36-.22-3.9-.46-8.26-.71l-2.56.05a2.92,2.92,0,0,0-1.49.24l-.1.08a2.87,2.87,0,0,0-.39.46l0,0h0c-.11.2-.19.41-.31.62,0,0,0,0,0,0-1,1.87-4.2,2-4.39,2a6.08,6.08,0,0,1-4.11-1.42c-1.19-1-1.49-2.34-2.09-4.91A36.69,36.69,0,0,1,100.58,53.14Z"/><path class="cls-1" d="M25.89,88.75l1.65,1.88a.57.57,0,0,1,.14.38v4.4A2.14,2.14,0,0,0,31,97.17l4.56-3.12a10.79,10.79,0,0,1,2.72-1.35l1.52-.5a.71.71,0,0,1,.92.67v.44a.7.7,0,0,1-.56.68h0a3.06,3.06,0,0,0-1.6.9L26.42,108.08a1,1,0,0,1-1.72-.56,70.51,70.51,0,0,1,.18-18.47A.58.58,0,0,1,25.89,88.75Z"/><circle class="cls-1" cx="37.61" cy="39.88" r="1.89"/><path class="cls-1" d="M45.15,8.54v6.9a12.05,12.05,0,0,1-1.32,5.5L41.48,25.5a24.71,24.71,0,0,0-2.74,11.31V37a3,3,0,0,0-1.13-.21,3.12,3.12,0,0,0-2.2.9h-.28A2.44,2.44,0,0,1,32.82,36L31.7,32.68a6.45,6.45,0,0,1,.47-5.12L43,8A1.16,1.16,0,0,1,45.15,8.54Z"/><path class="cls-1" d="M13.14,76.29a5.51,5.51,0,0,1,2.54-4.64h0l.08-.09L6.59,59.76a1.21,1.21,0,0,0-2.17.79l.51,14a10.9,10.9,0,0,0,.7,3.5,11.12,11.12,0,0,0,1.77,3.1,12.75,12.75,0,0,1,2.83,7,48.4,48.4,0,0,0,2.58,13.07.5.5,0,0,0,1-.2,67.65,67.65,0,0,1,2-20.12A5.51,5.51,0,0,1,13.14,76.29Z"/><path class="cls-1" d="M45.65,84.2l.3-1.12a1.29,1.29,0,0,0-.67-1.49l-4.39-2.25a.38.38,0,0,0-.51.52,4.38,4.38,0,0,1,.46,2,1.27,1.27,0,0,1,0,.2,1.27,1.27,0,0,0,.49,1.06l2.26,1.81A1.3,1.3,0,0,0,45.65,84.2Z"/><path class="cls-1" d="M43.75,89.22l.3-.47A1.31,1.31,0,0,0,43.72,87L41,85a1.29,1.29,0,0,0-1.6.07h0a1.31,1.31,0,0,0-.3,1.61l.22.41a1.27,1.27,0,0,0,.27.34l2.26,2A1.3,1.3,0,0,0,43.75,89.22Z"/><path class="cls-1" d="M38,87.79a1.31,1.31,0,0,0-1.79,0l-.49.44a1.3,1.3,0,0,0-.05,1.88l1.14,1.14a1.32,1.32,0,0,0,1.27.34l.73-.21a1.29,1.29,0,0,0,.57-2.17Z"/><path class="cls-1" d="M32.63,90.23h-1.9a1.3,1.3,0,0,0-1.3,1.31l0,3.3a.78.78,0,0,0,1.16.67l3.55-2.05a1.3,1.3,0,0,0,.22-2.1l-.9-.8A1.23,1.23,0,0,0,32.63,90.23Z"/><path class="cls-1" d="M36.18,56.15,34.9,58.79a11.56,11.56,0,0,0-1.13,4.83v1.24a9.59,9.59,0,0,0,1.84,5.75l4.11,5.66a.41.41,0,0,0,.14.12l5.81,2.72a.38.38,0,0,0,.54-.36L46,72.46a.33.33,0,0,0-.09-.23l-2.2-2.62a3.19,3.19,0,0,1,.22,1.16,3.08,3.08,0,0,1-3.08,3.08c-2.42,0-4.19-2.8-2.26-5.33l.1-.1a3.63,3.63,0,0,1,2.56-.71.38.38,0,0,0,.33-.63l-.3-.36a.21.21,0,0,1-.06-.1L36.88,56.17A.38.38,0,0,0,36.18,56.15Z"/><path class="cls-1" d="M44.29,48.07A33.76,33.76,0,0,1,41.21,46a1.1,1.1,0,0,0-1.7.28l-.15.29a7.87,7.87,0,0,0-1,3.55L38.19,54a.45.45,0,0,0,0,.16L40.65,60a.38.38,0,0,0,.7,0,3.09,3.09,0,0,1,2.85-1.91,3,3,0,0,1,.67.08l-.48-.7a.44.44,0,0,1-.06-.16,74.75,74.75,0,0,1,.79-7.47A1.82,1.82,0,0,0,44.29,48.07Z"/><path class="cls-1" d="M43.06,65.79l2.68,3.36a.38.38,0,0,0,.68-.21l.28-5a.38.38,0,0,0-.62-.3,3.07,3.07,0,0,1-1.88.64A3.16,3.16,0,0,1,43,64a.38.38,0,0,0-.49.5L43,65.7Z"/><path class="cls-1" d="M26.51,49.64a.38.38,0,0,0,.63.13,3.08,3.08,0,0,1,2.19-.91,3.14,3.14,0,0,1,2.49,5l-.07.09A3.34,3.34,0,0,1,29,55a.38.38,0,0,0-.41.51l2.76,7.9a.38.38,0,0,0,.74-.13A11.41,11.41,0,0,1,33.36,58l1.46-2.81a4.69,4.69,0,0,0,.11-4.12l-2.16-4.73a12.55,12.55,0,0,1-.93-7.57l0-.13a.34.34,0,0,0,0-.2l-2.49-7.28a1,1,0,0,0-1.94,0l-1.89,5a15.07,15.07,0,0,0-.12,10.3Z"/><path class="cls-1" d="M18,70.37s0,0,.05,0l.42.35h.15a5.52,5.52,0,0,1,5.48,4.84l.07.06,8.12,4.06a.37.37,0,0,0,.49-.14l0-.06a.38.38,0,0,0,0-.45L22.11,66.83a.36.36,0,0,0-.18-.12,3.08,3.08,0,0,1-2.21-2.95,3,3,0,0,1,.19-1,.5.5,0,0,0,0-.12V48.88a.38.38,0,0,1,.74-.13l.26.71a.28.28,0,0,1,0,.13v11a.38.38,0,0,0,.55.34,3.08,3.08,0,0,1,2.82,5.48.38.38,0,0,0-.11.59l9.72,11a.38.38,0,0,0,.47.06,4.34,4.34,0,0,1,4.48.15l0-.13-3.56-4.68a39.12,39.12,0,0,1-5.6-10.27L22.23,42.28a.56.56,0,0,0-.05-.08L16.4,33.93a1.36,1.36,0,0,0-2.47.78V61.77A9.88,9.88,0,0,0,16.11,68Z"/><path class="cls-1" d="M56.6,27.21l3.13-1.79A.7.7,0,0,0,60,25l2.21-7.51a.66.66,0,0,0-1-.75L54.57,21a14,14,0,0,0-4.9,5.27l-1.79,3.37a6.26,6.26,0,0,0-.29,5.23l2.6,6.62a.67.67,0,0,0,1.21.08l.47-.86a6.49,6.49,0,0,0,.81-3.13V35.69a.63.63,0,0,1,.09-.33l2.13-3.64a4,4,0,0,0,.55-2.25v-.13A2.35,2.35,0,0,1,56.6,27.21Z"/><path class="cls-1" d="M32.23,82.26c0-.14-.09-.26-.54-.46l-7.5-3.42a.38.38,0,0,0-.5.18,4.69,4.69,0,0,1-.44.79A2.18,2.18,0,0,0,23.42,82l5.83,6.65a.36.36,0,0,0,.26.13l3.28.23a.37.37,0,0,0,.28-.1l2.52-2.26a.38.38,0,0,0-.16-.65A4.33,4.33,0,0,1,32.23,82.26Z"/><path class="cls-1" d="M30.74,53.49l.1-.1a2.08,2.08,0,0,0-1.51-3.48,2,2,0,0,0-2,2,0,0,0,0,0,0,0,2,2,0,0,0,.47,1.29h0A2.12,2.12,0,0,0,30.74,53.49Z"/><path class="cls-1" d="M24.34,62.34a.47.47,0,0,0-.1-.1,2.09,2.09,0,0,0-3.28.69,2.34,2.34,0,0,0,.5,2.51.47.47,0,0,0,.19.12,3,3,0,0,0,1.44.2A2.08,2.08,0,0,0,24.34,62.34Z"/><path class="cls-1" d="M45.63,59.66a2.09,2.09,0,0,0-3,2.94.47.47,0,0,0,.1.1,2.09,2.09,0,0,0,3-3A.28.28,0,0,0,45.63,59.66Z"/><path class="cls-1" d="M42.27,69.24a2.1,2.1,0,0,0-2.94,3l.1.09a2.09,2.09,0,0,0,2.94-3A.47.47,0,0,0,42.27,69.24Z"/><path class="cls-1" d="M38.3,79.59A2.85,2.85,0,0,0,36.52,79,2.86,2.86,0,0,0,34,80.46a1,1,0,0,0,0,.1,2.77,2.77,0,0,0-.29,1.25,2.93,2.93,0,0,0,.17,1,2.84,2.84,0,0,0,1.5,1.6,2.81,2.81,0,0,0,1.16.25,2.77,2.77,0,0,0,1.72-.58,2.7,2.7,0,0,0,.58-.59,2.84,2.84,0,0,0-.52-3.88Z"/><path class="cls-1" d="M21.36,73.68a.38.38,0,0,0-.09-.09C17.42,70.72,13.09,75,16,78.9a.76.76,0,0,0,.09.09C19.92,81.84,24.22,77.54,21.36,73.68Z"/><path class="cls-1" d="M67.94,23.49,58.29,28a1.6,1.6,0,0,0-.89,1.6,4.87,4.87,0,0,1-.79,3.21l-1.28,1.92a.41.41,0,0,0,.52.6l8-3.75a.37.37,0,0,0,.18-.17l4.4-7.37A.42.42,0,0,0,67.94,23.49Z"/><path class="cls-1" d="M80.07,7.54,67.43,15.06a.35.35,0,0,0-.13.14l-4.76,8.47a.39.39,0,0,0,.51.53l6.4-3.35a.38.38,0,0,1,.56.34v.74a.38.38,0,0,0,.57.33l6.82-3.88a1.61,1.61,0,0,0,.81-1.4V15.22a.77.77,0,0,0-1.16-.67l-5.3,3a.38.38,0,0,1-.57-.33V15.47a.39.39,0,0,1,.19-.33L78.67,11a1,1,0,0,1,1.54.89v5.67a1.93,1.93,0,0,1-.9,1.63l-6.78,4.24a.37.37,0,0,0-.18.33v2a.38.38,0,0,0,.58.32L81.12,21a1.94,1.94,0,0,0,.9-1.64V8.65A1.29,1.29,0,0,0,80.07,7.54Z"/><path class="cls-1" d="M20.73,101a63.4,63.4,0,0,1,1.63-14.28,4.24,4.24,0,0,0-.94-3.74l-.91-1a1.47,1.47,0,0,0-1.24-.51,1.51,1.51,0,0,0-1.38,1.2,68.12,68.12,0,0,0,33.78,72.65A63,63,0,0,1,20.73,101Z"/><path class="cls-1" d="M27,118a.79.79,0,0,0,1.46.18q2.2-4.11,4.86-8.45c2.55-4.15,5.13-7.95,7.66-11.41a.84.84,0,0,0,.16-.51c0-.63,0-1.21,0-1.75a.52.52,0,0,0-.9-.36c-2.31,2.35-4.7,5-7.11,7.84-2.05,2.45-3.91,4.86-5.6,7.18a6.19,6.19,0,0,0-1,4.88Q26.66,116.8,27,118Z"/><path class="cls-1" d="M30.49,128.05A.79.79,0,0,0,32,128c1.31-4,2.86-8.34,4.7-12.81,1.56-3.77,3.17-7.3,4.79-10.58a1.37,1.37,0,0,0,.13-.77c-.1-.71-.17-1.43-.23-2.15a.45.45,0,0,0-.83-.21c-2.16,3.44-4.34,7.19-6.48,11.24q-2.55,4.84-4.6,9.4a4.2,4.2,0,0,0-.08,3.3Q29.89,126.73,30.49,128.05Z"/><path class="cls-1" d="M35.37,136.69a.79.79,0,0,0,1.42-.31c.71-4.25,1.64-8.79,2.84-13.55,1.09-4.34,2.29-8.41,3.54-12.19a1.2,1.2,0,0,0-.06-.93,15.4,15.4,0,0,1-.74-1.93.42.42,0,0,0-.79,0c-1.29,3.16-2.56,6.53-3.76,10.1-1.61,4.76-2.91,9.3-4,13.56a5.07,5.07,0,0,0,.65,4C34.78,135.82,35.07,136.26,35.37,136.69Z"/><path class="cls-1" d="M41.66,144.4a.79.79,0,0,0,1.35-.53c.12-4.5.43-9.36,1-14.51.61-5.38,1.42-10.38,2.35-15a.79.79,0,0,0-.29-.78,8.66,8.66,0,0,1-.93-.85l-.38-.41a.51.51,0,0,0-.87.22c-1,3.92-2,8.13-2.8,12.63-.92,5-1.56,9.81-2,14.25a4.46,4.46,0,0,0,1.12,3.42C40.7,143.39,41.17,143.9,41.66,144.4Z"/><path class="cls-1" d="M49.86,116.86a.91.91,0,0,0-.31-.79l-1.34-1.15a.6.6,0,0,0-1,.36c-.69,4.92-1.24,10.31-1.5,16.12-.24,5.14-.24,10-.07,14.46a5.28,5.28,0,0,0,2,3.94l.57.44a.79.79,0,0,0,1.27-.68c-.38-4.81-.6-10-.56-15.59C49,127.82,49.33,122.09,49.86,116.86Z"/><path class="cls-1" d="M54.79,138.91c-.86-6.47-1.31-12.5-1.49-18h0L51.64,118a.51.51,0,0,0-1,.24c-.2,5.37-.18,11.25.19,17.57.32,5.47.87,10.59,1.55,15.32a4.62,4.62,0,0,0,2.29,3.38c.84.49,1.7.95,2.58,1.39a.34.34,0,0,0,.49-.38C56.62,150.48,55.58,144.92,54.79,138.91Z"/><path class="cls-1" d="M64.62,155.34h0c-1.41-4-2.78-8.4-4-13.07-1.3-4.87-2.33-9.52-3.14-13.9h0c-.71-1.33-1.51-2.77-2.34-4.26a.34.34,0,0,0-.64.2c.54,5,1.34,10.43,2.48,16.16,1.22,6.07,2.66,11.66,4.17,16.71a1.24,1.24,0,0,0,.74.81c.4.17.81.32,1.22.48a1.28,1.28,0,0,0,1.72-1.3Q64.71,156.24,64.62,155.34Z"/><path class="cls-1" d="M60.65,133.33c-.47.15,4.08,17.19,4.61,17.07.31-.07-.55-6.29-2.77-12.6C62.12,136.75,60.86,133.26,60.65,133.33Z"/><path class="cls-1" d="M36.67,50.11A11.48,11.48,0,0,1,38.24,45a1.92,1.92,0,0,1,2.69-.56l3.9,2.63a1,1,0,0,0,.32.22h0a1.22,1.22,0,0,0,1.33-.18l2.15-1.84A1.24,1.24,0,0,0,49,43.93l-3.15-8.62a6.83,6.83,0,0,1,.36-5.51l2-3.86a19.77,19.77,0,0,1,6.32-7.15l3.82-2.62a1.12,1.12,0,0,0,.36-.39l8.23-13.9A1.25,1.25,0,0,0,65.79,0a8,8,0,0,0-3.13.9L49.17,8a4.8,4.8,0,0,0-2.53,4.68l.22,2.37a.56.56,0,0,0,.89.4l3.94-2.83a.68.68,0,0,1,.86,1l-5.2,4.89a1.25,1.25,0,0,0-.28.37L41.94,29.76c-.16.35-.3.69-.43,1h0v0A10.31,10.31,0,0,0,41,33.05a14.47,14.47,0,0,0-.2,2.39c0,.41,0,1.33,0,2.7,0,.79-.05,1.43-.08,1.87a3.1,3.1,0,0,1-6.19-.14,1.41,1.41,0,0,0-1.41,1.37c0,2.68,1.36,6.23,2.8,9A.41.41,0,0,0,36.67,50.11Z"/><path class="cls-1" d="M159,88.75l-1.65,1.88a.54.54,0,0,0-.15.38v4.4a2.13,2.13,0,0,1-3.34,1.76l-4.57-3.12a10.57,10.57,0,0,0-2.71-1.35L145,92.2a.7.7,0,0,0-.92.67v.44a.69.69,0,0,0,.56.68h0a3,3,0,0,1,1.59.9l12.17,13.19a1,1,0,0,0,1.73-.56A71,71,0,0,0,160,89.05.57.57,0,0,0,159,88.75Z"/><circle class="cls-1" cx="147.23" cy="39.88" r="1.89"/><path class="cls-1" d="M139.68,8.54v6.9a12.06,12.06,0,0,0,1.33,5.5l2.35,4.56a24.7,24.7,0,0,1,2.73,11.31V37a3.14,3.14,0,0,1,3.33.69h.28A2.43,2.43,0,0,0,152,36l1.12-3.34a6.4,6.4,0,0,0-.46-5.12L141.87,8A1.17,1.17,0,0,0,139.68,8.54Z"/><path class="cls-1" d="M171.69,76.29a5.5,5.5,0,0,0-2.53-4.64h0l-.08-.09,9.18-11.79a1.21,1.21,0,0,1,2.17.79l-.51,14a10.9,10.9,0,0,1-.7,3.5,11.15,11.15,0,0,1-1.78,3.1,12.74,12.74,0,0,0-2.82,7A48.79,48.79,0,0,1,172,101.29a.5.5,0,0,1-1-.2,67.33,67.33,0,0,0-2-20.12A5.51,5.51,0,0,0,171.69,76.29Z"/><path class="cls-1" d="M139.18,84.2l-.29-1.12a1.29,1.29,0,0,1,.66-1.49l4.4-2.25a.38.38,0,0,1,.53.22.35.35,0,0,1,0,.3,4.38,4.38,0,0,0-.46,2V82a1.26,1.26,0,0,1-.48,1.06l-2.27,1.81A1.3,1.3,0,0,1,139.18,84.2Z"/><path class="cls-1" d="M141.09,89.22l-.3-.47a1.31,1.31,0,0,1,.33-1.77l2.76-2a1.31,1.31,0,0,1,1.61.07h0a1.29,1.29,0,0,1,.3,1.61l-.22.41a1.27,1.27,0,0,1-.27.34l-2.25,2A1.3,1.3,0,0,1,141.09,89.22Z"/><path class="cls-1" d="M146.82,87.79a1.31,1.31,0,0,1,1.79,0l.48.44a1.29,1.29,0,0,1,0,1.88L148,91.21a1.33,1.33,0,0,1-1.27.34l-.74-.21a1.29,1.29,0,0,1-.56-2.17Z"/><path class="cls-1" d="M152.21,90.23h1.9a1.3,1.3,0,0,1,1.3,1.31l0,3.3a.78.78,0,0,1-1.16.67l-3.56-2.05a1.3,1.3,0,0,1-.22-2.1l.9-.8A1.28,1.28,0,0,1,152.21,90.23Z"/><path class="cls-1" d="M148.66,56.15l1.27,2.64a11.26,11.26,0,0,1,1.13,4.83l0,1.24a9.66,9.66,0,0,1-1.84,5.75l-4.11,5.66a.44.44,0,0,1-.15.12l-5.8,2.72a.38.38,0,0,1-.54-.36l.2-6.29a.46.46,0,0,1,.09-.23l2.21-2.62a3,3,0,0,0-.23,1.16A3.08,3.08,0,0,0,144,73.85c2.42,0,4.18-2.8,2.26-5.33l-.1-.1a3.65,3.65,0,0,0-2.57-.71.38.38,0,0,1-.32-.63l.3-.36a.33.33,0,0,0,.06-.1L148,56.17A.38.38,0,0,1,148.66,56.15Z"/><path class="cls-1" d="M140.54,48.07A33.76,33.76,0,0,0,143.62,46a1.1,1.1,0,0,1,1.7.28l.16.29a8,8,0,0,1,1,3.55l.15,3.86a.3.3,0,0,1,0,.16L144.19,60a.38.38,0,0,1-.7,0,3.09,3.09,0,0,0-2.85-1.91,2.93,2.93,0,0,0-.67.08l.48-.7a.44.44,0,0,0,.06-.16,74.75,74.75,0,0,0-.79-7.47A1.81,1.81,0,0,1,140.54,48.07Z"/><path class="cls-1" d="M141.78,65.79l-2.68,3.36a.38.38,0,0,1-.68-.21l-.28-5a.37.37,0,0,1,.61-.3,3.08,3.08,0,0,0,3.07.4.38.38,0,0,1,.5.5l-.49,1.18A.26.26,0,0,1,141.78,65.79Z"/><path class="cls-1" d="M158.33,49.64a.38.38,0,0,1-.63.13,3.1,3.1,0,0,0-2.19-.91,3.14,3.14,0,0,0-2.5,5l.08.09a3.33,3.33,0,0,0,2.77,1,.39.39,0,0,1,.41.51l-2.77,7.9a.38.38,0,0,1-.74-.13A11.4,11.4,0,0,0,151.48,58L150,55.22a4.73,4.73,0,0,1-.1-4.12l2.16-4.73A12.62,12.62,0,0,0,153,38.8l0-.13a.44.44,0,0,1,0-.2l2.48-7.28a1,1,0,0,1,1.95,0l1.89,5a15.07,15.07,0,0,1,.12,10.3Z"/><path class="cls-1" d="M166.79,70.37l0,0-.41.35h-.16a5.51,5.51,0,0,0-5.47,4.84l-.07.06-8.12,4.06a.38.38,0,0,1-.5-.14l0-.06a.38.38,0,0,1,0-.45l10.71-12.25a.36.36,0,0,1,.18-.12,3.07,3.07,0,0,0,2.2-2.95,3,3,0,0,0-.18-1,.5.5,0,0,1,0-.12V48.88a.38.38,0,0,0-.74-.13l-.27.71a.51.51,0,0,0,0,.13v11a.38.38,0,0,1-.55.34,3.08,3.08,0,0,0-2.82,5.48.38.38,0,0,1,.11.59L150.9,78a.38.38,0,0,1-.47.06,4.34,4.34,0,0,0-4.48.15l0-.13,3.56-4.68a39.12,39.12,0,0,0,5.6-10.27l7.55-20.83a.22.22,0,0,1,0-.08l5.78-8.27a1.36,1.36,0,0,1,2.47.78V61.77A9.88,9.88,0,0,1,168.73,68Z"/><path class="cls-1" d="M128.23,27.21l-3.12-1.79a.7.7,0,0,1-.31-.39l-2.22-7.51a.67.67,0,0,1,1-.75L130.27,21a14.1,14.1,0,0,1,4.9,5.27L137,29.63a6.26,6.26,0,0,1,.3,5.23l-2.61,6.62a.66.66,0,0,1-1.2.08l-1.2-2.17a.73.73,0,0,1-.08-.33V35.69a.63.63,0,0,0-.09-.33l-2.13-3.64a4,4,0,0,1-.55-2.25v-.13A2.31,2.31,0,0,0,128.23,27.21Z"/><path class="cls-1" d="M152.61,82.26c0-.14.09-.26.54-.46l7.49-3.42a.37.37,0,0,1,.5.18,5.56,5.56,0,0,0,.45.79,2.18,2.18,0,0,1-.17,2.63l-5.83,6.65a.38.38,0,0,1-.26.13l-3.28.23a.37.37,0,0,1-.28-.1l-2.52-2.26a.38.38,0,0,1,.16-.65A4.33,4.33,0,0,0,152.61,82.26Z"/><path class="cls-1" d="M154.1,53.49l-.1-.1a2.08,2.08,0,0,1,1.51-3.48,2,2,0,0,1,2,2v0a2,2,0,0,1-.46,1.29h0A2.12,2.12,0,0,1,154.1,53.49Z"/><path class="cls-1" d="M160.5,62.34a.47.47,0,0,1,.1-.1,2.09,2.09,0,0,1,3.28.69,2.32,2.32,0,0,1-.51,2.51.37.37,0,0,1-.19.12,3,3,0,0,1-1.44.2A2.08,2.08,0,0,1,160.5,62.34Z"/><path class="cls-1" d="M139.2,59.66a2.09,2.09,0,0,1,3,2.94.43.43,0,0,1-.09.1,2.09,2.09,0,0,1-3-3A.38.38,0,0,1,139.2,59.66Z"/><path class="cls-1" d="M142.57,69.24a2.1,2.1,0,0,1,2.94,3l-.1.09a2.09,2.09,0,0,1-2.94-3A.47.47,0,0,1,142.57,69.24Z"/><path class="cls-1" d="M146.54,79.59a2.82,2.82,0,0,1,1.77-.62,2.78,2.78,0,0,1,1.38.36,2.83,2.83,0,0,1,1.12,1.13.93.93,0,0,1,.05.1,2.77,2.77,0,0,1,.29,1.25,2.7,2.7,0,0,1-.18,1,2.82,2.82,0,0,1-1.49,1.6,2.85,2.85,0,0,1-1.17.25,2.81,2.81,0,0,1-1.72-.58,2.65,2.65,0,0,1-.57-.59,2.76,2.76,0,0,1-.55-1.66A2.84,2.84,0,0,1,146.54,79.59Z"/><path class="cls-1" d="M163.47,73.68l.09-.09c3.86-2.87,8.18,1.45,5.31,5.31l-.09.09C164.92,81.84,160.62,77.54,163.47,73.68Z"/><path class="cls-1" d="M116.9,23.49,126.54,28a1.59,1.59,0,0,1,.9,1.6,4.87,4.87,0,0,0,.79,3.21l1.28,1.92a.41.41,0,0,1-.52.6l-8-3.75a.44.44,0,0,1-.19-.17l-4.39-7.37A.42.42,0,0,1,116.9,23.49Z"/><path class="cls-1" d="M104.77,7.54l12.63,7.52a.32.32,0,0,1,.14.14l4.76,8.47a.39.39,0,0,1-.51.53l-6.41-3.35a.38.38,0,0,0-.55.34v.74a.38.38,0,0,1-.58.33l-6.81-3.88a1.61,1.61,0,0,1-.82-1.4V15.22a.78.78,0,0,1,1.16-.67l5.31,3a.38.38,0,0,0,.57-.33V15.47a.4.4,0,0,0-.2-.33L106.17,11a1,1,0,0,0-1.55.89v5.67a1.93,1.93,0,0,0,.91,1.63l6.78,4.24a.39.39,0,0,1,.18.33v2a.38.38,0,0,1-.58.32L103.72,21a1.94,1.94,0,0,1-.9-1.64V8.65A1.29,1.29,0,0,1,104.77,7.54Z"/><path class="cls-1" d="M164.1,101a63.4,63.4,0,0,0-1.62-14.28,4.23,4.23,0,0,1,.93-3.74l.91-1a1.52,1.52,0,0,1,2.63.69,68.21,68.21,0,0,1-33.78,72.65A63,63,0,0,0,164.1,101Z"/><path class="cls-1" d="M157.87,118a.78.78,0,0,1-1.45.18q-2.21-4.11-4.87-8.45c-2.55-4.15-5.13-7.95-7.65-11.41a.78.78,0,0,1-.16-.51c0-.63,0-1.21,0-1.75a.52.52,0,0,1,.89-.36c2.31,2.35,4.7,5,7.11,7.84,2.05,2.45,3.92,4.86,5.6,7.18a6.16,6.16,0,0,1,1.06,4.88C158.25,116.39,158.07,117.19,157.87,118Z"/><path class="cls-1" d="M154.35,128.05a.78.78,0,0,1-1.46-.09c-1.31-4-2.86-8.34-4.7-12.81-1.56-3.77-3.17-7.3-4.79-10.58a1.37,1.37,0,0,1-.13-.77c.09-.71.16-1.43.22-2.15a.45.45,0,0,1,.83-.21c2.16,3.44,4.35,7.19,6.49,11.24,1.7,3.23,3.22,6.37,4.59,9.4a4.2,4.2,0,0,1,.09,3.3Q155,126.73,154.35,128.05Z"/><path class="cls-1" d="M149.47,136.69a.78.78,0,0,1-1.42-.31c-.72-4.25-1.64-8.79-2.84-13.55-1.09-4.34-2.3-8.41-3.55-12.19a1.25,1.25,0,0,1,.07-.93,14,14,0,0,0,.73-1.93.43.43,0,0,1,.8,0c1.29,3.16,2.56,6.53,3.76,10.1,1.6,4.76,2.91,9.3,4,13.56a5.07,5.07,0,0,1-.64,4Z"/><path class="cls-1" d="M143.18,144.4a.79.79,0,0,1-1.35-.53c-.13-4.5-.44-9.36-1-14.51-.61-5.38-1.43-10.38-2.35-15a.79.79,0,0,1,.29-.78,8.64,8.64,0,0,0,.92-.85l.39-.41a.51.51,0,0,1,.86.22c1,3.92,2,8.13,2.8,12.63.92,5,1.56,9.81,2,14.25a4.49,4.49,0,0,1-1.12,3.42C144.14,143.39,143.66,143.9,143.18,144.4Z"/><path class="cls-1" d="M135,116.86a.91.91,0,0,1,.31-.79l1.34-1.15a.59.59,0,0,1,1,.36c.7,4.92,1.24,10.31,1.51,16.12.24,5.14.23,10,.06,14.46a5.24,5.24,0,0,1-2,3.94l-.57.44a.78.78,0,0,1-1.26-.68c.38-4.81.6-10,.56-15.59C135.86,127.82,135.51,122.09,135,116.86Z"/><path class="cls-1" d="M130.05,138.91c.86-6.47,1.31-12.5,1.49-18h0l1.65-2.87a.51.51,0,0,1,1,.24c.2,5.37.19,11.25-.18,17.57-.32,5.47-.87,10.59-1.55,15.32a4.65,4.65,0,0,1-2.29,3.38c-.85.49-1.71.95-2.58,1.39a.34.34,0,0,1-.49-.38C128.22,150.48,129.25,144.92,130.05,138.91Z"/><path class="cls-1" d="M120.22,155.34h0c1.41-4,2.78-8.4,4-13.07,1.31-4.87,2.33-9.52,3.15-13.9h0c.71-1.33,1.5-2.77,2.34-4.26a.34.34,0,0,1,.64.2c-.55,5-1.34,10.43-2.49,16.16-1.21,6.07-2.65,11.66-4.17,16.71a1.26,1.26,0,0,1-.73.81l-1.22.48a1.28,1.28,0,0,1-1.72-1.3Q120.13,156.24,120.22,155.34Z"/><path class="cls-1" d="M125.52,130.74c.66.21-6,24.3-7,24-.49-.11.17-4.88.62-7.27a42.09,42.09,0,0,1,2.47-8.33c.71-1.73,1.37-3.21,2.21-5A22,22,0,0,1,125.52,130.74Z"/><path class="cls-1" d="M148.17,50.11A11.48,11.48,0,0,0,146.6,45a1.93,1.93,0,0,0-2.7-.56L140,47.1a1.19,1.19,0,0,1-.33.22h0a1.21,1.21,0,0,1-1.33-.18L136.2,45.3a1.26,1.26,0,0,1-.36-1.37L139,35.31a6.83,6.83,0,0,0-.36-5.51l-2-3.86a19.77,19.77,0,0,0-6.32-7.15l-3.82-2.62a1.26,1.26,0,0,1-.37-.39L117.9,1.88A1.25,1.25,0,0,1,119,0a8,8,0,0,1,3.14.9L135.66,8a4.76,4.76,0,0,1,2.53,4.68L138,15.07a.56.56,0,0,1-.88.4l-3.94-2.83a.68.68,0,0,0-.86,1l5.2,4.89a1.22,1.22,0,0,1,.27.37l5.14,10.81a10.44,10.44,0,0,1,.42,1h0v0a11.63,11.63,0,0,1,.52,2.23,15.66,15.66,0,0,1,.2,2.39c0,.41,0,1.33,0,2.7,0,.79.06,1.43.09,1.87a3.1,3.1,0,0,0,6.19-.14,1.4,1.4,0,0,1,1.4,1.37c0,2.68-1.35,6.23-2.79,9A.41.41,0,0,1,148.17,50.11Z"/><path class="cls-1" d="M132.68,55.23c-.12.27-1.21-.12-1.41-.16a27.76,27.76,0,0,0-5-.45l-.56,0a44.68,44.68,0,0,0-8.34,0c-1.53.2-3.29.56-4.35,1.76-.17.2-.68.76-.52,1.06s.54.19.7.19a21.81,21.81,0,0,1,5.53.87,12.38,12.38,0,0,1,2.33.89,14.51,14.51,0,0,1,5.06,3.67c.52.59.6.8.53.93l-.06.07c-.19.18-.69.07-1,0l-.14,0-.45-.08H125c-.79-.15-1.58-.31-2.39-.43a39.28,39.28,0,0,0-5.74-.28h-.13l-2.56.05a2.92,2.92,0,0,0-1.49.24l-.1.08a1.3,1.3,0,0,0-.39.46l0,0h0c-.11.2-.19.41-.31.62,0,0,0,0,0,0-1,1.87-4.2,2-4.39,2a6.08,6.08,0,0,1-4.11-1.42c-1.19-1-1.49-2.34-2.09-4.91a36.69,36.69,0,0,1-.64-7.26,6.23,6.23,0,0,1,.57-3.19,5.76,5.76,0,0,1,.63-1c1.23-1.52,3.61-1.89,5.44-2a33.47,33.47,0,0,1,8.68,1c.69.14,1.38.3,2.08.47l1,.26c.68.18,1.37.37,2,.57l.71.22q.66.19,1.32.42l.56.19.2.07.25.09c.72.26,1.42.51,2.12.8l.68.3.87.42.5.28c1.27.72,2.5,1.54,3.69,2.38C132.21,54.66,132.76,55.06,132.68,55.23Z"/><path class="cls-1" d="M142.83,91.17c-.27-.12-.47.09-1.21,0a2.25,2.25,0,0,1-1.35-.44c-.39-.34-.27-.65-.76-1.2a4,4,0,0,0-.64-.54c-1-.87.22-2.7-.44-5.13-.09-.34-.27-.87-.44-1.74-.12-.62-.17-1.1-.21-1.37a42.27,42.27,0,0,1-.4-4.26c-.14-2.69.14-3.08.11-6-.05-3.72-.5-4.47-.25-7.59a19.34,19.34,0,0,1,.46-3.11c.48-2.11.85-2.08,1.09-3.49a11.76,11.76,0,0,0-.56-5.4,16.09,16.09,0,0,0-1-2.65,10.3,10.3,0,0,0-.86-1.44c-.62-.84-2-2.18-3.41-3.89a3.1,3.1,0,0,1-.9-1.65,9.36,9.36,0,0,0-.09-1.29,1.59,1.59,0,0,0-.32-.88,2,2,0,0,0-.77-.46c-.26-.1-.49-.22-.74-.33-1.93-.91-3.94-1.79-5.91-2.68-1-.44-2-.88-2.92-1.3a3.47,3.47,0,0,1-1-.9c-.25-.35-.57-.89-.85-1.32l-1.76-2.73L116.75,28l-.44-.68a1.64,1.64,0,0,0-.59-.54,1.53,1.53,0,0,0-.81-.16,1.51,1.51,0,0,0-1.3,1,1.29,1.29,0,0,0-.1.42v.23l0,.41a.77.77,0,0,1-.39.64.75.75,0,0,1-.74,0l-1.45-.74a8.9,8.9,0,0,0-.84-.39A3.13,3.13,0,0,0,109,28a3.17,3.17,0,0,0-1.1.18l-.26.1-.18.08-.38.17-3,1.3-3,1.32-.37.16-.18.08-.13.05a1.78,1.78,0,0,1-.52.11,1.91,1.91,0,0,1-1-.23,2.8,2.8,0,0,1-.46-.36l-.6-.55a4.15,4.15,0,0,0-.81-.62,3.47,3.47,0,0,0-1-.41,3.59,3.59,0,0,0-1.06-.1h-.8l-1.61,0-1.61,0H89.69a3.35,3.35,0,0,0-.54,0,3.7,3.7,0,0,0-2,.92l-.61.55-.3.28-.21.17a1.85,1.85,0,0,1-1,.32,1.57,1.57,0,0,1-.53-.06,1.21,1.21,0,0,1-.25-.08l-.35-.15-3-1.32-3-1.31-.75-.32a3.38,3.38,0,0,0-1-.3,3.19,3.19,0,0,0-1.11.08,3.91,3.91,0,0,0-.94.37l-1.45.75a1.45,1.45,0,0,1-.49.2.7.7,0,0,1-.38,0,.72.72,0,0,1-.48-.53.34.34,0,0,1,0-.1v-.2l0-.41a1.6,1.6,0,0,0-.23-.78,1.49,1.49,0,0,0-.65-.55,1.54,1.54,0,0,0-1.58.18,2,2,0,0,0-.28.31l-.13.19-.22.34-.88,1.37-1.76,2.73-.86,1.36a3.32,3.32,0,0,1-1,1,14.76,14.76,0,0,1-1.38.69l-1.47.69L55,38.39a3.26,3.26,0,0,0-1.4,1,2.6,2.6,0,0,0-.48,1,9.44,9.44,0,0,0-.67,1.76c-1.15,3.71-4.17,3.33-5.4,7.13a21.12,21.12,0,0,0-.67,4.31,8.23,8.23,0,0,0,0,2.47,20.69,20.69,0,0,0,1,3,13,13,0,0,1,.43,3.11,28.22,28.22,0,0,1-.07,4.94A98.4,98.4,0,0,0,47.52,78a44.39,44.39,0,0,1-.32,8.69c-.35,2.16-.76,3.15-1.59,3.81-1.11.88-1.87.93-2.64,1.9s-.77,1.94-.68,4a37.63,37.63,0,0,0,1.31,10.09,12.54,12.54,0,0,0,1.53,3.88,28.69,28.69,0,0,0,4,3.75,5.4,5.4,0,0,0,1.18.8,8.67,8.67,0,0,0,1.6.51c1,.38,1.48,1.55,1.9,2.54.69,1.63,1.59,3.16,2.35,4.76,1.56,3.26,2.14,3,4.45,7.41.78,1.48,1.39,2.79,1.76,3.58.78,1.68,1.61,3.47,2,4.68A41.89,41.89,0,0,1,67,150a38.93,38.93,0,0,1-.1,6.49,2.88,2.88,0,0,0,2.17,3.1,101,101,0,0,0,45.8.06,2.87,2.87,0,0,0,2.2-3.18v0c-.34-2.52-.38-2.67-.44-3.44-.07-1-.13-2.29-.16-3,0-.19,0-.56,0-.75a31.77,31.77,0,0,1,.7-6.42,78.82,78.82,0,0,1,6.1-16c.84-1.66,2.13-4.1,3.4-6.4.88-1.62,1.64-3,2.18-3.88a5.91,5.91,0,0,0-1.25,1c-.24.26-.41.47-.47.55a48.41,48.41,0,0,1-3,3.84,27.76,27.76,0,0,1-13.38,8.43c-.83.21-1.66.38-2.51.51a47,47,0,0,1-8.8.35,32.75,32.75,0,0,1-8.43-.95A8.65,8.65,0,0,1,86.14,127a4.75,4.75,0,0,1-.81-2.2,3.67,3.67,0,0,1,1.51-3.08c2.51-2,4.17-.94,8.54-3.15a29,29,0,0,0,4.56-3.11,24.64,24.64,0,0,0,2.21-1.89c2.22-2.13,2.73-3.38,2.86-3.75a7,7,0,0,0,.42-1.86,2.25,2.25,0,0,1-.24.37,3.21,3.21,0,0,1-.26.3,8.43,8.43,0,0,1-2.31,1.48A14.51,14.51,0,0,1,97,111.87a12.54,12.54,0,0,1-2.6,0,3,3,0,0,1-1-.28,2,2,0,0,0-.46-.19,1.81,1.81,0,0,0-.52-.07,1.74,1.74,0,0,0-.47.06,2.37,2.37,0,0,0-.5.2s-.15.07-.69.25a9.38,9.38,0,0,1-4.14-.19,15.36,15.36,0,0,1-2.21-.54c-.51-.17-.94-.37-1.8-.75-2.09-.94-2.64-1.34-3-2a1,1,0,0,1-.18-.51c0-.36.29-.87,2.57-1.91a25.18,25.18,0,0,1,2.63-1,14.15,14.15,0,0,1,4.6-.76,3.28,3.28,0,0,1,1.17.4s0,0,0,0c.52.34.92.64,1.2.85s.52.42.78.41.43-.18.77-.46.74-.52,1.1-.78c.63-.45,1.39-.49,2.89-.56a21.42,21.42,0,0,1,2.69.06c.62,0,1.38.1,2.36.25a30.66,30.66,0,0,1,3.19.69,5.22,5.22,0,0,0,2.68.37c.3-.07.86-.23.86-.37s-.14-.08-.42-.18a4,4,0,0,1-1.08-.62,5.35,5.35,0,0,1-.47-.38c-1-.94-2-1.9-3.15-2.76-2.52-2-5.91-4.55-7.87-3.54-.19.1-.13.11-.66.47a6.45,6.45,0,0,1-2.89,1.42c-.51,0-1.33-.41-3-1.3-1.22-.67-1.69-1-1.69-1.5a1,1,0,0,1,.33-.66c5-5,8.9-5.62,8.9-5.62,1.57-.39,3.48-.21,4.88-1.08.34-.21,1.51-.92,1.58-2,.06-.86-.65-1.5-1.58-2.36-3.28-3.06-3.8-3.79-6.69-5.91a4.35,4.35,0,0,0-2.76-1.18,4.13,4.13,0,0,0-2.36,1.18c-1.69,1.36-3.56,2.52-5.17,4a9.77,9.77,0,0,0-3.1,4.69c-.18.74-.08.86-.39,3.93a14.71,14.71,0,0,1-.73,4,18.76,18.76,0,0,1-2.28,3.86,9,9,0,0,1-3.06,3c-2.07,1.11-4.4.23-6.24-.41-3.85-1.33-6.25-3.71-8.55-6a36.48,36.48,0,0,1-4.59-5.57c-2.47-3.54-3.69-5.35-3.35-7.61a5.76,5.76,0,0,1,2.23-3.88c2.2-1.34,4.61-2.43,6.9-3.62.29-.15-.1,0,5-2.82a6.49,6.49,0,0,0,2.45-2.18,3,3,0,0,0,.56-2.23,2.49,2.49,0,0,0-.4-.79,3.47,3.47,0,0,0-1.57-1.18,9,9,0,0,0-3.75-.54,30.46,30.46,0,0,0-4.52.54c-1.09.18-2.57.44-4.33.79a11.64,11.64,0,0,1,2.49-2,11.8,11.8,0,0,1,2.77-1.22,10.82,10.82,0,0,1,3.24-.53c.72,0,1.44-.08,2.16-.07a21.82,21.82,0,0,1,2.29.13c1.37.14,2.78.41,4-.29.34-.19.7-.54,1.12-.38a.73.73,0,0,1,.39.4,1,1,0,0,1-.16.74c-.4.86-1.5,1.72-1.39,2.75a1.81,1.81,0,0,0,.43.93,11.34,11.34,0,0,0,1.09,1.2,7.09,7.09,0,0,0,4,1.86c.27,0,.45,0,.56,0a4.09,4.09,0,0,0,2-.72A13.19,13.19,0,0,0,83,67.52c2.21-2.71,3.76-4.61,4.7-7.74.72-2.41,2-6.63-.23-9.62-1-1.37-2.5-2.16-5.12-2.76a29.47,29.47,0,0,0-12.2,0,42.73,42.73,0,0,0-10.63,3.54,48.3,48.3,0,0,0-6.3,3.55c.49-5.29.76-9,.84-11.47h0a6.81,6.81,0,0,1,1.25-2.58,9.51,9.51,0,0,1,2.44-1.52c1.55-.68,2.8-1.19,3.63-1.52a9.31,9.31,0,0,0,3.5-2A7.5,7.5,0,0,0,66,34.06c.43-.72.87-1.43,1.31-2.15l2.14-3.28.23-.32v.45a1.67,1.67,0,0,0,0,.31,2.4,2.4,0,0,0,1.5,1.85,2.43,2.43,0,0,0,1.22.15,3.28,3.28,0,0,0,1-.36L74.93,30a2.05,2.05,0,0,1,.55-.22,1.75,1.75,0,0,1,.51,0,1.52,1.52,0,0,1,.5.16l.74.34,2.94,1.37,3,1.36.4.17a3.09,3.09,0,0,0,.51.18,3.59,3.59,0,0,0,1.08.13,3.9,3.9,0,0,0,2.06-.66,2.83,2.83,0,0,0,.42-.34l.31-.27.59-.54a1.79,1.79,0,0,1,.93-.41,1.14,1.14,0,0,1,.26,0h1.21l1.64,0,1.64,0,.82,0a1.81,1.81,0,0,1,.55.05,1.7,1.7,0,0,1,.49.18,3.15,3.15,0,0,1,.47.37l.6.55a4.06,4.06,0,0,0,.83.61,3.79,3.79,0,0,0,2.11.47,3.85,3.85,0,0,0,1.06-.22l.26-.11.18-.08.37-.17,3-1.36,2.94-1.37.37-.17.18-.08.12,0a1.71,1.71,0,0,1,.5-.1,2.16,2.16,0,0,1,1.13.37l1.46.71a2.49,2.49,0,0,0,2.37-.08,2.44,2.44,0,0,0,1.17-2.05v-.39l.37.54.93,1.33,1.87,2.66.45.64a8,8,0,0,0,2,1.88,14.93,14.93,0,0,0,2.92,1.24,34.33,34.33,0,0,1,3.88,1.7c2.18,1.07,2.67,1.57,3,2a11.66,11.66,0,0,1,.82,2c.67,1.49,1.57,2,2.58,3,.23.23,3.38,3.62,3.12,7.38a10.26,10.26,0,0,1-.69,3c-.35.92-.89,1.75-1.26,2.66a11.72,11.72,0,0,0-.73,3.08,53,53,0,0,0,0,6.67,49.57,49.57,0,0,1-1,10.3,9.06,9.06,0,0,1-1.21,3.74A6.48,6.48,0,0,0,131,84.61a2.73,2.73,0,0,0-.16,1.29c.2.61.78.12,1.14-.12.94-.64,2-1,3-1.57,1.79-1,2.43-1.8,2.75-1.57s0,.44,0,1.57.2,1.38,0,2c-.05.19-.11.27-.78,1.18-1,1.4-1.21,1.61-1.18,2a1.72,1.72,0,0,0,.78,1.18c.53.34,1.22.13,1.75.5.34.24.51.64.81.92a9.51,9.51,0,0,0,2,1.25.9.9,0,0,1,.52.45s0,0,0,0a1.08,1.08,0,0,1,0,.31c-.08,1.34,0,2.68-.1,4a37.62,37.62,0,0,1-2.61,10.54c-.86,2.15-2,4.79-4.38,5.61-.13,0-.58.2-.78,0s0-1.08,0-1.17l0,0a50.7,50.7,0,0,0-3.73,4.67,59.26,59.26,0,0,0-5,8.72c-2.81,5.73-5.16,11.83-4.87,12s2.31-3.77,3.64-6.52c1.06-2.19,1.42-3.2,2.68-5.55.43-.8.16-.26,2.18-3.77,1.9-3.29,2.66-4.67,4.34-6a10.49,10.49,0,0,1,1.06-.73s1.13-.69,2.54-1.76a11,11,0,0,0,2.74-2.65,11.86,11.86,0,0,0,1.37-3,27.42,27.42,0,0,0,.85-2.94c.3-1.29.46-2.22.72-3.84.07-.42.49-3,.95-7C143.31,93.29,143.5,91.47,142.83,91.17Zm-73-63Z"/><rect class="cls-1" x="89.9" y="7.36" width="5.03" height="8.6" rx="2.52"/><path class="cls-1" d="M26.42,108.08,38.59,94.89a3.06,3.06,0,0,1,1.6-.9.7.7,0,0,0,.56-.68v-.44a.71.71,0,0,0-.92-.67l-1.52.5a10.79,10.79,0,0,0-2.72,1.35L31,97.17a2.14,2.14,0,0,1-3.35-1.76V91a.57.57,0,0,0-.14-.38l-1.65-1.88a.58.58,0,0,0-1,.3,70.51,70.51,0,0,0-.18,18.47A1,1,0,0,0,26.42,108.08Z"/><circle class="cls-1" cx="37.61" cy="39.88" r="1.89"/><path class="cls-1" d="M32.82,36a2.44,2.44,0,0,0,2.31,1.66h.28a3.12,3.12,0,0,1,2.2-.9,3,3,0,0,1,1.13.21v-.18A24.71,24.71,0,0,1,41.48,25.5l2.35-4.56a12.05,12.05,0,0,0,1.32-5.5V8.54A1.16,1.16,0,0,0,43,8L32.17,27.56a6.45,6.45,0,0,0-.47,5.12Z"/><path class="cls-1" d="M13.14,76.29a5.51,5.51,0,0,1,2.54-4.64h0l.08-.09L6.59,59.76a1.21,1.21,0,0,0-2.17.79l.51,14a10.9,10.9,0,0,0,.7,3.5,11.12,11.12,0,0,0,1.77,3.1,12.75,12.75,0,0,1,2.83,7,48.4,48.4,0,0,0,2.58,13.07.5.5,0,0,0,1-.2,67.65,67.65,0,0,1,2-20.12A5.51,5.51,0,0,1,13.14,76.29Z"/><path class="cls-1" d="M45.65,84.2l.3-1.12a1.29,1.29,0,0,0-.67-1.49l-4.39-2.25a.38.38,0,0,0-.51.52,4.38,4.38,0,0,1,.46,2,1.27,1.27,0,0,1,0,.2,1.27,1.27,0,0,0,.49,1.06l2.26,1.81A1.3,1.3,0,0,0,45.65,84.2Z"/><path class="cls-1" d="M43.75,89.22l.3-.47A1.31,1.31,0,0,0,43.72,87L41,85a1.29,1.29,0,0,0-1.6.07h0a1.31,1.31,0,0,0-.3,1.61l.22.41a1.27,1.27,0,0,0,.27.34l2.26,2A1.3,1.3,0,0,0,43.75,89.22Z"/><path class="cls-1" d="M38,87.79a1.31,1.31,0,0,0-1.79,0l-.49.44a1.3,1.3,0,0,0-.05,1.88l1.14,1.14a1.32,1.32,0,0,0,1.27.34l.73-.21a1.29,1.29,0,0,0,.57-2.17Z"/><path class="cls-1" d="M32.63,90.23h-1.9a1.3,1.3,0,0,0-1.3,1.31l0,3.3a.78.78,0,0,0,1.16.67l3.55-2.05a1.3,1.3,0,0,0,.22-2.1l-.9-.8A1.23,1.23,0,0,0,32.63,90.23Z"/><path class="cls-1" d="M36.18,56.15,34.9,58.79a11.56,11.56,0,0,0-1.13,4.83v1.24a9.59,9.59,0,0,0,1.84,5.75l4.11,5.66a.41.41,0,0,0,.14.12l5.81,2.72a.38.38,0,0,0,.54-.36L46,72.46a.33.33,0,0,0-.09-.23l-2.2-2.62a3.19,3.19,0,0,1,.22,1.16,3.08,3.08,0,0,1-3.08,3.08c-2.42,0-4.19-2.8-2.26-5.33l.1-.1a3.63,3.63,0,0,1,2.56-.71.38.38,0,0,0,.33-.63l-.3-.36a.21.21,0,0,1-.06-.1L36.88,56.17A.38.38,0,0,0,36.18,56.15Z"/><path class="cls-1" d="M44.29,48.08A35.71,35.71,0,0,1,41.21,46a1.1,1.1,0,0,0-1.7.28l-.15.29a7.87,7.87,0,0,0-1,3.55L38.19,54a.45.45,0,0,0,0,.16L40.65,60a.38.38,0,0,0,.7,0,3.09,3.09,0,0,1,2.85-1.91,3,3,0,0,1,.67.08l-.48-.7a.44.44,0,0,1-.06-.16,74.75,74.75,0,0,1,.79-7.47A1.79,1.79,0,0,0,44.29,48.08Z"/><path class="cls-1" d="M43.06,65.79l2.68,3.36a.38.38,0,0,0,.68-.21l.28-5a.38.38,0,0,0-.62-.3,3.07,3.07,0,0,1-1.88.64A3.16,3.16,0,0,1,43,64a.38.38,0,0,0-.49.5L43,65.7Z"/><path class="cls-1" d="M26.51,49.64a.38.38,0,0,0,.63.13,3.08,3.08,0,0,1,2.19-.91,3.14,3.14,0,0,1,2.49,5l-.07.09A3.34,3.34,0,0,1,29,55a.38.38,0,0,0-.41.51l2.76,7.9a.38.38,0,0,0,.74-.13A11.41,11.41,0,0,1,33.36,58l1.46-2.81a4.69,4.69,0,0,0,.11-4.12l-2.16-4.73a12.55,12.55,0,0,1-.93-7.57l0-.13a.34.34,0,0,0,0-.2l-2.49-7.28a1,1,0,0,0-1.94,0l-1.89,5a15.07,15.07,0,0,0-.12,10.3Z"/><path class="cls-1" d="M18,70.37s0,0,.05,0l.42.35h.15a5.52,5.52,0,0,1,5.48,4.84l.07.06,8.12,4.06a.37.37,0,0,0,.49-.14l0-.06a.38.38,0,0,0,0-.45L22.11,66.83a.36.36,0,0,0-.18-.12,3.08,3.08,0,0,1-2.21-2.95,3,3,0,0,1,.19-1,.5.5,0,0,0,0-.12V48.88a.38.38,0,0,1,.74-.13l.26.71a.28.28,0,0,1,0,.13v11a.38.38,0,0,0,.55.34,3.08,3.08,0,0,1,2.82,5.48.38.38,0,0,0-.11.59l9.72,11a.38.38,0,0,0,.47.06,4.34,4.34,0,0,1,4.48.15l0-.13-3.56-4.68a39.12,39.12,0,0,1-5.6-10.27L22.22,42.28a.2.2,0,0,0,0-.08L16.4,33.93a1.36,1.36,0,0,0-2.47.78V61.77A9.88,9.88,0,0,0,16.11,68Z"/><path class="cls-1" d="M56.6,27.21l3.13-1.79A.7.7,0,0,0,60,25l2.21-7.51a.66.66,0,0,0-1-.75L54.57,21a14,14,0,0,0-4.9,5.27l-1.79,3.37a6.26,6.26,0,0,0-.29,5.23l2.6,6.62a.67.67,0,0,0,1.21.08l.47-.86a6.49,6.49,0,0,0,.81-3.13V35.69a.63.63,0,0,1,.09-.33l2.13-3.64a4,4,0,0,0,.55-2.25v-.13A2.35,2.35,0,0,1,56.6,27.21Z"/><path class="cls-1" d="M32.23,82.26c0-.14-.09-.26-.54-.46l-7.5-3.42a.38.38,0,0,0-.5.18,4.69,4.69,0,0,1-.44.79A2.18,2.18,0,0,0,23.42,82l5.83,6.65a.36.36,0,0,0,.26.13l3.28.23a.37.37,0,0,0,.28-.1l2.52-2.26a.38.38,0,0,0-.16-.65A4.33,4.33,0,0,1,32.23,82.26Z"/><path class="cls-1" d="M30.74,53.49l.1-.1a2.08,2.08,0,0,0-1.51-3.48,2,2,0,0,0-2,2,0,0,0,0,0,0,0,2,2,0,0,0,.47,1.29h0A2.12,2.12,0,0,0,30.74,53.49Z"/><path class="cls-1" d="M24.34,62.34a.47.47,0,0,0-.1-.1,2.09,2.09,0,0,0-3.28.69,2.34,2.34,0,0,0,.5,2.51.47.47,0,0,0,.19.12,3,3,0,0,0,1.44.2A2.08,2.08,0,0,0,24.34,62.34Z"/><path class="cls-1" d="M45.63,59.66a2.09,2.09,0,0,0-3,2.94.47.47,0,0,0,.1.1,2.09,2.09,0,0,0,3-3A.28.28,0,0,0,45.63,59.66Z"/><path class="cls-1" d="M42.27,69.24a2.1,2.1,0,0,0-2.94,3l.1.09a2.09,2.09,0,0,0,2.94-3A.47.47,0,0,0,42.27,69.24Z"/><path class="cls-1" d="M38.3,79.59A2.85,2.85,0,0,0,36.52,79,2.86,2.86,0,0,0,34,80.46a1,1,0,0,0,0,.1,2.77,2.77,0,0,0-.29,1.25,2.93,2.93,0,0,0,.17,1,2.84,2.84,0,0,0,1.5,1.6,2.81,2.81,0,0,0,1.16.25,2.77,2.77,0,0,0,1.72-.58,2.7,2.7,0,0,0,.58-.59,2.84,2.84,0,0,0-.52-3.88Z"/><path class="cls-1" d="M21.36,73.68a.38.38,0,0,0-.09-.09C17.42,70.72,13.09,75,16,78.9a.76.76,0,0,0,.09.09C19.92,81.84,24.22,77.54,21.36,73.68Z"/><path class="cls-1" d="M67.94,23.49,58.29,28a1.6,1.6,0,0,0-.89,1.6,4.87,4.87,0,0,1-.79,3.21l-1.28,1.92a.41.41,0,0,0,.52.6l8-3.75a.37.37,0,0,0,.18-.17l4.4-7.37A.42.42,0,0,0,67.94,23.49Z"/><path class="cls-1" d="M82,19.35V8.65a1.29,1.29,0,0,0-2-1.11L67.43,15.06a.35.35,0,0,0-.13.14l-4.76,8.47a.39.39,0,0,0,.51.53l6.4-3.35a.38.38,0,0,1,.56.34v.74a.38.38,0,0,0,.57.33l6.82-3.88a1.61,1.61,0,0,0,.81-1.4V15.22a.77.77,0,0,0-1.16-.67l-5.3,3a.38.38,0,0,1-.57-.33V15.47a.39.39,0,0,1,.19-.33L78.67,11a1,1,0,0,1,1.54.89v5.67a1.93,1.93,0,0,1-.9,1.63l-6.78,4.24a.37.37,0,0,0-.18.33v2a.38.38,0,0,0,.58.32L81.12,21A1.94,1.94,0,0,0,82,19.35Z"/><path class="cls-1" d="M20.73,101a63.4,63.4,0,0,1,1.63-14.28,4.24,4.24,0,0,0-.94-3.74l-.91-1a1.47,1.47,0,0,0-1.24-.51,1.51,1.51,0,0,0-1.38,1.2,68.12,68.12,0,0,0,33.78,72.65A63,63,0,0,1,20.73,101Z"/><path class="cls-1" d="M27,118a.79.79,0,0,0,1.46.18q2.2-4.11,4.86-8.45c2.55-4.15,5.13-7.95,7.66-11.41a.84.84,0,0,0,.16-.51c0-.63,0-1.21,0-1.75a.52.52,0,0,0-.9-.36c-2.31,2.35-4.7,5-7.11,7.84-2.05,2.45-3.91,4.86-5.6,7.18a6.19,6.19,0,0,0-1,4.88Q26.66,116.8,27,118Z"/><path class="cls-1" d="M30.49,128.05A.79.79,0,0,0,32,128c1.31-4,2.86-8.34,4.7-12.81,1.56-3.77,3.17-7.3,4.79-10.58a1.37,1.37,0,0,0,.13-.77c-.1-.71-.17-1.43-.23-2.15a.45.45,0,0,0-.83-.21c-2.16,3.44-4.34,7.19-6.48,11.24q-2.55,4.84-4.6,9.4a4.2,4.2,0,0,0-.08,3.3Q29.89,126.73,30.49,128.05Z"/><path class="cls-1" d="M35.37,136.69a.79.79,0,0,0,1.42-.31c.71-4.25,1.64-8.79,2.84-13.55,1.09-4.35,2.29-8.41,3.54-12.19a1.2,1.2,0,0,0-.06-.93,15.4,15.4,0,0,1-.74-1.93.42.42,0,0,0-.79,0c-1.29,3.16-2.56,6.53-3.76,10.1-1.61,4.76-2.91,9.3-4,13.56a5.07,5.07,0,0,0,.65,4C34.78,135.82,35.07,136.26,35.37,136.69Z"/><path class="cls-1" d="M41.66,144.4a.79.79,0,0,0,1.35-.53c.12-4.5.43-9.36,1-14.51.61-5.38,1.42-10.38,2.35-15a.79.79,0,0,0-.29-.78,8.66,8.66,0,0,1-.93-.85l-.38-.41a.51.51,0,0,0-.87.22c-1,3.92-2,8.13-2.8,12.63-.92,5-1.56,9.81-2,14.25a4.46,4.46,0,0,0,1.12,3.42C40.7,143.39,41.17,143.9,41.66,144.4Z"/><path class="cls-1" d="M49.55,116.07l-1.34-1.15a.6.6,0,0,0-1,.36c-.69,4.92-1.24,10.31-1.5,16.12-.24,5.14-.24,10-.07,14.46a5.28,5.28,0,0,0,2,3.94l.57.44a.79.79,0,0,0,1.27-.68c-.38-4.81-.6-10-.56-15.59,0-6.15.39-11.88.92-17.11A.91.91,0,0,0,49.55,116.07Z"/><path class="cls-1" d="M53.3,120.9h0L51.64,118a.51.51,0,0,0-1,.24c-.2,5.37-.18,11.25.19,17.57.32,5.47.87,10.59,1.55,15.32a4.62,4.62,0,0,0,2.29,3.38c.84.49,1.7.95,2.58,1.39a.34.34,0,0,0,.49-.38c-1.16-5.06-2.2-10.62-3-16.63C53.93,132.44,53.48,126.41,53.3,120.9Z"/><path class="cls-1" d="M64.62,155.34c-1.41-4-2.78-8.41-4-13.07-1.3-4.87-2.33-9.52-3.14-13.9h0c-.71-1.33-1.51-2.77-2.34-4.26a.34.34,0,0,0-.64.2c.54,5,1.34,10.43,2.48,16.16,1.22,6.07,2.66,11.66,4.17,16.71a1.24,1.24,0,0,0,.74.81c.4.17.81.32,1.22.48a1.28,1.28,0,0,0,1.72-1.3q-.09-.93-.18-1.83Z"/><path class="cls-1" d="M60.65,133.33c-.47.15,4.08,17.19,4.61,17.07.31-.07-.55-6.29-2.77-12.6C62.12,136.75,60.86,133.26,60.65,133.33Z"/><path class="cls-1" d="M46.86,15.07a.56.56,0,0,0,.89.4l3.94-2.83a.68.68,0,0,1,.86,1l-5.2,4.89a1.25,1.25,0,0,0-.28.37L41.94,29.76c-.16.35-.3.69-.43,1h0v0A10.31,10.31,0,0,0,41,33.05a14.47,14.47,0,0,0-.2,2.39c0,.41,0,1.33,0,2.7,0,.79-.05,1.43-.08,1.87a3.1,3.1,0,0,1-6.19-.14,1.41,1.41,0,0,0-1.41,1.37c0,2.68,1.36,6.23,2.8,9a.41.41,0,0,0,.77-.15A11.48,11.48,0,0,1,38.24,45a1.92,1.92,0,0,1,2.69-.56l3.9,2.63a1.14,1.14,0,0,0,.32.22h0a1.22,1.22,0,0,0,1.33-.18l2.15-1.84A1.24,1.24,0,0,0,49,43.93l-3.15-8.62a6.83,6.83,0,0,1,.36-5.51l2-3.86a19.77,19.77,0,0,1,6.32-7.15l3.82-2.62a1.12,1.12,0,0,0,.36-.39l8.23-13.9A1.25,1.25,0,0,0,65.79,0a8,8,0,0,0-3.13.9L49.17,8a4.8,4.8,0,0,0-2.53,4.68Z"/><path class="cls-1" d="M100.9,14.2v4.14a.7.7,0,0,1-.7.69H84.63a.69.69,0,0,1-.7-.69V14.2a2.22,2.22,0,0,1,1.19-2l2.5-1.31a.4.4,0,0,1,.59.36v1.63a5.31,5.31,0,0,0,1.56,3.75,3.73,3.73,0,0,0,2.62,1.09h0a3.73,3.73,0,0,0,2.62-1.09,5.31,5.31,0,0,0,1.56-3.75V11.29a.4.4,0,0,1,.59-.36l2.5,1.31A2.22,2.22,0,0,1,100.9,14.2Z"/><path class="cls-1" d="M160.14,107.52A71,71,0,0,0,160,89.05a.57.57,0,0,0-1-.3l-1.65,1.88a.54.54,0,0,0-.15.38v4.4a2.13,2.13,0,0,1-3.34,1.76l-4.57-3.12a10.57,10.57,0,0,0-2.71-1.35L145,92.2a.7.7,0,0,0-.92.67v.44a.69.69,0,0,0,.56.68,3,3,0,0,1,1.59.9l12.17,13.19A1,1,0,0,0,160.14,107.52Z"/><circle class="cls-1" cx="147.23" cy="39.88" r="1.89"/><path class="cls-1" d="M143.36,25.5a24.7,24.7,0,0,1,2.73,11.31V37a3.14,3.14,0,0,1,3.33.69h.28A2.43,2.43,0,0,0,152,36l1.12-3.34a6.4,6.4,0,0,0-.46-5.12L141.87,8a1.17,1.17,0,0,0-2.19.56v6.9a12.06,12.06,0,0,0,1.33,5.5Z"/><path class="cls-1" d="M178.25,59.76l-9.18,11.79.08.09h0a5.52,5.52,0,0,1-.07,9.32,67.33,67.33,0,0,1,2,20.12.5.5,0,0,0,1,.2,48.79,48.79,0,0,0,2.58-13.07,12.74,12.74,0,0,1,2.82-7,11.15,11.15,0,0,0,1.78-3.1,10.9,10.9,0,0,0,.7-3.5l.51-14A1.21,1.21,0,0,0,178.25,59.76Z"/><path class="cls-1" d="M144.48,79.56a.38.38,0,0,0-.53-.22l-4.4,2.25a1.29,1.29,0,0,0-.66,1.49l.29,1.12a1.3,1.3,0,0,0,2.07.68l2.27-1.81A1.26,1.26,0,0,0,144,82v-.2a4.38,4.38,0,0,1,.46-2A.35.35,0,0,0,144.48,79.56Z"/><path class="cls-1" d="M141.09,89.22a1.3,1.3,0,0,0,2,.26l2.25-2a1.27,1.27,0,0,0,.27-.34l.22-.41a1.29,1.29,0,0,0-.3-1.61h0a1.31,1.31,0,0,0-1.61-.07l-2.76,2a1.31,1.31,0,0,0-.33,1.77Z"/><path class="cls-1" d="M146,91.34l.74.21a1.33,1.33,0,0,0,1.27-.34l1.13-1.14a1.29,1.29,0,0,0,0-1.88l-.48-.44a1.31,1.31,0,0,0-1.79,0l-1.38,1.38A1.29,1.29,0,0,0,146,91.34Z"/><path class="cls-1" d="M154.22,95.51a.78.78,0,0,0,1.16-.67l0-3.3a1.3,1.3,0,0,0-1.3-1.31h-1.9a1.28,1.28,0,0,0-.87.33l-.9.8a1.3,1.3,0,0,0,.22,2.1Z"/><path class="cls-1" d="M151.08,64.86l0-1.24a11.26,11.26,0,0,0-1.13-4.83l-1.27-2.64a.38.38,0,0,0-.7,0l-4.33,10.45a.33.33,0,0,1-.06.1l-.3.36a.38.38,0,0,0,.32.63,3.65,3.65,0,0,1,2.57.71l.1.1c1.92,2.53.16,5.33-2.26,5.33a3.08,3.08,0,0,1-3.09-3.08,3,3,0,0,1,.23-1.16l-2.21,2.62a.46.46,0,0,0-.09.23l-.2,6.29a.38.38,0,0,0,.54.36l5.8-2.72a.44.44,0,0,0,.15-.12l4.11-5.66A9.66,9.66,0,0,0,151.08,64.86Z"/><path class="cls-1" d="M145.48,46.55l-.16-.29a1.1,1.1,0,0,0-1.7-.28,35.71,35.71,0,0,1-3.08,2.1,1.79,1.79,0,0,0-.82,1.76,74.75,74.75,0,0,1,.79,7.47.44.44,0,0,1-.06.16l-.48.7a2.93,2.93,0,0,1,.67-.08A3.09,3.09,0,0,1,143.49,60a.38.38,0,0,0,.7,0l2.43-5.88a.3.3,0,0,0,0-.16l-.15-3.86A8,8,0,0,0,145.48,46.55Z"/><path class="cls-1" d="M138.14,63.92l.28,5a.38.38,0,0,0,.68.21l2.68-3.36a.26.26,0,0,0,.05-.09l.49-1.18a.38.38,0,0,0-.5-.5,3.08,3.08,0,0,1-3.07-.4A.37.37,0,0,0,138.14,63.92Z"/><path class="cls-1" d="M153,38.67l0,.13a12.62,12.62,0,0,1-.93,7.57l-2.16,4.73a4.73,4.73,0,0,0,.1,4.12L151.48,58a11.4,11.4,0,0,1,1.28,5.25.38.38,0,0,0,.74.13l2.77-7.9a.39.39,0,0,0-.41-.51,3.33,3.33,0,0,1-2.77-1l-.08-.09a3.14,3.14,0,0,1,2.5-5,3.1,3.1,0,0,1,2.19.91.38.38,0,0,0,.63-.13l1.1-3.15a15.07,15.07,0,0,0-.12-10.3l-1.89-5a1,1,0,0,0-1.95,0L153,38.47A.44.44,0,0,0,153,38.67Z"/><path class="cls-1" d="M149.46,73.38l-3.56,4.68,0,.13a4.34,4.34,0,0,1,4.48-.15.38.38,0,0,0,.47-.06l9.72-11a.38.38,0,0,0-.11-.59A3.08,3.08,0,0,1,163.33,61a.38.38,0,0,0,.55-.34v-11a.51.51,0,0,1,0-.13l.27-.71a.38.38,0,0,1,.74.13V62.6a.5.5,0,0,0,0,.12,3,3,0,0,1,.18,1,3.07,3.07,0,0,1-2.2,2.95.36.36,0,0,0-.18.12L152,79.08a.38.38,0,0,0,0,.45l0,.06a.38.38,0,0,0,.5.14l8.12-4.06.07-.06a5.51,5.51,0,0,1,5.47-4.84h.16l.41-.35,0,0L168.73,68a9.88,9.88,0,0,0,2.18-6.19V34.71a1.36,1.36,0,0,0-2.47-.78l-5.78,8.27a.22.22,0,0,0,0,.08l-7.55,20.83A39.12,39.12,0,0,1,149.46,73.38Z"/><path class="cls-1" d="M132.24,39.39l1.2,2.17a.67.67,0,0,0,1.21-.08l2.6-6.62a6.26,6.26,0,0,0-.3-5.23l-1.78-3.37a14.1,14.1,0,0,0-4.9-5.27l-6.69-4.22a.67.67,0,0,0-1,.75L124.8,25a.7.7,0,0,0,.31.39l3.12,1.79a2.31,2.31,0,0,1,1.16,2.13v.13a4,4,0,0,0,.55,2.25l2.13,3.64a.63.63,0,0,1,.09.33v3.37A.73.73,0,0,0,132.24,39.39Z"/><path class="cls-1" d="M161.59,79.35a5.56,5.56,0,0,1-.45-.79.37.37,0,0,0-.5-.18l-7.49,3.42c-.45.2-.53.32-.54.46a4.33,4.33,0,0,1-3.2,3.72.38.38,0,0,0-.16.65l2.52,2.26a.37.37,0,0,0,.28.1l3.28-.23a.38.38,0,0,0,.26-.13L161.42,82A2.18,2.18,0,0,0,161.59,79.35Z"/><path class="cls-1" d="M157.53,51.94v0a2,2,0,0,0-2-2A2.08,2.08,0,0,0,154,53.39l.1.1a2.12,2.12,0,0,0,3-.26h0A2,2,0,0,0,157.53,51.94Z"/><path class="cls-1" d="M163.37,65.44a2.32,2.32,0,0,0,.51-2.51,2.09,2.09,0,0,0-3.28-.69.47.47,0,0,0-.1.1,2.08,2.08,0,0,0,1.24,3.42,3,3,0,0,0,1.44-.2A.37.37,0,0,0,163.37,65.44Z"/><path class="cls-1" d="M139.11,59.75a2.09,2.09,0,0,0,3,3,.43.43,0,0,0,.09-.1,2.09,2.09,0,0,0-3-2.94A.38.38,0,0,0,139.11,59.75Z"/><path class="cls-1" d="M145.41,72.31l.1-.09a2.1,2.1,0,0,0-2.94-3,.47.47,0,0,0-.1.1A2.09,2.09,0,0,0,145.41,72.31Z"/><path class="cls-1" d="M151,82.79a2.7,2.7,0,0,0,.18-1,2.77,2.77,0,0,0-.29-1.25.93.93,0,0,0-.05-.1,2.83,2.83,0,0,0-1.12-1.13,2.78,2.78,0,0,0-1.38-.36,2.84,2.84,0,0,0-2.84,2.84,2.76,2.76,0,0,0,.55,1.66,2.65,2.65,0,0,0,.57.59,2.81,2.81,0,0,0,1.72.58,2.85,2.85,0,0,0,1.17-.25A2.82,2.82,0,0,0,151,82.79Z"/><path class="cls-1" d="M163.56,73.59l-.09.09c-2.85,3.86,1.45,8.16,5.31,5.31l.09-.09C171.74,75,167.42,70.72,163.56,73.59Z"/><path class="cls-1" d="M121,31.62l8,3.75a.41.41,0,0,0,.52-.6l-1.28-1.92a4.87,4.87,0,0,1-.79-3.21,1.59,1.59,0,0,0-.9-1.6l-9.64-4.55a.42.42,0,0,0-.53.59l4.39,7.37A.44.44,0,0,0,121,31.62Z"/><path class="cls-1" d="M122.3,23.67l-4.76-8.47a.32.32,0,0,0-.14-.14L104.77,7.54a1.29,1.29,0,0,0-2,1.11v10.7a1.94,1.94,0,0,0,.9,1.64l8.19,5.12a.38.38,0,0,0,.58-.32v-2a.39.39,0,0,0-.18-.33l-6.78-4.24a1.93,1.93,0,0,1-.91-1.63V11.88a1,1,0,0,1,1.55-.89l7.29,4.15a.4.4,0,0,1,.2.33v1.77a.38.38,0,0,1-.57.33l-5.31-3a.78.78,0,0,0-1.16.67V17a1.61,1.61,0,0,0,.82,1.4l6.82,3.88a.38.38,0,0,0,.57-.33v-.74a.38.38,0,0,1,.55-.34l6.41,3.35A.39.39,0,0,0,122.3,23.67Z"/><path class="cls-1" d="M165.57,81.39a1.5,1.5,0,0,0-1.25.51l-.91,1a4.23,4.23,0,0,0-.93,3.74,63.2,63.2,0,0,1-29.31,68.56A68.21,68.21,0,0,0,167,82.59,1.51,1.51,0,0,0,165.57,81.39Z"/><path class="cls-1" d="M157.87,118c.2-.79.38-1.59.55-2.4a6.16,6.16,0,0,0-1.06-4.88c-1.68-2.32-3.55-4.73-5.6-7.18-2.41-2.88-4.8-5.49-7.11-7.84a.52.52,0,0,0-.89.36c0,.54,0,1.12,0,1.75a.78.78,0,0,0,.16.51c2.52,3.46,5.1,7.26,7.65,11.41q2.67,4.33,4.87,8.45A.78.78,0,0,0,157.87,118Z"/><path class="cls-1" d="M154.35,128.05q.6-1.32,1.14-2.67a4.2,4.2,0,0,0-.09-3.3c-1.37-3-2.89-6.17-4.59-9.4-2.14-4.05-4.33-7.8-6.49-11.24a.45.45,0,0,0-.83.21c-.06.72-.13,1.44-.22,2.15a1.37,1.37,0,0,0,.13.77c1.62,3.28,3.23,6.81,4.79,10.58,1.84,4.47,3.39,8.77,4.7,12.81A.78.78,0,0,0,154.35,128.05Z"/><path class="cls-1" d="M149.47,136.69l.87-1.31a5.07,5.07,0,0,0,.64-4c-1-4.26-2.36-8.8-4-13.56-1.2-3.57-2.47-6.94-3.76-10.1a.43.43,0,0,0-.8,0,14,14,0,0,1-.73,1.93,1.25,1.25,0,0,0-.07.93c1.25,3.78,2.46,7.84,3.55,12.19,1.2,4.76,2.12,9.3,2.84,13.55A.78.78,0,0,0,149.47,136.69Z"/><path class="cls-1" d="M141.83,143.87a.79.79,0,0,0,1.35.53c.48-.5,1-1,1.43-1.53a4.49,4.49,0,0,0,1.12-3.42c-.44-4.44-1.08-9.21-2-14.25-.82-4.5-1.78-8.71-2.8-12.63a.51.51,0,0,0-.86-.22l-.39.41a8.64,8.64,0,0,1-.92.85.79.79,0,0,0-.29.78c.92,4.59,1.74,9.59,2.35,15C141.39,134.51,141.7,139.37,141.83,143.87Z"/><path class="cls-1" d="M136.6,150.24l.57-.44a5.24,5.24,0,0,0,2-3.94c.17-4.48.18-9.32-.06-14.46-.27-5.81-.81-11.2-1.51-16.12a.59.59,0,0,0-1-.36l-1.34,1.15a.91.91,0,0,0-.31.79c.53,5.23.88,11,.92,17.11,0,5.57-.18,10.78-.56,15.59A.78.78,0,0,0,136.6,150.24Z"/><path class="cls-1" d="M134.15,118.26a.51.51,0,0,0-1-.24l-1.65,2.87h0c-.18,5.51-.63,11.54-1.49,18-.8,6-1.83,11.57-3,16.63a.34.34,0,0,0,.49.38c.87-.44,1.73-.9,2.58-1.39a4.65,4.65,0,0,0,2.29-3.38c.68-4.73,1.23-9.85,1.55-15.32C134.34,129.51,134.35,123.63,134.15,118.26Z"/><path class="cls-1" d="M130.37,124.31a.34.34,0,0,0-.64-.2c-.84,1.49-1.63,2.93-2.34,4.26h0c-.82,4.38-1.84,9-3.15,13.9-1.24,4.66-2.61,9-4,13.07h0q-.09.9-.18,1.83a1.28,1.28,0,0,0,1.72,1.3L123,158a1.26,1.26,0,0,0,.73-.81c1.52-5.05,3-10.64,4.17-16.71C129,134.74,129.82,129.32,130.37,124.31Z"/><path class="cls-1" d="M125.52,130.74a22,22,0,0,0-1.75,3.46c-.84,1.78-1.5,3.26-2.21,5a42.09,42.09,0,0,0-2.47,8.33c-.45,2.39-1.11,7.16-.62,7.27C119.57,155,126.18,131,125.52,130.74Z"/><path class="cls-1" d="M126.12,15.78a1.26,1.26,0,0,0,.37.39l3.82,2.62a19.77,19.77,0,0,1,6.32,7.15l2,3.86a6.83,6.83,0,0,1,.36,5.51l-3.16,8.62a1.26,1.26,0,0,0,.36,1.37l2.15,1.84a1.21,1.21,0,0,0,1.33.18h0a1.19,1.19,0,0,0,.33-.22l3.89-2.63a1.93,1.93,0,0,1,2.7.56,11.48,11.48,0,0,1,1.57,5.08.41.41,0,0,0,.77.15c1.44-2.79,2.83-6.34,2.79-9a1.4,1.4,0,0,0-1.4-1.37,3.1,3.1,0,0,1-6.19.14c0-.44-.07-1.08-.09-1.87,0-1.37,0-2.29,0-2.7a14.47,14.47,0,0,0-.2-2.39,11.63,11.63,0,0,0-.52-2.23v0h0a10.44,10.44,0,0,0-.42-1L137.76,19a1.22,1.22,0,0,0-.27-.37l-5.2-4.89a.68.68,0,0,1,.86-1l3.94,2.83a.56.56,0,0,0,.88-.4l.22-2.37A4.76,4.76,0,0,0,135.66,8L122.18.9A8,8,0,0,0,119,0a1.25,1.25,0,0,0-1.14,1.88Z"/><path class="cls-1" d="M107.12,26.34l-6.34,2.73a2.44,2.44,0,0,1-2.72-.55L97,27.41a1.19,1.19,0,0,0-.87-.37H88.7a1.19,1.19,0,0,0-.87.37l-1.06,1.11a2.44,2.44,0,0,1-2.72.55l-6.34-2.73a.8.8,0,0,1-.11-1.42l4.66-2.87a5.31,5.31,0,0,1,2.8-.79H99.77a5.31,5.31,0,0,1,2.8.79l4.66,2.87A.8.8,0,0,1,107.12,26.34Z"/><path class="cls-1" d="M92.41,16a2.52,2.52,0,0,0,2.52-2.51V9.88a2.52,2.52,0,1,0-5,0v3.57A2.52,2.52,0,0,0,92.41,16Z"/></g></g></svg>